<?xml version="1.0" encoding="utf-8"?>
<!-- Generator: Adobe Illustrator 26.0.3, SVG Export Plug-In . SVG Version: 6.00 Build 0)  -->
<svg version="1.1" id="Laag_1" xmlns="http://www.w3.org/2000/svg" xmlns:xlink="http://www.w3.org/1999/xlink" x="0px" y="0px"
	 viewBox="0 0 956.7 413.7" style="enable-background:new 0 0 956.7 413.7;" xml:space="preserve">
<style type="text/css">
	.st0{clip-path:url(#SVGID_00000098217855790464000030000012551706670340638622_);fill:#EF8803;}
	.st1{clip-path:url(#SVGID_00000165947549029308907480000014432700688626370991_);fill:#35312A;}
</style>
<g>
	<defs>
		<rect id="SVGID_1_" width="956.7" height="413.7"/>
	</defs>
	<clipPath id="SVGID_00000021083002377677215920000003818204760526342325_">
		<use xlink:href="#SVGID_1_"  style="overflow:visible;"/>
	</clipPath>
</g>
<g>
	<defs>
		<rect id="SVGID_00000152955071812229527240000008617398417410966413_" width="956.7" height="413.7"/>
	</defs>
	<clipPath id="SVGID_00000064330905606625957330000011748190073996357539_">
		<use xlink:href="#SVGID_00000152955071812229527240000008617398417410966413_"  style="overflow:visible;"/>
	</clipPath>
	<path style="clip-path:url(#SVGID_00000064330905606625957330000011748190073996357539_);fill:#EF8803;" d="M576.4,386.4v0.2h202.5
		v-0.2c20-0.9,36-17.4,36-37.6c0-20.3-16-36.7-36-37.6V311H576.4v0.2c-0.6,0-1.2-0.2-1.8-0.2c-20.9,0-37.8,16.9-37.8,37.8
		c0,20.9,16.9,37.8,37.8,37.8C575.2,386.6,575.8,386.5,576.4,386.4"/>
	<path style="clip-path:url(#SVGID_00000064330905606625957330000011748190073996357539_);fill:#EF8803;" d="M430.1,244.6h489.3
		v-0.1c20.6-0.3,37.2-17.1,37.2-37.7c0-20.7-16.6-37.4-37.2-37.7V169H430.1v0.3c-19.6,1.4-35.1,17.6-35.1,37.5s15.5,36.1,35.1,37.5
		V244.6z"/>
	<path style="clip-path:url(#SVGID_00000064330905606625957330000011748190073996357539_);fill:#EF8803;" d="M801.3,102.7v-0.4
		c1.3,0.1,2.5,0.4,3.9,0.4c20.9,0,37.8-16.9,37.8-37.8c0-20.9-16.9-37.8-37.8-37.8c-1.3,0-2.6,0.3-3.9,0.4v-0.4H544.8v0.2
		c-20.1,0.9-36.2,17.3-36.2,37.6c0,20.3,16.1,36.8,36.2,37.6v0.2H801.3z"/>
</g>
<g>
	<g>
		<g>
			<defs>
				<rect id="SVGID_00000096029991241833138750000014212268207377539515_" width="276.7" height="413.7"/>
			</defs>
			<clipPath id="SVGID_00000034792528919068859500000001845603835811447217_">
				<use xlink:href="#SVGID_00000096029991241833138750000014212268207377539515_"  style="overflow:visible;"/>
			</clipPath>
			<path style="clip-path:url(#SVGID_00000034792528919068859500000001845603835811447217_);fill:#35312A;" d="M256.2,157.4
				l-139-139l0,0C104.7,6.9,88.1-0.1,69.8-0.1C31.2-0.1,0,31.1,0,69.7c0,18.2,7,34.9,18.5,47.4l0,0l89.7,89.7l-89.7,89.7l0,0
				C7,308.9,0,325.6,0,343.8c0,38.6,31.2,69.8,69.8,69.8c18.2,0,34.9-7,47.3-18.5l0,0l2-2l0,0l137-137
				c12.7-12.6,20.5-30.1,20.5-49.4C276.7,187.6,268.9,170.1,256.2,157.4"/>
		</g>
	</g>
</g>
</svg>
