<?xml version="1.0" encoding="utf-8"?>
<!-- Generator: Adobe Illustrator 26.0.3, SVG Export Plug-In . SVG Version: 6.00 Build 0)  -->
<svg version="1.1" id="Laag_1" xmlns="http://www.w3.org/2000/svg" xmlns:xlink="http://www.w3.org/1999/xlink" x="0px" y="0px"
	 viewBox="0 0 1667.1 531.9" style="enable-background:new 0 0 1667.1 531.9;" xml:space="preserve">
<style type="text/css">
	.st0{fill:#35312A;}
	.st1{fill:#FFFFFF;}
</style>
<g>
	<path class="st0" d="M366.1,93.1v-0.2H171.1v0.2c-19.3,0.9-34.7,16.7-34.7,36.2c0,19.5,15.4,35.3,34.7,36.2v0.2h194.9v-0.2
		c0.6,0,1.1,0.2,1.7,0.2c20.1,0,36.4-16.3,36.4-36.4c0-20.1-16.3-36.4-36.4-36.4C367.2,92.9,366.7,93,366.1,93.1"/>
	<path class="st0" d="M506.8,229.5h-471v0.1C16,229.9,0,246,0,265.9c0,19.9,16,36,35.8,36.3v0.1h471v-0.3
		c18.9-1.4,33.8-16.9,33.8-36.1c0-19.2-14.9-34.8-33.8-36.1V229.5z"/>
	<path class="st0" d="M149.5,366.2v0.4c-1.2-0.1-2.5-0.4-3.7-0.4c-20.1,0-36.4,16.3-36.4,36.4c0,20.1,16.3,36.4,36.4,36.4
		c1.3,0,2.5-0.2,3.7-0.4v0.4h246.9v-0.2c19.4-0.9,34.8-16.7,34.8-36.2c0-19.6-15.5-35.4-34.8-36.2v-0.2H149.5z"/>
</g>
<g>
	<path class="st1" d="M1492.6,93.1v-0.2h-194.9v0.2c-19.3,0.9-34.7,16.7-34.7,36.2c0,19.5,15.4,35.3,34.7,36.2v0.2h194.9v-0.2
		c0.6,0,1.1,0.2,1.7,0.2c20.1,0,36.4-16.3,36.4-36.4c0-20.1-16.3-36.4-36.4-36.4C1493.7,92.9,1493.1,93,1492.6,93.1"/>
	<path class="st1" d="M1633.3,229.5h-471v0.1c-19.8,0.3-35.8,16.4-35.8,36.3c0,19.9,16,36,35.8,36.3v0.1h471v-0.3
		c18.9-1.4,33.8-16.9,33.8-36.1c0-19.2-14.9-34.8-33.8-36.1V229.5z"/>
	<path class="st1" d="M1276,366.2v0.4c-1.2-0.1-2.4-0.4-3.7-0.4c-20.1,0-36.4,16.3-36.4,36.4c0,20.1,16.3,36.4,36.4,36.4
		c1.3,0,2.5-0.2,3.7-0.4v0.4h246.9v-0.2c19.3-0.9,34.8-16.7,34.8-36.2c0-19.6-15.5-35.4-34.8-36.2v-0.2H1276z"/>
</g>
<path class="st0" d="M786.3,286.4L653.1,419.6l0,0c-11,12-17.8,27.8-17.8,45.4c0,37,29.9,66.9,66.9,66.9c17.5,0,33.4-6.7,45.4-17.8
	l0,0l86-86l86,86l0,0c11.9,11,27.8,17.8,45.3,17.8c37,0,66.9-29.9,66.9-66.9c0-17.5-6.7-33.4-17.8-45.3l0,0l-1.9-1.9l0,0
	L880.8,286.5c-12.1-12.2-28.9-19.7-47.3-19.7C815.1,266.7,798.4,274.2,786.3,286.4"/>
<g>
	<path class="st0" d="M833.5,203c55.7,0,100.8-45.1,100.8-100.8c0-55.7-45.1-100.8-100.8-100.8c-55.7,0-100.8,45.1-100.8,100.8
		C732.8,157.9,777.9,203,833.5,203"/>
</g>
</svg>
