<?xml version="1.0" encoding="utf-8"?>
<!-- Generator: Adobe Illustrator 26.0.3, SVG Export Plug-In . SVG Version: 6.00 Build 0)  -->
<svg version="1.1" id="Laag_1" xmlns="http://www.w3.org/2000/svg" xmlns:xlink="http://www.w3.org/1999/xlink" x="0px" y="0px"
	 viewBox="0 0 1509.5 531.9" style="enable-background:new 0 0 1509.5 531.9;" xml:space="preserve">
<style type="text/css">
	.st0{clip-path:url(#SVGID_00000144321603644721146310000000722975660549490314_);fill:#FFFFFF;}
	.st1{fill:#35312A;}
</style>
<g>
	<defs>
		<rect id="SVGID_1_" width="1509.5" height="531.9"/>
	</defs>
	<clipPath id="SVGID_00000052093073861127934340000010098086636200255898_">
		<use xlink:href="#SVGID_1_"  style="overflow:visible;"/>
	</clipPath>
	<path style="clip-path:url(#SVGID_00000052093073861127934340000010098086636200255898_);fill:#FFFFFF;" d="M850.5,93.1v-0.2H655.6
		v0.2c-19.3,0.9-34.7,16.7-34.7,36.2c0,19.5,15.4,35.3,34.7,36.2v0.2h194.9v-0.2c0.6,0,1.1,0.2,1.7,0.2c20.1,0,36.4-16.3,36.4-36.4
		c0-20.1-16.3-36.4-36.4-36.4C851.6,92.9,851.1,93,850.5,93.1"/>
	<path style="clip-path:url(#SVGID_00000052093073861127934340000010098086636200255898_);fill:#FFFFFF;" d="M991.3,229.5h-471v0.1
		c-19.8,0.3-35.8,16.4-35.8,36.3c0,19.9,16,36,35.8,36.3v0.1h471v-0.3c18.9-1.4,33.8-16.9,33.8-36.1c0-19.2-14.9-34.8-33.8-36.1
		V229.5z"/>
	<path style="clip-path:url(#SVGID_00000052093073861127934340000010098086636200255898_);fill:#FFFFFF;" d="M633.9,366.2v0.4
		c-1.2-0.1-2.5-0.4-3.7-0.4c-20.1,0-36.4,16.3-36.4,36.4c0,20.1,16.3,36.4,36.4,36.4c1.3,0,2.5-0.2,3.7-0.4v0.4h246.9v-0.2
		c19.3-0.9,34.8-16.7,34.8-36.2c0-19.6-15.5-35.4-34.8-36.2v-0.2H633.9z"/>
</g>
<g>
	<defs>
		<rect id="SVGID_00000148652495192580618690000002600156085664240566_" width="1509.5" height="531.9"/>
	</defs>
	<clipPath id="SVGID_00000106149802383246101810000017246328399787845264_">
		<use xlink:href="#SVGID_00000148652495192580618690000002600156085664240566_"  style="overflow:visible;"/>
	</clipPath>
</g>
<g>
	<defs>
		<rect id="SVGID_00000106839113209205900870000005162283292700336049_" width="1509.5" height="531.9"/>
	</defs>
	<clipPath id="SVGID_00000072973239297517981070000010137144968507974031_">
		<use xlink:href="#SVGID_00000106839113209205900870000005162283292700336049_"  style="overflow:visible;"/>
	</clipPath>
</g>
<path class="st1" d="M150.9,285.7L17.8,418.9l0,0C6.7,430.8,0,446.7,0,464.3c0,37,29.9,66.9,66.9,66.9c17.5,0,33.4-6.7,45.4-17.8
	l0,0l86-86l86,86l0,0c11.9,11,27.8,17.8,45.3,17.8c37,0,66.9-29.9,66.9-66.9c0-17.5-6.7-33.4-17.8-45.3l0,0l-1.9-1.9l0,0
	L245.5,285.8c-12.1-12.2-28.9-19.7-47.3-19.7C179.8,266,163.1,273.5,150.9,285.7"/>
<g>
	<path class="st1" d="M198.2,202.3c55.7,0,100.8-45.1,100.8-100.8C299,45.8,253.9,0.7,198.2,0.7S97.4,45.8,97.4,101.5
		C97.4,157.2,142.5,202.3,198.2,202.3"/>
</g>
<path class="st1" d="M1264,285.3l-133.2,133.2l0,0c-11,12-17.8,27.8-17.8,45.4c0,37,29.9,66.9,66.9,66.9c17.5,0,33.4-6.7,45.4-17.8
	l0,0l86-86l86,86l0,0c11.9,11,27.8,17.8,45.3,17.8c37,0,66.9-29.9,66.9-66.9c0-17.5-6.7-33.4-17.8-45.3l0,0l-1.9-1.9l0,0
	l-131.3-131.3c-12.1-12.2-28.9-19.7-47.3-19.7C1292.9,265.6,1276.2,273.1,1264,285.3"/>
<g>
	<path class="st1" d="M1311.3,201.9c55.7,0,100.8-45.1,100.8-100.8c0-55.7-45.1-100.8-100.8-100.8s-100.8,45.1-100.8,100.8
		C1210.5,156.8,1255.6,201.9,1311.3,201.9"/>
</g>
</svg>
