<?xml version="1.0" encoding="utf-8"?>
<!-- Generator: Adobe Illustrator 26.0.3, SVG Export Plug-In . SVG Version: 6.00 Build 0)  -->
<svg version="1.1" id="Laag_1" xmlns="http://www.w3.org/2000/svg" xmlns:xlink="http://www.w3.org/1999/xlink" x="0px" y="0px"
	 viewBox="0 0 1767.5 346.1" style="enable-background:new 0 0 1767.5 346.1;" xml:space="preserve">
<style type="text/css">
	.st0{clip-path:url(#SVGID_00000106111630276380785410000017083753252394558120_);fill:#35312A;}
	.st1{clip-path:url(#SVGID_00000106111630276380785410000017083753252394558120_);fill:#FFFFFF;}
</style>
<g>
	<defs>
		<rect id="SVGID_1_" width="1767.5" height="346.1"/>
	</defs>
	<clipPath id="SVGID_00000007407279170085361080000004476046708132103581_">
		<use xlink:href="#SVGID_1_"  style="overflow:visible;"/>
	</clipPath>
	<path style="clip-path:url(#SVGID_00000007407279170085361080000004476046708132103581_);fill:#35312A;" d="M912.9,309.7
		c0-19.5-15.4-35.3-34.7-36.2v-0.2H689.5h-6.2h-125h-63.7H369.5h-6.2H174.5v0.2c-0.6,0-1.1-0.2-1.7-0.2c-20.1,0-36.4,16.3-36.4,36.4
		c0,20.1,16.3,36.4,36.4,36.4c0.6,0,1.1-0.1,1.7-0.2v0.2h188.7h6.2h125.1h63.7h125h6.2h188.8v-0.2
		C897.5,345,912.9,329.2,912.9,309.7"/>
	<path style="clip-path:url(#SVGID_00000007407279170085361080000004476046708132103581_);fill:#35312A;" d="M1049.4,173
		c0-19.9-16-36-35.8-36.3v-0.1H824.8H693.6h-151h-37.7h-151H222.5H33.8v0.3C14.9,138.3,0,153.8,0,173s14.9,34.8,33.8,36.1v0.3h188.8
		h131.2h151h37.7h151h131.2h188.8v-0.1C1033.4,209.1,1049.4,192.9,1049.4,173"/>
	<path style="clip-path:url(#SVGID_00000007407279170085361080000004476046708132103581_);fill:#35312A;" d="M940,36.4
		C940,16.3,923.7,0,903.6,0c-1.3,0-2.5,0.3-3.7,0.4V0H711.1H653h-73.1H464.2h-73.1H333H144.2v0.2c-19.3,0.8-34.8,16.7-34.8,36.2
		c0,19.6,15.5,35.4,34.8,36.2v0.2H333h58.2h73.1h115.7H653h58.2h188.8v-0.4c1.2,0.1,2.4,0.4,3.7,0.4C923.7,72.8,940,56.5,940,36.4"
		/>
	<path style="clip-path:url(#SVGID_00000007407279170085361080000004476046708132103581_);fill:#FFFFFF;" d="M1401.4,345.9v0.2
		h194.9v-0.2c19.3-0.9,34.7-16.7,34.7-36.2c0-19.5-15.4-35.3-34.7-36.2v-0.2h-194.9v0.2c-0.6,0-1.1-0.2-1.7-0.2
		c-20.1,0-36.4,16.3-36.4,36.4c0,20.1,16.3,36.4,36.4,36.4C1400.3,346.1,1400.9,345.9,1401.4,345.9"/>
	<path style="clip-path:url(#SVGID_00000007407279170085361080000004476046708132103581_);fill:#FFFFFF;" d="M1260.7,209.4h471v-0.1
		c19.8-0.3,35.8-16.4,35.8-36.3c0-19.9-16-36-35.8-36.3v-0.1h-471v0.3c-18.9,1.4-33.8,16.9-33.8,36.1c0,19.2,14.9,34.8,33.8,36.1
		V209.4z"/>
	<path style="clip-path:url(#SVGID_00000007407279170085361080000004476046708132103581_);fill:#FFFFFF;" d="M1618,72.8v-0.4
		c1.2,0.1,2.4,0.4,3.7,0.4c20.1,0,36.4-16.3,36.4-36.4S1641.8,0,1621.7,0c-1.3,0-2.5,0.3-3.7,0.4V0h-246.9v0.2
		c-19.4,0.8-34.8,16.7-34.8,36.2c0,19.6,15.5,35.4,34.8,36.2v0.2H1618z"/>
</g>
</svg>
