<?xml version="1.0" encoding="utf-8"?>
<!-- Generator: Adobe Illustrator 26.0.3, SVG Export Plug-In . SVG Version: 6.00 Build 0)  -->
<svg version="1.1" id="Laag_1" xmlns="http://www.w3.org/2000/svg" xmlns:xlink="http://www.w3.org/1999/xlink" x="0px" y="0px"
	 viewBox="0 0 356.7 86" style="enable-background:new 0 0 356.7 86;" xml:space="preserve">
<style type="text/css">
	.st0{clip-path:url(#SVGID_00000109024079334138260580000010241875105527223938_);fill:#FFFFFF;}
	.st1{clip-path:url(#SVGID_00000109024079334138260580000010241875105527223938_);fill:#35312A;}
	.st2{clip-path:url(#SVGID_00000039852800944478522550000000771545171929769382_);fill:#35312A;}
	.st3{fill:#FFFFFF;}
</style>
<g>
	<defs>
		<rect id="SVGID_1_" x="-0.1" y="0" width="356.7" height="86"/>
	</defs>
	<clipPath id="SVGID_00000091701090491187316580000014549671435198512299_">
		<use xlink:href="#SVGID_1_"  style="overflow:visible;"/>
	</clipPath>
	<path style="clip-path:url(#SVGID_00000091701090491187316580000014549671435198512299_);fill:#FFFFFF;" d="M179.7,85.7
		c23.7,0,43-19.2,43-43s-19.3-43-43-43s-43,19.2-43,43S155.9,85.7,179.7,85.7"/>
	<path style="clip-path:url(#SVGID_00000091701090491187316580000014549671435198512299_);fill:#35312A;" d="M185.1,35.9"/>
</g>
<g>
	<g>
		<g>
			<defs>
				<rect id="SVGID_00000062900971479531049690000017602616871340279725_" x="165.9" y="22.3" width="27.6" height="41.3"/>
			</defs>
			<clipPath id="SVGID_00000101077617553416242020000001435266607381419411_">
				<use xlink:href="#SVGID_00000062900971479531049690000017602616871340279725_"  style="overflow:visible;"/>
			</clipPath>
			<path style="clip-path:url(#SVGID_00000101077617553416242020000001435266607381419411_);fill:#35312A;" d="M191.4,38l-13.9-13.9
				l0,0c-1.2-1.1-2.9-1.8-4.7-1.8c-3.8,0-7,3.1-7,7c0,1.8,0.7,3.5,1.8,4.7l0,0l9,9l-9,9l0,0c-1.1,1.2-1.8,2.9-1.8,4.7
				c0,3.8,3.1,7,7,7c1.8,0,3.5-0.7,4.7-1.8l0,0l0.2-0.2l0,0l13.7-13.7c1.3-1.3,2-3,2-4.9C193.5,41.1,192.7,39.3,191.4,38"/>
		</g>
	</g>
</g>
<path class="st3" d="M330.7,39.1l-11-11l0,0c-1-0.9-2.3-1.5-3.8-1.5c-3.1,0-5.5,2.5-5.5,5.5c0,1.4,0.6,2.8,1.5,3.8l0,0l7.1,7.1
	l-7.1,7.1l0,0c-0.9,1-1.5,2.3-1.5,3.8c0,3.1,2.5,5.5,5.5,5.5c1.4,0,2.8-0.6,3.8-1.5l0,0l0.2-0.2l0,0l10.9-10.9c1-1,1.6-2.4,1.6-3.9
	C332.3,41.5,331.7,40.1,330.7,39.1"/>
<path class="st3" d="M355,39.1l-11-11l0,0c-1-0.9-2.3-1.5-3.8-1.5c-3.1,0-5.5,2.5-5.5,5.5c0,1.4,0.6,2.8,1.5,3.8l0,0l7.1,7.1
	l-7.1,7.1l0,0c-0.9,1-1.5,2.3-1.5,3.8c0,3.1,2.5,5.5,5.5,5.5c1.4,0,2.8-0.6,3.8-1.5l0,0l0.2-0.2l0,0L355,46.9c1-1,1.6-2.4,1.6-3.9
	C356.7,41.5,356,40.1,355,39.1"/>
<path class="st3" d="M26,39.1c-1,1-1.6,2.4-1.6,3.9c0,1.5,0.6,2.9,1.6,3.9l10.9,10.9l0,0l0.2,0.2l0,0c1,0.9,2.3,1.5,3.8,1.5
	c3.1,0,5.5-2.5,5.5-5.5c0-1.4-0.6-2.8-1.5-3.8l0,0L37.8,43l7.1-7.1l0,0c0.9-1,1.5-2.3,1.5-3.8c0-3.1-2.5-5.5-5.5-5.5
	c-1.5,0-2.8,0.6-3.8,1.5l0,0L26,39.1"/>
<path class="st3" d="M1.6,39.1c-1,1-1.6,2.4-1.6,3.9c0,1.5,0.6,2.9,1.6,3.9l10.9,10.9l0,0l0.2,0.2l0,0c1,0.9,2.3,1.5,3.8,1.5
	c3.1,0,5.5-2.5,5.5-5.5c0-1.4-0.6-2.8-1.5-3.8l0,0L13.4,43l7.1-7.1l0,0c0.9-1,1.5-2.3,1.5-3.8c0-3.1-2.5-5.5-5.5-5.5
	c-1.5,0-2.8,0.6-3.8,1.5l0,0L1.6,39.1"/>
</svg>
