<?xml version="1.0" encoding="utf-8"?>
<!-- Generator: Adobe Illustrator 26.0.3, SVG Export Plug-In . SVG Version: 6.00 Build 0)  -->
<svg version="1.1" id="Laag_1" xmlns="http://www.w3.org/2000/svg" xmlns:xlink="http://www.w3.org/1999/xlink" x="0px" y="0px"
	 viewBox="0 0 356.7 86" style="enable-background:new 0 0 356.7 86;" xml:space="preserve">
<style type="text/css">
	.st0{clip-path:url(#SVGID_00000091728657249453602020000013193261724926930562_);fill:#FFFFFF;}
	.st1{clip-path:url(#SVGID_00000091728657249453602020000013193261724926930562_);fill:#35312A;}
	.st2{fill:#FFFFFF;}
	.st3{fill:#35312A;}
</style>
<g>
	<defs>
		<rect id="SVGID_1_" x="-0.1" y="0" width="356.7" height="86"/>
	</defs>
	<clipPath id="SVGID_00000034048074953173517450000006630062447233902232_">
		<use xlink:href="#SVGID_1_"  style="overflow:visible;"/>
	</clipPath>
	<path style="clip-path:url(#SVGID_00000034048074953173517450000006630062447233902232_);fill:#FFFFFF;" d="M178.4,85.8
		c23.7,0,43-19.2,43-43s-19.3-43-43-43s-43,19.2-43,43S154.7,85.8,178.4,85.8"/>
	<path style="clip-path:url(#SVGID_00000034048074953173517450000006630062447233902232_);fill:#35312A;" d="M185.1,35.9"/>
</g>
<path class="st2" d="M330.7,39.1l-11-11l0,0c-1-0.9-2.3-1.5-3.8-1.5c-3.1,0-5.5,2.5-5.5,5.5c0,1.4,0.6,2.8,1.5,3.8l0,0l7.1,7.1
	l-7.1,7.1l0,0c-0.9,1-1.5,2.3-1.5,3.8c0,3.1,2.5,5.5,5.5,5.5c1.4,0,2.8-0.6,3.8-1.5l0,0l0.2-0.2l0,0l10.9-10.9c1-1,1.6-2.4,1.6-3.9
	C332.3,41.5,331.7,40.1,330.7,39.1"/>
<path class="st2" d="M355,39.1l-11-11l0,0c-1-0.9-2.3-1.5-3.8-1.5c-3.1,0-5.5,2.5-5.5,5.5c0,1.4,0.6,2.8,1.5,3.8l0,0l7.1,7.1
	l-7.1,7.1l0,0c-0.9,1-1.5,2.3-1.5,3.8c0,3.1,2.5,5.5,5.5,5.5c1.4,0,2.8-0.6,3.8-1.5l0,0l0.2-0.2l0,0L355,46.9c1-1,1.6-2.4,1.6-3.9
	C356.7,41.5,356,40.1,355,39.1"/>
<path class="st2" d="M26,39.1c-1,1-1.6,2.4-1.6,3.9c0,1.5,0.6,2.9,1.6,3.9l10.9,10.9l0,0l0.2,0.2l0,0c1,0.9,2.3,1.5,3.8,1.5
	c3.1,0,5.5-2.5,5.5-5.5c0-1.4-0.6-2.8-1.5-3.8l0,0L37.8,43l7.1-7.1l0,0c0.9-1,1.5-2.3,1.5-3.8c0-3.1-2.5-5.5-5.5-5.5
	c-1.5,0-2.8,0.6-3.8,1.5l0,0L26,39.1"/>
<path class="st2" d="M1.6,39.1c-1,1-1.6,2.4-1.6,3.9c0,1.5,0.6,2.9,1.6,3.9l10.9,10.9l0,0l0.2,0.2l0,0c1,0.9,2.3,1.5,3.8,1.5
	c3.1,0,5.5-2.5,5.5-5.5c0-1.4-0.6-2.8-1.5-3.8l0,0L13.4,43l7.1-7.1l0,0c0.9-1,1.5-2.3,1.5-3.8c0-3.1-2.5-5.5-5.5-5.5
	c-1.5,0-2.8,0.6-3.8,1.5l0,0L1.6,39.1"/>
<path class="st3" d="M193.1,48c-1.3-1.3-3-2-4.7-2h-8.8h-2.4h-8.8c-1.7,0.1-3.4,0.7-4.7,2c-2.7,2.7-2.7,7.1,0,9.8c1.3,1.3,3,2,4.7,2
	h8.8h2.4h8.8c1.7-0.1,3.4-0.7,4.7-2C195.8,55.2,195.8,50.8,193.1,48z"/>
<path class="st3" d="M193.1,27.7c-1.3-1.3-3-2-4.7-2h-8.8h-2.4h-8.8c-1.7,0.1-3.4,0.7-4.7,2c-2.7,2.7-2.7,7.1,0,9.8
	c1.3,1.3,3,2,4.7,2h8.8h2.4h8.8c1.7-0.1,3.4-0.7,4.7-2C195.8,34.8,195.8,30.4,193.1,27.7z"/>
</svg>
