<?xml version="1.0" encoding="utf-8"?>
<!-- Generator: Adobe Illustrator 26.0.3, SVG Export Plug-In . SVG Version: 6.00 Build 0)  -->
<svg version="1.1" id="Laag_1" xmlns="http://www.w3.org/2000/svg" xmlns:xlink="http://www.w3.org/1999/xlink" x="0px" y="0px"
	 viewBox="0 0 1252.3 1030.3" style="enable-background:new 0 0 1252.3 1030.3;" xml:space="preserve">
<style type="text/css">
	.st0{clip-path:url(#SVGID_00000176752118657858369610000008887133440426694536_);fill:#FFFFFF;}
</style>
<g>
	<defs>
		<rect id="SVGID_1_" x="0.5" width="1251.8" height="1029.9"/>
	</defs>
	<clipPath id="SVGID_00000060006180139598374210000015030548146393389975_">
		<use xlink:href="#SVGID_1_"  style="overflow:visible;"/>
	</clipPath>
	<path style="clip-path:url(#SVGID_00000060006180139598374210000015030548146393389975_);fill:#FFFFFF;" d="M1231,841.2
		c-5.8,0-7.8,1.7-7.8,7.5v89.7c-9,2.3-17.5,3.5-25.8,3.5c-18.3,0-27.3-8.3-27.3-24.8v-68.4c0-5.8-1.8-7.5-7.5-7.5h-13.8
		c-5.8,0-7.8,1.7-7.8,7.5v69.4c0,32.3,17.3,50.4,52.4,50.4c9.5,0,19.5-1.3,29.8-3.5v11.8c0,18-8.8,27.1-26.6,27.1
		c-12.3,0-21.1-4.3-26.3-12.8c-3.8-5.3-6.5-6-12.5-3l-9.5,5.3c-5.8,2.8-6.8,7-3.3,12.5c9.8,16,27.3,24.1,52.1,24.1
		c37.8,0,55.1-20.3,55.1-54.6V848.7c0-5.8-2-7.5-7.8-7.5H1231z M1009.7,845.7c-7.5-5.5-17.8-8.3-31.1-8.3c-16.5,0-31.8,2.7-45.6,8.5
		c-7.8,3.3-9.8,6.3-9.8,14.3v103c0,5.8,2,7.8,7.8,7.8h13.8c5.8,0,7.5-2,7.5-7.8V870c0-1.5,0.7-2.5,2-3c6.3-2,12.8-3,20-3
		c16.3,0,24.6,8,24.6,24.3v74.9c0,5.8,2,7.8,7.8,7.8h13.5c5.8,0,7.8-2,7.8-7.8v-75.9c0-7.8-1-14-2.8-18.8c8.8-3,16.8-4.5,24.3-4.5
		c16.3,0,24.3,8,24.3,24.3v74.9c0,5.8,2,7.8,7.8,7.8h13.8c5.8,0,7.5-2,7.5-7.8v-75.9c0-33.3-16.3-49.9-49.1-49.9
		C1038,837.5,1023.5,840.2,1009.7,845.7 M861.6,893.1h-57.9v-5.5c0-16.3,10.3-25.6,29.1-25.6c19,0,28.8,9.3,28.8,25.6V893.1z
		 M774.6,921.2c0,32.8,18.5,53.6,57.6,53.6c26.3,0,44.4-8,54.1-24.1c3.8-5.8,2.8-9.8-3-12.5l-8.8-4.8c-6-3.3-8.8-2.8-12.8,3
		c-5.8,8.8-15.5,13.3-29.6,13.3c-18.3,0-28.6-8.8-28.6-25.1v-9.3h75.7c7.5,0,11.3-3.5,11.3-10.8v-15.3c0-30.3-19.8-51.9-57.9-51.9
		c-37.8,0-58.1,19-58.1,54.1V921.2z M711.5,942.7c0,1.2-0.7,2.2-2,2.7c-6.5,1.8-14.3,2.8-23.1,2.8c-18.8,0-28.1-8.3-28.1-25.1v-32.6
		c0-17.8,9.5-26.6,28.8-26.6c6.3,0,14.3,1,24.3,3.3V942.7z M629.3,924.2c0,33.8,18,50.6,54.4,50.6c17,0,32.6-2.8,46.9-8
		c8-3.3,10-5.8,10-13.8V793.3c0-5.8-2-7.8-7.8-7.8H719c-5.8,0-7.5,2-7.5,7.8v47.4c-12.3-2.3-22.1-3.3-29.8-3.3
		c-34.8,0-52.4,18.3-52.4,52.4V924.2z M567.3,945.2c0,1.8-1,2.8-2.7,3.5c-6,1.3-14.3,2-25.1,2c-18.3,0-23.6-5.5-23.6-16.8
		c0-11,6-16.3,24.1-16.3c0.7,0,9.8,0.5,27.3,1.3V945.2z M490.9,863.5c-2.8,5-1.3,8.8,4.3,11.3l10,4.3c5.8,2,7,1.5,10.8-3.8
		c5.3-8,14-12,26.3-12c18,0,25.1,8.5,25.1,24.8v7c-14.3-0.7-22.3-1.2-24.1-1.2c-40.9,0-56.9,10.5-56.9,40.3c0,13.8,4,24.1,12,30.6
		c8,6.8,22.6,10,43.9,10c20.1,0,35.1-2.3,45.1-6.5c7-3,9-5.5,9-14.3v-64.9c0-34.3-17.8-51.6-53.6-51.6
		C517.2,837.5,499.9,846.2,490.9,863.5 M349.3,923.4c0,32.8,18.3,51.4,55.4,51.4c28.6,0,47.1-11,55.9-33.3c2.3-5.3,0.5-9-5.3-11.3
		l-11.3-3.3c-6-2-8.8-1-11,5c-4.3,11.5-13.5,17.3-27.3,17.3c-17.8,0-27.3-8.8-27.3-24.6v-37.1c0-16.3,9-24.6,27.3-24.6
		c13.8,0,23.1,5.5,27.3,16.8c2.3,6,5,7.5,11,5.3l11-3.5c6-2.3,7.5-5,5.5-11.3c-6.8-19.8-25.3-32.8-53.6-32.8
		c-38.3,0-57.6,18.5-57.6,51.4V923.4z M287.7,945.2c0,1.8-1,2.8-2.8,3.5c-6,1.3-14.3,2-25.1,2c-18.3,0-23.6-5.5-23.6-16.8
		c0-11,6-16.3,24.1-16.3c0.8,0,9.8,0.5,27.3,1.3V945.2z M211.2,863.5c-2.7,5-1.2,8.8,4.3,11.3l10,4.3c5.8,2,7,1.5,10.8-3.8
		c5.3-8,14-12,26.3-12c18,0,25.1,8.5,25.1,24.8v7c-14.3-0.7-22.3-1.2-24.1-1.2c-40.8,0-56.9,10.5-56.9,40.3c0,13.8,4,24.1,12,30.6
		c8,6.8,22.6,10,43.9,10c20.1,0,35.1-2.3,45.1-6.5c7-3,9-5.5,9-14.3v-64.9c0-34.3-17.8-51.6-53.6-51.6
		C237.5,837.5,220.2,846.2,211.2,863.5 M149.6,938.4c-12.3,0-16,4-16,16v2.3c0,12.3,3.8,16,16,16h1.8c12.3,0,16-3.8,16-16v-2.3
		c0-12-3.8-16-16-16H149.6z M135.3,793.1c-10.8,0-13,0.5-16.8,7.5l-39.1,67.7l-38.8-67.7c-3.8-7-5.8-7.5-16.5-7.5H6.5
		c-6,0-7.5,3.8-4.5,8.5l61.4,98.7v62.2c0,6.3,2.2,8.5,8.5,8.5h14.3c6.3,0,8.5-2.3,8.5-8.5v-61.6l61.2-99.3c3-4.8,1.7-8.5-4.3-8.5
		H135.3z"/>
	<path style="clip-path:url(#SVGID_00000060006180139598374210000015030548146393389975_);fill:#FFFFFF;" d="M298.4,458.4
		c-28.2-28.3-27.9-76.1-0.4-104c-27.8-30.8-27.3-72-1.6-103.3c-5.3-10.3-11.6-19.8-15.3-30.2c-10.6-30.1,0.5-63.7,26.8-81.9
		c9.2-6.4,19.2-11.5,29.2-16.6c63.6-32.4,127.3-64.8,191.1-96.9C543,17.9,558,10.1,573.8,4.9c23.4-7.6,47.3-5.4,71.3-0.3
		c70.1,14.8,140.4,28.8,210.7,43.1c12,2.5,24,4.9,36,7.7c5,1.2,9.4,3.8,10,9.7c0.6,5.8-2.3,10-7.2,12.9c-3.8,2.3-7.6,4.6-11.5,6.7
		C843,105.9,803,127,763,148.2c-45.8,24.3-91.5,48.6-137.1,73.1c-6.1,3.3-12,4.1-18.8,2.6c-83.8-18.4-167.6-36.6-251.4-54.9
		c-18.8-4.1-33.8,5.7-37.9,24.6c-3.3,15.4,8.8,31.8,25.7,35.5c63.2,13.7,126.3,27.6,189.4,41.4c29.3,6.4,58.7,12.8,88,19.5
		c5.8,1.3,10.2-0.8,14.8-3.3c39.1-21.2,78.2-42.4,117.3-63.5c43.3-23.4,86.6-46.7,129.8-70c5.9-3.2,11.8-5.4,18.7-3.4
		c8.7,2.5,13,8.8,14,17.1c1,7.9-1,15.3-8.5,19.6c-13.9,7.9-27.9,15.6-41.9,23.2c-46.3,24.9-92.7,49.8-138.9,74.7
		c-28.1,15.1-56,30.6-84.3,45.4c-4.4,2.3-10.7,3.2-15.6,2.2c-76-16.2-151.9-32.8-227.8-49.3c-14.8-3.2-29.6-6.6-44.4-9.7
		c-16.1-3.4-30.1,5-35.4,20.9c-4.6,13.9,1.9,29.9,16.4,35.7c11.1,4.4,23,6.7,34.7,9.2c67.9,15,135.9,29.7,203.9,44.6
		c15.3,3.4,30.6,6.8,45.9,10.3c5.3,1.2,10,0.6,14.9-2.1c62-33.7,124.2-67.2,186.3-100.9c21.4-11.6,42.6-23.4,64-35
		c10.9-5.9,23.1-2.6,28.5,7.5c5.6,10.5,1.8,23-9,28.9c-39.3,21.3-78.7,42.5-118,63.8c-46.9,25.4-93.9,50.7-140.7,76.3
		c-8.1,4.4-16,5.5-24.9,3.6c-88.1-19.6-176.2-39-264.2-58.5c-17-3.8-30.9,3.1-37.1,18.4c-7,17.2,4.1,36.5,23.9,41.1
		c20.2,4.7,40.4,9,60.6,13.4c70.7,15.5,141.5,30.9,212.2,46.6c7.6,1.7,13.9,1.3,20.8-2.6c37.5-20.7,75.4-41,113.1-61.4
		c43.9-23.8,87.9-47.5,131.8-71.4c15.7-8.6,29.7-3.8,33.5,11.6c2.4,9.6-1.6,18-11.3,23.4c-19.7,10.8-39.5,21.5-59.3,32.2
		c-52.5,28.3-105,56.6-157.5,85c-13.8,7.5-27.6,15-41.3,22.6c-7.9,4.4-15.9,5.4-24.9,3.4c-86.3-19-172.7-37.8-259.1-56.6
		c-5.6-1.2-11.3-3.3-16.8-3c-13.7,0.9-25.3,12.3-27.7,26c-2,11.6,5.7,26.4,17.6,31.4c7.1,3,15,4.6,22.6,6.3
		c86.3,19,172.7,37.8,259,57c7.7,1.7,13.9,0.8,20.8-3c38.3-21.1,76.8-41.7,115.2-62.5c43-23.3,86-46.6,129-69.9c6-3.3,12-6,19.4-3.8
		c8.7,2.5,13.1,8.4,14.6,16.7c1.4,8.1-1.1,15.2-8.2,19.8c-5.9,3.8-12.1,7.2-18.3,10.6c-46.7,25.2-93.5,50.3-140.3,75.5
		c-34.8,18.8-69.5,37.6-104.2,56.5c-7,3.8-14,4.9-21.9,3.1c-85.6-18.8-171.2-37.4-256.8-56.1c-11.2-2.4-22.5-4.7-33.7-7.2
		c-29.3-6.7-49.6-29.5-53.7-58.5C274.9,497.3,281.1,476,298.4,458.4"/>
</g>
</svg>
