<svg xmlns="http://www.w3.org/2000/svg" viewBox="0 0 704.84 238.46"><defs><style>.cls-1{fill:#f18a00;}.cls-2{fill:#222221;}.cls-3{fill:none;stroke:#d88621;stroke-linecap:round;stroke-miterlimit:10;stroke-width:1.79px;}</style></defs><g id="Layer_2" data-name="Layer 2"><g id="Laag_1" data-name="Laag 1"><path class="cls-1" d="M654.07,199c-1.72.7-2.1,1.34-2.1,3.07v22.11c0,1.23.43,1.66,1.67,1.66h3c1.24,0,1.61-.43,1.61-1.66V204.08a.52.52,0,0,1,.38-.54,19.09,19.09,0,0,1,5.16-.7c3.93,0,5.87,1.78,5.87,5.27v16c0,1.23.38,1.66,1.61,1.66h3c1.24,0,1.67-.43,1.67-1.66V208c0-6.94-3.66-10.81-11.19-10.81a28,28,0,0,0-10.6,1.83m-14.53,21.3a.79.79,0,0,1-.59.76,27.18,27.18,0,0,1-5.38.43c-3.92,0-5.05-1.19-5.05-3.61s1.29-3.49,5.16-3.49l5.86.26Zm-16.4-17.54c-.6,1.08-.27,1.89.91,2.43l2.15.91c1.24.43,1.51.32,2.32-.81q1.69-2.58,5.64-2.58c3.88,0,5.38,1.83,5.38,5.33v1.5c-3.06-.16-4.78-.27-5.16-.27-8.77,0-12.21,2.26-12.21,8.67,0,3,.86,5.16,2.58,6.56s4.84,2.15,9.41,2.15c4.31,0,7.54-.48,9.69-1.4,1.51-.64,1.94-1.18,1.94-3.06V208.22c0-7.37-3.82-11.08-11.52-11.08-5.49,0-9.2,1.88-11.13,5.59M597,198.91a11.06,11.06,0,0,0-6.67-1.77,25.14,25.14,0,0,0-9.79,1.83c-1.67.7-2.1,1.34-2.1,3.07v22.11c0,1.23.43,1.66,1.67,1.66h3c1.24,0,1.61-.43,1.61-1.66v-20a.64.64,0,0,1,.43-.64,14,14,0,0,1,4.31-.65c3.49,0,5.27,1.72,5.27,5.22v16.09c0,1.23.43,1.66,1.67,1.66h2.9c1.24,0,1.67-.43,1.67-1.66v-16.3a11.78,11.78,0,0,0-.59-4,16,16,0,0,1,5.22-1c3.49,0,5.22,1.72,5.22,5.22v16.09c0,1.23.43,1.66,1.66,1.66h3c1.24,0,1.62-.43,1.62-1.66v-16.3c0-7.16-3.5-10.71-10.55-10.71a25.2,25.2,0,0,0-9.47,1.77m-29.69-1c-1.24,0-1.67.37-1.67,1.61v19.8a.9.9,0,0,1-.59.91,17.31,17.31,0,0,1-5,.65c-3.93,0-5.87-1.78-5.87-5.33v-16c0-1.24-.37-1.61-1.61-1.61h-3c-1.24,0-1.67.37-1.67,1.61v16.25c0,6.94,3.71,10.81,11.25,10.81a28.66,28.66,0,0,0,10.54-1.88c1.72-.7,2.1-1.29,2.1-3V199.56c0-1.24-.43-1.61-1.67-1.61ZM519.57,186c-1.24,0-1.67.43-1.67,1.67v36.48c0,1.23.43,1.66,1.67,1.66h3c1.24,0,1.61-.43,1.61-1.66v-20.5a13.43,13.43,0,0,1,5.55-.81c3.92,0,5.86,1.78,5.86,5.27v16c0,1.23.43,1.66,1.67,1.66h2.9c1.24,0,1.67-.43,1.67-1.66V208c0-7.21-3.71-10.81-11.19-10.81a25.1,25.1,0,0,0-6.46.75V187.67c0-1.24-.37-1.67-1.61-1.67Zm-27.11,17.43a.74.74,0,0,1,.48.65v14.79a24.83,24.83,0,0,1-5.54.76c-3.82,0-5.86-1.89-5.86-5.27v-5.71c0-3.87,2.09-5.81,6.34-5.81a18.41,18.41,0,0,1,4.58.59M475.3,214.52c0,6.94,3.65,10.81,11.19,10.81a25.19,25.19,0,0,0,6.45-1v2.69c0,3.88-1.88,5.81-5.7,5.81-2.58,0-4.47-.91-5.6-2.74-.86-1.13-1.45-1.29-2.74-.65l-2,1.13a1.61,1.61,0,0,0-.65,2.69q3.06,5.18,11.14,5.17c8.12,0,11.83-4.36,11.83-11.73v-25c0-1.73-.27-2.16-2-3a23.46,23.46,0,0,0-9.74-1.67c-8.12,0-12.15,3.77-12.15,11.3ZM447.64,199c-1.72.7-2.1,1.34-2.1,3.07v22.11c0,1.23.43,1.66,1.67,1.66h3c1.24,0,1.62-.43,1.62-1.66V204.08a.51.51,0,0,1,.37-.54,19.11,19.11,0,0,1,5.17-.7c3.92,0,5.86,1.78,5.86,5.27v16c0,1.23.38,1.66,1.61,1.66h3c1.24,0,1.67-.43,1.67-1.66V208c0-6.94-3.66-10.81-11.19-10.81a28,28,0,0,0-10.6,1.83m-13.34-1c-1.24,0-1.61.37-1.61,1.61v24.59c0,1.23.37,1.66,1.61,1.66h3c1.24,0,1.67-.43,1.67-1.66V199.56c0-1.24-.43-1.61-1.67-1.61Zm1.29-10.44c-2.53,0-3.28.81-3.28,3.23v.48c0,2.53.86,3.28,3.28,3.28H436c2.53,0,3.28-.75,3.28-3.28v-.48c0-2.42-.75-3.23-3.28-3.23Zm-10.38,9.63a31.91,31.91,0,0,0-10,1.61c-1.72.7-2.1,1.35-2.1,3.07v22.33c0,1.23.43,1.66,1.67,1.66h3c1.24,0,1.61-.43,1.61-1.66v-20a.57.57,0,0,1,.54-.64,17.64,17.64,0,0,1,5.11-.65h1.94c1.24,0,1.67-.43,1.67-1.67v-2.36c0-1.29-.43-1.67-1.67-1.67Zm-23.73,11.94H389.06V207.9c0-3.5,2.2-5.49,6.24-5.49s6.18,2,6.18,5.49Zm-18.66,6c0,7,4,11.51,12.37,11.51q8.47,0,11.62-5.16c.81-1.24.59-2.1-.65-2.69l-1.88-1c-1.29-.69-1.88-.59-2.74.65-1.24,1.88-3.34,2.85-6.35,2.85-3.93,0-6.13-1.88-6.13-5.38v-2H405.3c1.62,0,2.42-.75,2.42-2.31v-3.28c0-6.51-4.25-11.14-12.42-11.14s-12.48,4.09-12.48,11.62ZM376.52,198c-2.1,0-2.74.32-3,1.66l-3,12a33.29,33.29,0,0,0-.81,5.6l-.11,1h-.32a40.75,40.75,0,0,0-1.13-6.62l-3.6-11.83c-.43-1.46-.81-1.67-2.75-1.67H360.6c-1.94,0-2.32.21-2.75,1.72l-3.55,11.78a54.31,54.31,0,0,0-1.13,6.62h-.27s-.48-4.52-.91-6.56l-3.07-12.06c-.27-1.34-.86-1.66-3-1.66h-2.1c-1.56,0-1.82.37-1.34,1.93l7.15,24.48a2,2,0,0,0,2.26,1.51h1.78a2,2,0,0,0,2.26-1.51l3.93-13.77a35.44,35.44,0,0,0,.91-4.68l.11-.86h.27l.11.86a34.77,34.77,0,0,0,.86,4.68l3.92,13.77a2.14,2.14,0,0,0,2.32,1.51h1.83a2,2,0,0,0,2.26-1.51l7.21-24.48c.43-1.56.16-1.93-1.4-1.93Zm-43.95,17.91c0,3.23-2.26,5.11-6.19,5.11s-6.13-1.88-6.13-5.11v-8c0-3.28,2.2-5.11,6.13-5.11s6.19,1.83,6.19,5.11Zm-18.57,0c0,6.73,4.47,10.76,12.38,10.76s12.43-4,12.43-10.76v-8c0-6.73-4.47-10.76-12.43-10.76S314,201.17,314,207.9Zm-11.24-.7c0,3.82-2,5.76-6.19,5.76a21.57,21.57,0,0,1-5.21-.81v-16c0-.32.16-.53.53-.7a19,19,0,0,1,4.85-.59c4,0,6,1.78,6,5.33ZM287.21,198.7c-1.72.7-2.1,1.34-2.1,3.07V236c0,1.24.43,1.67,1.67,1.67h3c1.24,0,1.62-.43,1.62-1.67V225.65a24.18,24.18,0,0,0,5.64,1c8,0,12-3.76,12-11.24V208c0-7-3.76-10.87-11.35-10.87a31,31,0,0,0-10.44,1.56m-28.56.21a11.09,11.09,0,0,0-6.68-1.77,25.14,25.14,0,0,0-9.79,1.83c-1.67.7-2.1,1.34-2.1,3.07v22.11c0,1.23.43,1.66,1.67,1.66h3c1.24,0,1.62-.43,1.62-1.66v-20a.64.64,0,0,1,.43-.64,13.84,13.84,0,0,1,4.3-.65c3.5,0,5.27,1.72,5.27,5.22v16.09c0,1.23.43,1.66,1.67,1.66h2.9c1.24,0,1.67-.43,1.67-1.66v-16.3a11.78,11.78,0,0,0-.59-4,16,16,0,0,1,5.22-1c3.5,0,5.22,1.72,5.22,5.22v16.09c0,1.23.43,1.66,1.67,1.66h3c1.24,0,1.62-.43,1.62-1.66v-16.3c0-7.16-3.5-10.71-10.55-10.71a25.11,25.11,0,0,0-9.46,1.77m-30.19,10.17H216V207.9c0-3.5,2.2-5.49,6.24-5.49s6.18,2,6.18,5.49Zm-18.66,6c0,7,4,11.51,12.37,11.51q8.47,0,11.62-5.16c.81-1.24.59-2.1-.65-2.69l-1.88-1c-1.29-.69-1.88-.59-2.74.65-1.24,1.88-3.34,2.85-6.35,2.85-3.93,0-6.13-1.88-6.13-5.38v-2h16.24c1.62,0,2.42-.75,2.42-2.31v-3.28c0-6.51-4.25-11.14-12.42-11.14s-12.48,4.09-12.48,11.62Z"/><path class="cls-2" d="M113.84,78.68c0,.67-.06,1.34-.1,2l35.92-35.91A26.23,26.23,0,1,0,112.57,7.69L85,35.26l18.54,18.55a34.94,34.94,0,0,1,10.3,24.87"/><path class="cls-2" d="M97.21,60.14,44.76,7.69A26.22,26.22,0,0,0,7.68,44.77l33.9,33.91-33.9,33.9a26.22,26.22,0,0,0,37.08,37.09L97.21,97.22a26.22,26.22,0,0,0,0-37.08"/><path class="cls-1" d="M131.11,104.9a26.23,26.23,0,1,0,26.23,26.22,26.22,26.22,0,0,0-26.23-26.22"/><path class="cls-2" d="M173.77,7.35h2.29a3.41,3.41,0,0,0,1.14-.15,1.23,1.23,0,0,0,.63-.48A1.32,1.32,0,0,0,178,6a1.21,1.21,0,0,0-.41-.94,1.93,1.93,0,0,0-1.31-.37h-2.55Zm-1.07,4.5v-8h3.57a4.61,4.61,0,0,1,1.64.22,1.77,1.77,0,0,1,.89.76A2.25,2.25,0,0,1,179.14,6a2,2,0,0,1-.56,1.44,2.84,2.84,0,0,1-1.71.75,2.86,2.86,0,0,1,.64.4,5.74,5.74,0,0,1,.89,1.07l1.4,2.19h-1.34l-1.07-1.67a10.92,10.92,0,0,0-.77-1.11,2.26,2.26,0,0,0-.54-.54,1.67,1.67,0,0,0-.48-.21,2.86,2.86,0,0,0-.6,0h-1.23v3.57Z"/><path class="cls-2" d="M175.76,1a6.88,6.88,0,1,0,6.87,6.88A6.89,6.89,0,0,0,175.76,1m0,14.71a7.84,7.84,0,1,1,7.83-7.83,7.84,7.84,0,0,1-7.83,7.83"/><line class="cls-3" x1="194.33" y1="78.18" x2="194.33" y2="156.34"/><path class="cls-2" d="M232.62,141.25c0-6-3.58-9.55-7.94-9.55s-7.94,3.58-7.94,9.55,3.58,9.31,7.94,9.31,7.94-3.46,7.94-9.31M209,141.19c0-9.32,6.57-16.18,14.09-16.18a10.72,10.72,0,0,1,9.55,5.19V112.12h7.52v44.41h-7.28v-4.84a10.68,10.68,0,0,1-9.79,5.55c-7.76,0-14.09-6.74-14.09-16.05"/><path class="cls-2" d="M245.79,125.79h7.52v30.74h-7.52Zm-.18-11.88h7.88v7.46h-7.88Z"/><path class="cls-2" d="M280.75,141c0-5.91-3.58-9.31-7.94-9.31s-7.94,3.4-7.94,9.31,3.58,9.07,7.94,9.07,7.94-3.28,7.94-9.07m-23,18.38h8.18c.6,2.09,2.92,3.76,6.92,3.76,5.25,0,7.94-3.16,7.94-9v-2.57a10.78,10.78,0,0,1-9.55,5.14c-7.76,0-14.09-6.63-14.09-15.82S263.68,125,271.2,125a10.76,10.76,0,0,1,9.79,5.55v-4.77h7.28v28.29c0,10.5-5.91,15.7-15.46,15.7s-14.56-5.14-15.1-10.39"/><path class="cls-2" d="M293.92,125.79h7.52v30.74h-7.52Zm-.18-11.88h7.88v7.46h-7.88Z"/><path class="cls-2" d="M308.13,144.59V132.11h-4v-6.32h4v-8.66h7.52v8.66h6.68v6.32h-6.68v12.54c0,3.94,1.61,5.73,4.83,5.73a9.18,9.18,0,0,0,2.21-.24v6.51a17.12,17.12,0,0,1-3,.35c-7.46,0-11.52-4.17-11.52-12.41"/><path class="cls-2" d="M345.66,144.71v-3.34c-2.09,1.37-4.83,1.91-8.11,2.5s-5.38,1.38-5.38,3.82c0,2.09,1.56,3.29,5.2,3.29,4.89,0,8.29-2.45,8.29-6.27M324.47,148c0-6.86,6.15-8.41,11.94-9.25,6.39-.9,9.25-1.73,9.25-4.3,0-2.21-2-3.22-5.49-3.22s-5.73,1.19-6.44,3.76h-7.82c.89-5.67,5.79-10,14.2-10,10,0,13.07,4.72,13.07,10.75V150a19.63,19.63,0,0,0,1.08,6.51h-7.4a13.33,13.33,0,0,1-1-4.54c-1.79,3.1-5.13,5.19-10.32,5.19-5.61,0-11.11-2.62-11.11-9.19"/><rect class="cls-2" x="358.8" y="112.12" width="7.52" height="44.41"/><path class="cls-1" d="M681.25,220.08a1.51,1.51,0,0,1,1.07-2.25l2.42-.76c1.13-.37,1.67-.21,2.2,1,.86,2.09,2.8,3,6.08,3,3.82,0,5.75-1.07,5.75-3.17,0-2.53-2.15-3-6.45-3.44-5.32-.54-10.91-1.67-10.91-8.66,0-5.1,3.71-8.65,11.12-8.65,6.19,0,9.74,2.26,11.51,5.75.64,1.24.27,1.88-.92,2.42l-2.36,1c-1.24.54-1.61.37-2.31-.75-.92-1.62-2.37-2.85-5.81-2.85s-5,1-5,3c0,2.53,2.15,3,6.29,3.34,6.45.64,11,2.09,11,8.65,0,5.27-4,9-11.66,9C686.89,226.59,682.91,224.28,681.25,220.08Z"/></g></g></svg>