<?xml version="1.0" encoding="utf-8"?>
<!-- Generator: Adobe Illustrator 26.0.3, SVG Export Plug-In . SVG Version: 6.00 Build 0)  -->
<svg version="1.1" id="Laag_1" xmlns="http://www.w3.org/2000/svg" xmlns:xlink="http://www.w3.org/1999/xlink" x="0px" y="0px"
	 viewBox="0 0 500 500" style="enable-background:new 0 0 500 500;" xml:space="preserve">
<style type="text/css">
	.st0{clip-path:url(#SVGID_00000107567666748931537690000010584456180156455085_);fill:#FFFFFF;}
</style>
<g>
	<g>
		<defs>
			<rect id="SVGID_1_" x="121" y="56.6" width="279.1" height="417.3"/>
		</defs>
		<clipPath id="SVGID_00000153681143130936751700000003783092683887366830_">
			<use xlink:href="#SVGID_1_"  style="overflow:visible;"/>
		</clipPath>
		<path style="clip-path:url(#SVGID_00000153681143130936751700000003783092683887366830_);fill:#FFFFFF;" d="M379.4,215.4
			L239.2,75.2l0,0c-12.6-11.6-29.3-18.7-47.8-18.7c-38.9,0-70.4,31.5-70.4,70.4c0,18.4,7.1,35.2,18.7,47.8l0,0l90.5,90.5l-90.5,90.5
			l0,0C128.1,368.2,121,385,121,403.4c0,38.9,31.5,70.4,70.4,70.4c18.4,0,35.2-7.1,47.7-18.7l0,0l2-2l0,0l138.2-138.2
			c12.8-12.7,20.7-30.4,20.7-49.8C400.1,245.8,392.2,228.2,379.4,215.4"/>
	</g>
</g>
</svg>
