<?xml version="1.0" encoding="utf-8"?>
<!-- Generator: Adobe Illustrator 26.0.3, SVG Export Plug-In . SVG Version: 6.00 Build 0)  -->
<svg version="1.1" id="Laag_1" xmlns="http://www.w3.org/2000/svg" xmlns:xlink="http://www.w3.org/1999/xlink" x="0px" y="0px"
	 viewBox="0 0 1049.4 346.1" style="enable-background:new 0 0 1049.4 346.1;" xml:space="preserve">
<style type="text/css">
	.st0{clip-path:url(#SVGID_00000181786534380193242190000002269936747640711821_);}
	.st1{fill:#FFFFFF;}
</style>
<g>
	<defs>
		<rect id="SVGID_1_" width="1049.4" height="346.1"/>
	</defs>
	<clipPath id="SVGID_00000079445600662668652920000015350936763315674524_">
		<use xlink:href="#SVGID_1_"  style="overflow:visible;"/>
	</clipPath>
	<g style="clip-path:url(#SVGID_00000079445600662668652920000015350936763315674524_);">
		<path d="M878.2,273.5v-0.2H683.3v0h-1.7c0,0,0,0,0,0c0,0-0.1,0-0.1,0h-57.6v0.2c19.3,0.9,34.7,16.7,34.7,36.2
			c0,19.5-15.4,35.3-34.7,36.2v0.2H428.9v-0.2c-0.6,0-1.1,0.2-1.7,0.2c-20.1,0-36.4-16.3-36.4-36.4c0-20,16.2-36.3,36.2-36.4h-57.5
			v0H174.5v0.2c-0.6,0-1.1-0.2-1.7-0.2c-20.1,0-36.4,16.3-36.4,36.4c0,20.1,16.3,36.4,36.4,36.4c0.6,0,1.1-0.1,1.7-0.2v0.2h130.6v0
			h147.2H552h147.2v0h3.7c0,0,0,0,0.1,0c0,0,0.1,0,0.1,0h175.2v-0.2c19.3-0.9,34.7-16.7,34.7-36.2
			C912.9,290.2,897.5,274.4,878.2,273.5z"/>
	</g>
	<g style="clip-path:url(#SVGID_00000079445600662668652920000015350936763315674524_);">
		<path d="M288.2,209.4v-0.3c-18.9-1.4-33.8-16.9-33.8-36.1c0-19.2,14.9-34.8,33.8-36.1v-0.3H33.8C14.9,138,0,153.8,0,173
			c0,19.2,14.9,35,33.8,36.4"/>
		<path d="M1013.6,209.4L1013.6,209.4c19.8-0.4,35.8-16.5,35.8-36.4c0-19.9-16-36-35.8-36.3v-0.1H759.2v0.1
			C779,137,795,153.1,795,173c0,19.9-16,36-35.8,36.3v0.1"/>
	</g>
	<g style="clip-path:url(#SVGID_00000079445600662668652920000015350936763315674524_);">
		<path d="M645.5,0v0.4c1.2-0.1,2.4-0.4,3.7-0.4H645.5z"/>
		<path d="M653,72.8h52.9h194.1v-0.4c1.2,0.1,2.4,0.4,3.7,0.4c20.1,0,36.4-16.3,36.4-36.4C940,16.3,923.7,0,903.6,0
			c-1.3,0-2.5,0.2-3.7,0.4V0H705.8H653h-3.6c20,0.1,36.3,16.3,36.3,36.4c0,20.1-16.3,36.4-36.4,36.4"/>
		<path d="M398.6,72.8v-0.2c-19.3-0.8-34.8-16.7-34.8-36.2c0-19.5,15.5-35.4,34.8-36.2V0h-7.5h-41.3H144.2v0.2
			c-19.4,0.8-34.8,16.7-34.8,36.2c0,19.6,15.5,35.4,34.8,36.2v0.2h205.6h41.3"/>
	</g>
</g>
<path class="st1" d="M645.5,72.8v-0.4c1.2,0.1,2.4,0.4,3.7,0.4c20.1,0,36.4-16.3,36.4-36.4S669.3,0,649.2,0c-1.3,0-2.5,0.3-3.7,0.4
	V0H398.6v0.2c-19.4,0.8-34.8,16.7-34.8,36.2c0,19.6,15.5,35.4,34.8,36.2v0.2H645.5z"/>
<path class="st1" d="M288.2,209.4h471v-0.1C779,209.1,795,193,795,173c0-19.9-16-36-35.8-36.3v-0.1h-471v0.3
	c-18.9,1.4-33.8,16.9-33.8,36.1c0,19.2,14.9,34.8,33.8,36.1V209.4z"/>
<path class="st1" d="M428.9,345.9v0.2h194.9v-0.2c19.3-0.9,34.7-16.7,34.7-36.2c0-19.5-15.4-35.3-34.7-36.2v-0.2H428.9v0.2
	c-0.6,0-1.1-0.2-1.7-0.2c-20.1,0-36.4,16.3-36.4,36.4c0,20.1,16.3,36.4,36.4,36.4C427.8,346.1,428.3,345.9,428.9,345.9"/>
</svg>
