<?xml version="1.0" encoding="utf-8"?>
<!-- Generator: Adobe Illustrator 26.0.3, SVG Export Plug-In . SVG Version: 6.00 Build 0)  -->
<svg version="1.1" id="Laag_1" xmlns="http://www.w3.org/2000/svg" xmlns:xlink="http://www.w3.org/1999/xlink" x="0px" y="0px"
	 viewBox="0 0 141.7 141.7" style="enable-background:new 0 0 141.7 141.7;" xml:space="preserve">
<style type="text/css">
	.st0{fill:#474139;}
	.st1{clip-path:url(#SVGID_00000018957258011617964720000009916938068304823185_);fill:#FFFFFF;}
</style>
<rect x="0.2" class="st0" width="141.5" height="141.5"/>
<g>
	<defs>
		<rect id="SVGID_1_" x="0.2" width="141.5" height="141.5"/>
	</defs>
	<clipPath id="SVGID_00000124131866250119133280000016060774864106843536_">
		<use xlink:href="#SVGID_1_"  style="overflow:visible;"/>
	</clipPath>
	<path style="clip-path:url(#SVGID_00000124131866250119133280000016060774864106843536_);fill:#FFFFFF;" d="M70.4,67.8L62,59.5
		c-1.4-1.4-2.5-1.4-3.9,0.1l-2.3,2.3c-1.4,1.4-1.4,2.4,0,3.8l8.3,8.3l-8.3,8.3c-1.4,1.4-1.4,2.4,0,3.8l2.3,2.3
		c1.4,1.4,2.4,1.4,3.8,0l8.3-8.3l8.4,8.4c1.4,1.4,2.4,1.4,3.8,0l2.3-2.3c1.4-1.4,1.5-2.5,0.1-3.9l-8.4-8.4l8.4-8.4
		c1.4-1.4,1.4-2.4,0-3.8l-2.3-2.3c-1.4-1.4-2.4-1.4-3.8,0L70.4,67.8z"/>
</g>
</svg>
