<?xml version="1.0" encoding="utf-8"?>
<!-- Generator: Adobe Illustrator 24.3.0, SVG Export Plug-In . SVG Version: 6.00 Build 0)  -->
<svg version="1.1" id="Laag_1" xmlns="http://www.w3.org/2000/svg" xmlns:xlink="http://www.w3.org/1999/xlink" x="0px" y="0px"
	 viewBox="0 0 327 274" style="enable-background:new 0 0 327 274;" xml:space="preserve">
<style type="text/css">
	.st0{clip-path:url(#SVGID_2_);fill:#36322A;}
	.st1{clip-path:url(#SVGID_4_);fill:#4EADC6;}
</style>
<g>
	<g>
		<defs>
			<rect id="SVGID_1_" x="41" y="0.4" width="246.4" height="164.8"/>
		</defs>
		<clipPath id="SVGID_2_">
			<use xlink:href="#SVGID_1_"  style="overflow:visible;"/>
		</clipPath>
		<path class="st0" d="M193.6,153l82.8-82.8l0,0c6.9-7.4,11-17.3,11-28.2c0-23-18.6-41.6-41.6-41.6c-10.9,0-20.8,4.2-28.2,11l0,0
			l-53.4,53.4l-53.4-53.4l0,0c-7.4-6.9-17.3-11-28.2-11C59.6,0.4,41,19,41,41.9c0,10.9,4.2,20.8,11,28.2l0,0l1.2,1.2l0,0l81.6,81.6
			c7.5,7.6,18,12.2,29.4,12.2C175.7,165.2,186.1,160.5,193.6,153"/>
	</g>
</g>
<g>
	<defs>
		<rect id="SVGID_3_" x="0.2" y="160.6" width="327.3" height="113.3"/>
	</defs>
	<clipPath id="SVGID_4_">
		<use xlink:href="#SVGID_3_"  style="overflow:visible;"/>
	</clipPath>
	<path class="st1" d="M327.4,251.8L327.4,251.8l0-69.9c0-11.8-9.9-21.4-22-21.4s-22,9.6-22,21.4v47.9H44.2v-47.9
		c0-11.8-9.9-21.4-22-21.4s-22,9.6-22,21.4v69.9h0c0,0,0,0,0,0c0,12.2,9.9,22,22,22h283.2v0c0,0,0,0,0,0
		C317.6,273.8,327.4,264,327.4,251.8C327.4,251.8,327.4,251.8,327.4,251.8"/>
</g>
</svg>
