<?xml version="1.0" encoding="utf-8"?>
<!-- Generator: Adobe Illustrator 26.0.3, SVG Export Plug-In . SVG Version: 6.00 Build 0)  -->
<svg version="1.1" id="Laag_1" xmlns="http://www.w3.org/2000/svg" xmlns:xlink="http://www.w3.org/1999/xlink" x="0px" y="0px"
	 viewBox="0 0 936 599.2" style="enable-background:new 0 0 936 599.2;" xml:space="preserve">
<style type="text/css">
	.st0{fill:#FFFFFF;}
</style>
<g>
	<path class="st0" d="M301.8,598.9v0.3h337.1v-0.3c33.4-1.6,60-28.9,60-62.6c0-33.7-26.6-61.1-60-62.6v-0.3H301.8v0.3
		c-1,0-1.9-0.3-2.9-0.3c-34.8,0-62.9,28.2-62.9,62.9c0,34.8,28.2,62.9,62.9,62.9C299.9,599.2,300.8,599,301.8,598.9"/>
	<path class="st0" d="M58.4,362.9h814.4v-0.1c34.3-0.5,61.9-28.4,61.9-62.8s-27.7-62.3-61.9-62.8v-0.1H58.4v0.5
		C25.8,239.9,0,266.8,0,300c0,33.2,25.8,60.1,58.4,62.5V362.9z"/>
	<path class="st0" d="M676.3,126.6V126c2.1,0.2,4.2,0.6,6.4,0.6c34.8,0,62.9-28.2,62.9-62.9c0-34.8-28.2-62.9-62.9-62.9
		c-2.2,0-4.3,0.4-6.4,0.6V0.8h-427v0.3c-33.5,1.5-60.2,28.8-60.2,62.6c0,33.8,26.7,61.2,60.2,62.6v0.3H676.3z"/>
</g>
</svg>
