<?xml version="1.0" encoding="utf-8"?>
<!-- Generator: Adobe Illustrator 26.0.3, SVG Export Plug-In . SVG Version: 6.00 Build 0)  -->
<svg version="1.1" id="Laag_1" xmlns="http://www.w3.org/2000/svg" xmlns:xlink="http://www.w3.org/1999/xlink" x="0px" y="0px"
	 viewBox="0 0 1102.9 531.9" style="enable-background:new 0 0 1102.9 531.9;" xml:space="preserve">
<style type="text/css">
	.st0{clip-path:url(#SVGID_00000170999600484146353920000012763056070539471519_);fill:#35312A;}
	.st1{clip-path:url(#SVGID_00000170999600484146353920000012763056070539471519_);fill:#FFFFFF;}
	.st2{fill:#FFFFFF;}
</style>
<g>
	<defs>
		<rect id="SVGID_1_" width="1102.9" height="531.9"/>
	</defs>
	<clipPath id="SVGID_00000059295441189518069410000009524495781594695600_">
		<use xlink:href="#SVGID_1_"  style="overflow:visible;"/>
	</clipPath>
	<path style="clip-path:url(#SVGID_00000059295441189518069410000009524495781594695600_);fill:#35312A;" d="M928.4,88.7v-0.2H733.4
		v0.2c-19.3,0.9-34.7,16.7-34.7,36.2c0,19.5,15.4,35.3,34.7,36.2v0.2h194.9v-0.2c0.6,0,1.1,0.2,1.7,0.2c20.1,0,36.4-16.3,36.4-36.4
		c0-20.1-16.3-36.4-36.4-36.4C929.5,88.5,928.9,88.6,928.4,88.7"/>
	<path style="clip-path:url(#SVGID_00000059295441189518069410000009524495781594695600_);fill:#FFFFFF;" d="M1069.1,225.2h-471v0.1
		c-19.8,0.3-35.8,16.4-35.8,36.3c0,19.9,16,36,35.8,36.3v0.1h471v-0.3c18.9-1.4,33.8-16.9,33.8-36.1c0-19.2-14.9-34.8-33.8-36.1
		V225.2z"/>
	<path style="clip-path:url(#SVGID_00000059295441189518069410000009524495781594695600_);fill:#35312A;" d="M711.8,361.8v0.4
		c-1.2-0.1-2.5-0.4-3.7-0.4c-20.1,0-36.4,16.3-36.4,36.4s16.3,36.4,36.4,36.4c1.3,0,2.5-0.2,3.7-0.4v0.4h246.9v-0.2
		c19.4-0.9,34.8-16.7,34.8-36.2c0-19.6-15.5-35.4-34.8-36.2v-0.2H711.8z"/>
</g>
<g>
	<defs>
		<rect id="SVGID_00000108272897083024697230000014751824420912316033_" width="1102.9" height="531.9"/>
	</defs>
	<clipPath id="SVGID_00000117660430385789678260000016071696615772569015_">
		<use xlink:href="#SVGID_00000108272897083024697230000014751824420912316033_"  style="overflow:visible;"/>
	</clipPath>
</g>
<path class="st2" d="M150.9,285.7L17.8,418.9l0,0C6.7,430.8,0,446.7,0,464.3c0,37,29.9,66.9,66.9,66.9c17.5,0,33.4-6.7,45.4-17.8
	l0,0l86-86l86,86l0,0c11.9,11,27.8,17.8,45.3,17.8c37,0,66.9-29.9,66.9-66.9c0-17.5-6.7-33.4-17.8-45.3l0,0l-1.9-1.9l0,0
	L245.5,285.8c-12.1-12.2-28.9-19.7-47.3-19.7C179.8,266,163.1,273.5,150.9,285.7"/>
<g>
	<path class="st2" d="M198.2,202.3c55.7,0,100.8-45.1,100.8-100.8C299,45.8,253.9,0.7,198.2,0.7S97.4,45.8,97.4,101.5
		C97.4,157.2,142.5,202.3,198.2,202.3"/>
</g>
</svg>
