<?xml version="1.0" encoding="utf-8"?>
<!-- Generator: Adobe Illustrator 26.0.3, SVG Export Plug-In . SVG Version: 6.00 Build 0)  -->
<svg version="1.1" id="Laag_1" xmlns="http://www.w3.org/2000/svg" xmlns:xlink="http://www.w3.org/1999/xlink" x="0px" y="0px"
	 viewBox="0 0 300 300" style="enable-background:new 0 0 300 300;" xml:space="preserve">
<style type="text/css">
	.st0{fill:#EF8903;}
	.st1{fill:#FFFFFF;}
</style>
<g>
	<rect y="0" class="st0" width="300" height="300"/>
	<g>
		<path class="st1" d="M133.3,215.9h25.1v-57.4c2-7.9,8.7-12.6,16.4-12.6c9.9,0,14.8,6.5,14.8,16v53.9h25.1v-59.2
			c0-20.1-11.6-33.4-32-33.4c-10.5,0-19.5,4.7-24.3,10.3v-8.3h-25.1V215.9z M113.6,99.1c0-8.3-6.9-14.4-14.8-14.4
			c-8.1,0-15,6.1-15,14.4c0,8.5,6.9,14.4,15,14.4C106.7,113.5,113.6,107.6,113.6,99.1 M111.4,125.3H86.3v90.6h25.1V125.3z"/>
	</g>
</g>
</svg>
