<?xml version="1.0" encoding="utf-8"?>
<!-- Generator: Adobe Illustrator 26.0.3, SVG Export Plug-In . SVG Version: 6.00 Build 0)  -->
<svg version="1.1" id="Laag_1" xmlns="http://www.w3.org/2000/svg" xmlns:xlink="http://www.w3.org/1999/xlink" x="0px" y="0px"
	 viewBox="0 0 742.6 608.9" style="enable-background:new 0 0 742.6 608.9;" xml:space="preserve">
<style type="text/css">
	.st0{clip-path:url(#SVGID_00000181800786717296216800000013238578200098480512_);fill:#FFFFFF;}
	.st1{clip-path:url(#SVGID_00000181800786717296216800000013238578200098480512_);fill:#EDEDED;}
	.st2{clip-path:url(#SVGID_00000181800786717296216800000013238578200098480512_);fill:#EF8803;}
	.st3{clip-path:url(#SVGID_00000181800786717296216800000013238578200098480512_);fill:#575551;}
	.st4{fill:none;stroke:#000000;stroke-width:0.25;}
	.st5{clip-path:url(#SVGID_00000178895109107937818060000015551049469931787406_);fill:#EF8803;}
	.st6{clip-path:url(#SVGID_00000178895109107937818060000015551049469931787406_);fill:#FFFFFF;}
	.st7{clip-path:url(#SVGID_00000178895109107937818060000015551049469931787406_);fill:#575551;}
</style>
<g>
	<defs>
		<rect id="SVGID_1_" x="-0.5" y="0.2" width="742.6" height="608.9"/>
	</defs>
	<clipPath id="SVGID_00000034057805038273048890000008817203483581632682_">
		<use xlink:href="#SVGID_1_"  style="overflow:visible;"/>
	</clipPath>
	<path style="clip-path:url(#SVGID_00000034057805038273048890000008817203483581632682_);fill:#FFFFFF;" d="M420,406.6
		c-7.5-13.3-7.9-32.1-6.4-44.2c3.1-24.6,14-35.6,23.1-57.2c16.7-39.5-5.8-96.2-51.2-105.3c-42.9-6.8-83.9-1.9-103,41.6
		c-10.6,24.2-8.5,26.6-7.8,33.2c0.7,6.6,4.6,9.8-4.9,23.9c-3.1,4.9-12.3,12.1-9.4,18.1c1.7,3.6,3.7,4.6,7.2,5.4
		c1.6,0.3,3.7,0.7,4.6,2.3c1.2,2-0.4,4.8-1.6,6.4c-1.5,2-2.4,4.4-1.3,6.8c1.7,3.9,7.8,2.7,10.3,3.1c0.2,0-8-0.5-9.4,5.5
		c-0.4,1.8,0.2,4.1,1.7,5c2.1,1.3,4.4,1.5,5.6,3.9c1.4,2.7,0.7,5.8,0.1,8.6c-0.6,2.5-1.3,5.1-1,7.6c0.3,2.1,1.4,4.1,2.9,5.6
		c3.3,3.3,8.1,4.6,12.5,5.2c2.2,0.3,4.4,0.5,6.7,0.5c3.2,0,15.4-2.7,16.3-2c1.5,1,5.8,10.8,9.2,18.5c3.1,7.1,3.2,16.5,1.6,24.9
		c0,0,0,0,0,0c8,1.5,16.3,2.3,24.7,2.3C376.1,426.3,399.8,419.1,420,406.6"/>
	<path style="clip-path:url(#SVGID_00000034057805038273048890000008817203483581632682_);fill:#EDEDED;" d="M370.1,207.4
		c21,4,24.5,13.5,37,21.6c14,9,23,23.4,23,37.4s-1,26-8,32s-14,0-25,3s-12,3.6-10,10.6s5,13,11,14s8,1.4,5,9.4s-7-2.4-19-4.4
		s-16-15-17-23s-6-9.6-19-9.6s-25,5-32-4s-5-16-9-23s-15-5-15-13s3-29,15-35s26-14,34-15S370.1,207.4,370.1,207.4"/>
	<path style="clip-path:url(#SVGID_00000034057805038273048890000008817203483581632682_);fill:#EF8803;" d="M348.6,273.9
		c-12.3-0.2-22.3-10-22.7-22.3c-0.5-17.6,19.4-29.5,34.6-20.6c6.9,4,11.3,11.6,11.5,19.6C372.2,263.5,361.5,274.1,348.6,273.9
		 M383.1,256.2c0.1-0.7,0.2-1.4,0.2-2.1c0.1-0.9-0.5-1.7-1.3-2l-3.2-1c-0.8-0.2-1.3-0.9-1.3-1.7c0-0.6-0.1-1.3-0.2-1.9
		c-0.1-0.8,0.3-1.5,0.9-1.9l3-1.7c0.8-0.4,1.1-1.3,0.9-2.1c-0.2-0.6-0.4-1.3-0.6-1.9c-0.3-0.8-1.1-1.4-2-1.3l-3.3,0.4
		c-0.8,0.1-1.5-0.3-1.9-1c-0.3-0.6-0.7-1.2-1-1.9c-0.4-0.7-0.4-1.5,0.1-2.1l2-2.8c0.5-0.7,0.5-1.7-0.1-2.3c-0.4-0.5-0.8-1-1.3-1.4
		c-0.6-0.7-1.6-0.8-2.3-0.3l-2.9,1.7c-0.7,0.4-1.5,0.3-2.1-0.2c-0.6-0.5-1.2-0.9-1.8-1.3c-0.6-0.4-0.9-1.2-0.8-2l0.7-3.3
		c0.2-0.9-0.2-1.7-1-2.1c-0.5-0.3-1.1-0.5-1.7-0.8c-0.8-0.3-1.8-0.1-2.3,0.6l-1.9,2.7c-0.5,0.6-1.2,0.9-2,0.7
		c-0.7-0.2-1.5-0.4-2.3-0.5c-0.8-0.1-1.4-0.7-1.5-1.5l-0.7-3.3c-0.2-0.9-0.9-1.5-1.8-1.5c-0.3,0-0.6,0-0.9,0s-0.6,0-0.9,0
		c-0.9,0-1.6,0.7-1.8,1.5l-0.7,3.3c-0.2,0.8-0.8,1.4-1.5,1.5c-0.8,0.1-1.5,0.3-2.3,0.5c-0.8,0.2-1.5-0.1-2-0.7l-1.9-2.7
		c-0.5-0.7-1.5-1-2.3-0.6c-0.6,0.2-1.1,0.5-1.7,0.8c-0.8,0.4-1.2,1.3-1,2.1l0.7,3.3c0.2,0.8-0.1,1.5-0.8,2c-0.6,0.4-1.2,0.9-1.8,1.3
		c-0.6,0.5-1.5,0.6-2.1,0.2l-2.9-1.7c-0.8-0.5-1.7-0.3-2.3,0.3c-0.4,0.5-0.9,0.9-1.3,1.4c-0.6,0.7-0.6,1.6-0.1,2.3l2,2.8
		c0.5,0.6,0.5,1.4,0.1,2.1c-0.4,0.6-0.7,1.2-1,1.9c-0.4,0.7-1.1,1.1-1.9,1l-3.3-0.4c-0.9-0.1-1.7,0.4-2,1.3
		c-0.2,0.6-0.4,1.3-0.6,1.9c-0.2,0.8,0.1,1.7,0.9,2.1l3,1.7c0.7,0.4,1,1.1,0.9,1.9c-0.1,0.6-0.1,1.3-0.2,1.9c0,0.8-0.6,1.5-1.3,1.7
		l-3.2,1c-0.8,0.3-1.4,1.1-1.3,2c0.1,0.7,0.1,1.4,0.2,2.1c0.1,0.9,0.8,1.5,1.7,1.6l3.4,0.3c0.8,0.1,1.4,0.6,1.6,1.3
		c0.2,0.6,0.4,1.1,0.6,1.7c0.3,0.7,0.1,1.6-0.5,2.1l-2.5,2.2c-0.7,0.6-0.8,1.6-0.4,2.3c0.4,0.6,0.7,1.3,1.1,1.9
		c0.5,0.7,1.4,1,2.2,0.8l3.3-1.1c0.7-0.2,1.5,0,2,0.5c0.4,0.4,0.7,0.8,1.1,1.2c0.5,0.6,0.7,1.4,0.4,2.1l-1.4,3
		c-0.4,0.8-0.1,1.8,0.6,2.3c0.6,0.5,1.2,0.9,1.8,1.3c0.7,0.5,1.7,0.4,2.3-0.2l2.5-2.3c0.6-0.5,1.4-0.6,2.1-0.3
		c0.5,0.2,0.9,0.4,1.4,0.6c0.7,0.3,1.2,1,1.2,1.8l0,3.4c0,0.9,0.6,1.6,1.4,1.9c0.7,0.2,1.5,0.3,2.2,0.5c0.9,0.1,1.7-0.3,2.1-1.1
		l1.4-3.1c0.3-0.7,1-1.2,1.8-1.1c0.2,0,0.5,0,0.8,0c0.3,0,0.5,0,0.8,0c0.8,0,1.5,0.4,1.8,1.1l1.4,3.1c0.3,0.8,1.2,1.3,2.1,1.1
		c0.8-0.1,1.5-0.3,2.2-0.5c0.9-0.2,1.5-1,1.4-1.9l0-3.4c0-0.8,0.5-1.5,1.2-1.8c0.5-0.2,1-0.4,1.4-0.6c0.7-0.3,1.5-0.2,2.1,0.3
		l2.5,2.3c0.6,0.6,1.6,0.7,2.3,0.2c0.6-0.4,1.2-0.8,1.8-1.3c0.7-0.5,0.9-1.5,0.6-2.3l-1.4-3c-0.3-0.7-0.2-1.5,0.4-2.1
		c0.4-0.4,0.8-0.8,1.1-1.2c0.5-0.6,1.3-0.8,2-0.5l3.3,1.1c0.8,0.3,1.7,0,2.2-0.8c0.4-0.6,0.8-1.2,1.1-1.9c0.4-0.8,0.3-1.7-0.4-2.3
		l-2.5-2.2c-0.6-0.5-0.8-1.4-0.5-2.1c0.2-0.5,0.4-1.1,0.6-1.7c0.2-0.7,0.9-1.3,1.6-1.3l3.4-0.3C382.2,257.7,382.9,257.1,383.1,256.2
		"/>
	<path style="clip-path:url(#SVGID_00000034057805038273048890000008817203483581632682_);fill:#EF8803;" d="M349,241.1
		c-5.3,0-9.6,4.3-9.6,9.6c0,5.3,4.3,9.6,9.6,9.6c5.3,0,9.6-4.3,9.6-9.6C358.6,245.4,354.3,241.1,349,241.1"/>
	<path style="clip-path:url(#SVGID_00000034057805038273048890000008817203483581632682_);fill:#575551;" d="M394.6,276.8
		L394.6,276.8c-5.7-1.6-9-7.5-7.3-13.1c1.6-5.6,7.5-8.8,13.2-7.2c5.7,1.6,9,7.5,7.4,13.1C406.2,275.3,400.3,278.5,394.6,276.8
		 M415.4,268.8l-1.1-0.3c-0.4-0.1-0.7-0.5-0.7-0.9c0.1-1.8-0.1-3.5-0.6-5.2c-0.1-0.4,0.1-0.8,0.4-1.1l1-0.5c0.4-0.2,0.6-0.8,0.4-1.2
		l-2-3.5c-0.3-0.4-0.8-0.6-1.3-0.4l-1,0.5c-0.4,0.2-0.8,0.1-1.1-0.2c-1.2-1.3-2.6-2.4-4.2-3.3c-0.4-0.2-0.5-0.6-0.4-1l0.3-1.1
		c0.1-0.5-0.1-1-0.6-1.1l-2-0.6l-2-0.6c-0.5-0.1-1,0.1-1.1,0.6l-0.3,1.1c-0.1,0.4-0.5,0.7-0.9,0.6c-1.8-0.1-3.6,0.1-5.3,0.6
		c-0.4,0.1-0.9-0.1-1.1-0.4l-0.5-1c-0.3-0.4-0.8-0.6-1.3-0.4l-3.5,1.9c-0.4,0.2-0.6,0.8-0.4,1.2l0.5,1c0.2,0.4,0.1,0.8-0.2,1.1
		c-1.3,1.2-2.4,2.5-3.3,4.1c-0.2,0.4-0.6,0.5-1,0.4l-1.1-0.3c-0.5-0.1-1,0.1-1.1,0.6l-1.1,3.9c-0.1,0.5,0.1,1,0.6,1.1l1.1,0.3
		c0.4,0.1,0.7,0.5,0.7,0.9c-0.1,1.8,0.1,3.5,0.6,5.2c0.1,0.4-0.1,0.8-0.4,1.1l-1,0.5c-0.4,0.2-0.6,0.8-0.4,1.2l2,3.5
		c0.2,0.4,0.8,0.6,1.3,0.4l1-0.5c0.4-0.2,0.8-0.1,1.1,0.2c1.2,1.3,2.6,2.4,4.1,3.3c0.4,0.2,0.5,0.6,0.4,1l-0.3,1.1
		c-0.1,0.5,0.1,1,0.6,1.1l2,0.6l2,0.6c0.5,0.1,1-0.1,1.1-0.6l0.3-1.1c0.1-0.4,0.5-0.7,0.9-0.6c1.8,0.1,3.6-0.1,5.3-0.6
		c0.4-0.1,0.9,0.1,1.1,0.4l0.5,1c0.2,0.4,0.8,0.6,1.3,0.4l3.5-1.9c0.4-0.2,0.6-0.8,0.4-1.2l-0.5-1c-0.2-0.4-0.1-0.8,0.2-1.1
		c1.3-1.2,2.4-2.5,3.3-4.1c0.2-0.4,0.6-0.5,1-0.4l1.1,0.3c0.5,0.1,1-0.1,1.1-0.6l1.1-3.9C416.2,269.5,415.9,269,415.4,268.8"/>
	<path style="clip-path:url(#SVGID_00000034057805038273048890000008817203483581632682_);fill:#575551;" d="M397.4,262.1
		c-2.4,0-4.3,1.9-4.3,4.3c0,2.4,1.9,4.3,4.3,4.3c2.4,0,4.3-1.9,4.3-4.3C401.7,264.1,399.8,262.1,397.4,262.1"/>
	<path style="clip-path:url(#SVGID_00000034057805038273048890000008817203483581632682_);fill:#575551;" d="M524,68.7
		c-0.6,0.2-0.7,0.5-0.7,1v7.4c0,0.4,0.1,0.6,0.6,0.6h1c0.4,0,0.5-0.1,0.5-0.6v-6.7c0-0.1,0-0.1,0.1-0.2c0.6-0.2,1.2-0.2,1.7-0.2
		c1.3,0,2,0.6,2,1.8v5.4c0,0.4,0.1,0.6,0.5,0.6h1c0.4,0,0.6-0.1,0.6-0.6v-5.4c0-2.3-1.2-3.6-3.7-3.6C526.2,68,525,68.2,524,68.7
		 M518.7,74.3c0,1.1-0.8,1.7-2.1,1.7c-1.3,0-2.1-0.6-2.1-1.7v-2.7c0-1.1,0.7-1.7,2.1-1.7c1.3,0,2.1,0.6,2.1,1.7V74.3z M512.5,74.3
		c0,2.2,1.5,3.6,4.1,3.6c2.7,0,4.2-1.4,4.2-3.6v-2.7c0-2.2-1.5-3.6-4.2-3.6c-2.6,0-4.1,1.3-4.1,3.6V74.3z M508.5,68.3
		c-0.4,0-0.5,0.1-0.5,0.5v8.2c0,0.4,0.1,0.6,0.5,0.6h1c0.4,0,0.6-0.1,0.6-0.6v-8.2c0-0.4-0.1-0.5-0.6-0.5H508.5z M508.9,64.8
		c-0.8,0-1.1,0.3-1.1,1.1v0.2c0,0.8,0.3,1.1,1.1,1.1h0.1c0.8,0,1.1-0.3,1.1-1.1v-0.2c0-0.8-0.3-1.1-1.1-1.1H508.9z M498,70.9
		c0,0.9,0.3,1.6,0.8,2c0.2,0.2,0.5,0.4,0.8,0.5c0.7,0.3,1.2,0.3,2,0.4c1.6,0.2,2.2,0.4,2.2,1.2c0,0.7-0.6,1.1-1.9,1.1
		c-1.1,0-1.8-0.3-2-1c-0.2-0.4-0.4-0.5-0.7-0.3l-0.8,0.3c-0.4,0.1-0.5,0.4-0.4,0.8c0.6,1.5,1.9,2.2,4,2.2c2.5,0,3.9-1.2,3.9-3
		c0-2-1.2-2.7-3.7-2.9c-1.6-0.1-2.1-0.3-2.1-1.1c0-0.6,0.6-1,1.7-1c1,0,1.6,0.3,1.9,0.9c0.2,0.4,0.3,0.4,0.8,0.3l0.8-0.3
		c0.4-0.2,0.5-0.4,0.3-0.8c-0.6-1.3-1.9-1.9-3.9-1.9C499.3,68,498,69.2,498,70.9 M493.8,68.3c-0.4,0-0.5,0.1-0.5,0.5v8.2
		c0,0.4,0.1,0.6,0.5,0.6h1c0.4,0,0.6-0.1,0.6-0.6v-8.2c0-0.4-0.1-0.5-0.6-0.5H493.8z M494.2,64.8c-0.8,0-1.1,0.3-1.1,1.1v0.2
		c0,0.8,0.3,1.1,1.1,1.1h0.1c0.8,0,1.1-0.3,1.1-1.1v-0.2c0-0.8-0.3-1.1-1.1-1.1H494.2z M490.1,68.3c-0.7,0-0.8,0.1-1,0.6l-1.7,4.3
		c-0.3,0.8-0.5,1.9-0.5,1.9h-0.1l0-0.1c-0.1-0.3-0.2-1.1-0.5-1.8l-1.7-4.3c-0.1-0.5-0.3-0.6-1-0.6H483c-0.6,0-0.6,0.1-0.5,0.6
		l3.3,8.2c0.1,0.3,0.4,0.5,0.8,0.5h0.6c0.4,0,0.6-0.2,0.8-0.5l3.3-8.2c0.2-0.5,0.1-0.6-0.5-0.6H490.1z"/>
	<path style="clip-path:url(#SVGID_00000034057805038273048890000008817203483581632682_);fill:#575551;" d="M547,46
		c-1.4,0-2.5,0.2-3.3,0.5c-0.6,0.2-0.7,0.5-0.7,1v7.5c0,0.4,0.1,0.6,0.6,0.6h1c0.4,0,0.5-0.1,0.5-0.6v-6.7c0-0.1,0.1-0.2,0.2-0.2
		c0.5-0.1,1-0.2,1.7-0.2h0.6c0.4,0,0.6-0.1,0.6-0.6v-0.8c0-0.4-0.1-0.6-0.6-0.6H547z M538.5,50h-4.2v-0.4c0-1.2,0.7-1.8,2.1-1.8
		c1.4,0,2.1,0.7,2.1,1.8V50z M532.3,52.1c0,2.4,1.3,3.9,4.1,3.9c1.9,0,3.2-0.6,3.9-1.7c0.3-0.4,0.2-0.7-0.2-0.9l-0.6-0.3
		c-0.4-0.2-0.6-0.2-0.9,0.2c-0.4,0.6-1.1,1-2.1,1c-1.3,0-2.1-0.6-2.1-1.8v-0.7h5.4c0.5,0,0.8-0.3,0.8-0.8v-1.1
		c0-2.2-1.4-3.7-4.2-3.7c-2.7,0-4.2,1.4-4.2,3.9V52.1z M526.3,44.2c-0.4,0-0.6,0.1-0.6,0.5v1.6h-1.2c-0.4,0-0.5,0.1-0.5,0.5v0.8
		c0,0.4,0.1,0.6,0.5,0.6h1.2v3.7c0,1.5,0.3,2.6,0.9,3.2c0.6,0.6,1.7,0.8,3.2,0.8c0.4,0,0.6-0.1,0.6-0.6v-0.8c0-0.4-0.1-0.6-0.6-0.6
		c-0.8,0-1.3-0.1-1.6-0.4c-0.3-0.3-0.4-0.8-0.4-1.7v-3.6h2.1c0.4,0,0.6-0.1,0.6-0.6v-0.8c0-0.4-0.1-0.5-0.6-0.5h-2.1v-1.6
		c0-0.4-0.1-0.5-0.6-0.5H526.3z M520.6,46.3c-0.4,0-0.6,0.1-0.6,0.5v6.6c0,0.2-0.1,0.3-0.2,0.3c-0.5,0.1-1,0.2-1.7,0.2
		c-1.3,0-2-0.6-2-1.8v-5.4c0-0.4-0.1-0.5-0.5-0.5h-1c-0.4,0-0.6,0.1-0.6,0.5v5.4c0,2.3,1.2,3.6,3.8,3.6c1.3,0,2.5-0.2,3.5-0.6
		c0.6-0.2,0.7-0.4,0.7-1v-7.4c0-0.4-0.1-0.5-0.6-0.5H520.6z M509.6,52.1c0,1.3-0.7,1.9-2.1,1.9c-0.5,0-1-0.1-1.7-0.3v-5.3
		c0-0.1,0.1-0.2,0.2-0.2c0.5-0.1,1-0.2,1.6-0.2c1.3,0,2,0.6,2,1.8V52.1z M504.4,46.6c-0.6,0.2-0.7,0.5-0.7,1V59
		c0,0.4,0.1,0.6,0.6,0.6h1c0.4,0,0.5-0.1,0.5-0.6v-3.5c0.8,0.2,1.5,0.3,1.9,0.3c2.7,0,4-1.3,4-3.8v-2.5c0-2.4-1.3-3.6-3.8-3.6
		C506.5,46,505.3,46.2,504.4,46.6 M494.3,46.6c-0.5-0.4-1.3-0.6-2.2-0.6c-1.2,0-2.3,0.2-3.3,0.6c-0.6,0.2-0.7,0.4-0.7,1v7.4
		c0,0.4,0.1,0.6,0.6,0.6h1c0.4,0,0.5-0.1,0.5-0.6v-6.7c0-0.1,0.1-0.2,0.1-0.2c0.5-0.1,0.9-0.2,1.4-0.2c1.2,0,1.8,0.6,1.8,1.7v5.4
		c0,0.4,0.1,0.6,0.6,0.6h1c0.4,0,0.6-0.1,0.6-0.6v-5.5c0-0.6-0.1-1-0.2-1.3c0.6-0.2,1.2-0.3,1.7-0.3c1.2,0,1.7,0.6,1.7,1.7v5.4
		c0,0.4,0.1,0.6,0.6,0.6h1c0.4,0,0.5-0.1,0.5-0.6v-5.5c0-2.4-1.2-3.6-3.5-3.6C496.3,46,495.3,46.2,494.3,46.6 M483.5,52.3
		c0,1.1-0.8,1.7-2.1,1.7s-2.1-0.6-2.1-1.7v-2.7c0-1.1,0.7-1.7,2.1-1.7s2.1,0.6,2.1,1.7V52.3z M477.3,52.3c0,2.2,1.5,3.6,4.1,3.6
		c2.7,0,4.2-1.3,4.2-3.6v-2.7c0-2.2-1.5-3.6-4.2-3.6c-2.6,0-4.1,1.3-4.1,3.6V52.3z M467.3,52.2c0,2.4,1.3,3.7,4,3.7
		c2.1,0,3.4-0.8,4-2.4c0.2-0.4,0-0.6-0.4-0.8l-0.8-0.2c-0.4-0.1-0.6-0.1-0.8,0.4c-0.3,0.8-1,1.2-2,1.2c-1.3,0-2-0.6-2-1.8v-2.7
		c0-1.2,0.6-1.8,2-1.8c1,0,1.7,0.4,2,1.2c0.2,0.4,0.4,0.5,0.8,0.4l0.8-0.3c0.4-0.2,0.5-0.4,0.4-0.8c-0.5-1.4-1.8-2.4-3.9-2.4
		c-2.8,0-4.1,1.3-4.1,3.7V52.2z"/>
	<path style="clip-path:url(#SVGID_00000034057805038273048890000008817203483581632682_);fill:#575551;" d="M392.3,26.6
		c-0.6,0.2-0.7,0.4-0.7,1V35c0,0.4,0.1,0.6,0.6,0.6h1c0.4,0,0.5-0.1,0.5-0.6v-6.7c0-0.1,0-0.1,0.1-0.2c0.6-0.2,1.2-0.2,1.7-0.2
		c1.3,0,2,0.6,2,1.8V35c0,0.4,0.1,0.6,0.5,0.6h1c0.4,0,0.6-0.1,0.6-0.6v-5.4c0-2.3-1.2-3.6-3.7-3.6C394.4,26,393.3,26.1,392.3,26.6
		 M387,32.2c0,1.1-0.8,1.7-2.1,1.7s-2.1-0.6-2.1-1.7v-2.7c0-1.1,0.7-1.7,2.1-1.7s2.1,0.6,2.1,1.7V32.2z M380.8,32.2
		c0,2.2,1.5,3.6,4.1,3.6c2.7,0,4.2-1.3,4.2-3.6v-2.7c0-2.2-1.5-3.6-4.2-3.6c-2.6,0-4.1,1.4-4.1,3.6V32.2z M376.8,26.2
		c-0.4,0-0.5,0.1-0.5,0.5V35c0,0.4,0.1,0.6,0.5,0.6h1c0.4,0,0.6-0.1,0.6-0.6v-8.2c0-0.4-0.1-0.5-0.6-0.5H376.8z M377.2,22.7
		c-0.8,0-1.1,0.3-1.1,1.1V24c0,0.8,0.3,1.1,1.1,1.1h0.1c0.8,0,1.1-0.3,1.1-1.1v-0.2c0-0.8-0.3-1.1-1.1-1.1H377.2z M370,24.1
		c-0.4,0-0.6,0.1-0.6,0.5v1.6h-1.2c-0.4,0-0.5,0.1-0.5,0.5v0.8c0,0.4,0.1,0.6,0.5,0.6h1.2v3.7c0,1.5,0.3,2.6,0.9,3.2
		c0.6,0.6,1.7,0.8,3.2,0.8c0.4,0,0.6-0.1,0.6-0.6v-0.8c0-0.4-0.1-0.6-0.6-0.6c-0.8,0-1.3-0.1-1.6-0.4c-0.3-0.3-0.4-0.8-0.4-1.7v-3.6
		h2.1c0.4,0,0.6-0.1,0.6-0.6v-0.8c0-0.4-0.1-0.5-0.6-0.5h-2.1v-1.6c0-0.4-0.1-0.5-0.6-0.5H370z M364.2,26.2c-0.4,0-0.5,0.1-0.5,0.5
		V35c0,0.4,0.1,0.6,0.5,0.6h1c0.4,0,0.6-0.1,0.6-0.6v-8.2c0-0.4-0.1-0.5-0.6-0.5H364.2z M364.6,22.7c-0.8,0-1.1,0.3-1.1,1.1V24
		c0,0.8,0.3,1.1,1.1,1.1h0.1c0.8,0,1.1-0.3,1.1-1.1v-0.2c0-0.8-0.3-1.1-1.1-1.1H364.6z M353.6,26.6c-0.6,0.2-0.7,0.4-0.7,1V35
		c0,0.4,0.1,0.6,0.6,0.6h1c0.4,0,0.5-0.1,0.5-0.6v-6.7c0-0.1,0-0.1,0.1-0.2c0.6-0.2,1.2-0.2,1.7-0.2c1.3,0,2,0.6,2,1.8V35
		c0,0.4,0.1,0.6,0.5,0.6h1c0.4,0,0.6-0.1,0.6-0.6v-5.4c0-2.3-1.2-3.6-3.7-3.6C355.8,26,354.6,26.1,353.6,26.6 M348,28.1
		c0.1,0.1,0.2,0.1,0.2,0.2v5c-0.7,0.2-1.3,0.3-1.9,0.3c-1.3,0-2-0.6-2-1.8v-1.9c0-1.3,0.7-1.9,2.1-1.9C347,27.9,347.5,27.9,348,28.1
		 M342.3,31.8c0,2.3,1.2,3.6,3.7,3.6c0.6,0,1.4-0.1,2.2-0.3V36c0,1.3-0.6,1.9-1.9,1.9c-0.9,0-1.5-0.3-1.9-0.9
		c-0.3-0.4-0.5-0.4-0.9-0.2l-0.7,0.4c-0.4,0.2-0.5,0.5-0.2,0.9c0.7,1.2,1.9,1.7,3.7,1.7c2.7,0,4-1.5,4-3.9v-8.4c0-0.6-0.1-0.7-0.7-1
		c-0.8-0.4-1.9-0.6-3.3-0.6c-2.7,0-4.1,1.3-4.1,3.8V31.8z M337.9,32.2c0,1.1-0.8,1.7-2.1,1.7s-2.1-0.6-2.1-1.7v-2.7
		c0-1.1,0.7-1.7,2.1-1.7s2.1,0.6,2.1,1.7V32.2z M331.7,32.2c0,2.2,1.5,3.6,4.1,3.6c2.7,0,4.2-1.3,4.2-3.6v-2.7
		c0-2.2-1.5-3.6-4.2-3.6c-2.6,0-4.1,1.4-4.1,3.6V32.2z M321.7,32.1c0,2.4,1.3,3.7,4,3.7c2.1,0,3.4-0.8,4-2.4c0.2-0.4,0-0.6-0.4-0.8
		l-0.8-0.2c-0.4-0.1-0.6-0.1-0.8,0.4c-0.3,0.8-1,1.2-2,1.2c-1.3,0-2-0.6-2-1.8v-2.7c0-1.2,0.6-1.8,2-1.8c1,0,1.7,0.4,2,1.2
		c0.2,0.4,0.4,0.5,0.8,0.4l0.8-0.3c0.4-0.2,0.5-0.4,0.4-0.8c-0.5-1.4-1.8-2.4-3.9-2.4c-2.8,0-4.1,1.3-4.1,3.7V32.1z M317.5,29.9
		h-4.2v-0.4c0-1.2,0.7-1.8,2.1-1.8c1.4,0,2.1,0.7,2.1,1.8V29.9z M311.3,32c0,2.4,1.3,3.9,4.1,3.9c1.9,0,3.2-0.6,3.9-1.7
		c0.3-0.4,0.2-0.7-0.2-0.9l-0.6-0.3c-0.4-0.2-0.6-0.2-0.9,0.2c-0.4,0.6-1.1,1-2.1,1c-1.3,0-2.1-0.6-2.1-1.8v-0.7h5.4
		c0.5,0,0.8-0.3,0.8-0.8v-1.1c0-2.2-1.4-3.7-4.2-3.7c-2.7,0-4.2,1.4-4.2,3.9V32z M308.8,26c-1.4,0-2.5,0.2-3.3,0.5
		c-0.6,0.2-0.7,0.5-0.7,1V35c0,0.4,0.1,0.6,0.6,0.6h1c0.4,0,0.5-0.1,0.5-0.6v-6.7c0-0.1,0.1-0.2,0.2-0.2c0.5-0.1,1-0.2,1.7-0.2h0.6
		c0.4,0,0.6-0.1,0.6-0.6v-0.8c0-0.4-0.1-0.6-0.6-0.6H308.8z"/>
	<path style="clip-path:url(#SVGID_00000034057805038273048890000008817203483581632682_);fill:#575551;" d="M374.2,0.2
		c-0.4,0-0.6,0.1-0.6,0.6V13c0,0.4,0.1,0.6,0.6,0.6h1c0.4,0,0.5-0.1,0.5-0.6V6.1c0.4-0.2,1-0.3,1.9-0.3c1.3,0,2,0.6,2,1.8V13
		c0,0.4,0.1,0.6,0.6,0.6h1c0.4,0,0.6-0.1,0.6-0.6V7.6c0-2.4-1.2-3.6-3.7-3.6c-1,0-2,0.2-2.2,0.3V0.8c0-0.4-0.1-0.6-0.5-0.6H374.2z
		 M363.3,10.1c0,2.4,1.3,3.7,4,3.7c2.1,0,3.4-0.8,4-2.4c0.2-0.4,0-0.6-0.4-0.8l-0.8-0.2c-0.4-0.1-0.6-0.1-0.8,0.4
		c-0.3,0.8-1,1.2-2,1.2c-1.3,0-2-0.6-2-1.8V7.6c0-1.2,0.6-1.8,2-1.8c1,0,1.7,0.4,2,1.2c0.2,0.4,0.4,0.5,0.8,0.4l0.8-0.3
		c0.4-0.2,0.5-0.4,0.4-0.8c-0.5-1.4-1.8-2.4-3.9-2.4c-2.8,0-4.1,1.3-4.1,3.7V10.1z M359.2,7.9H355V7.6c0-1.2,0.7-1.8,2.1-1.8
		c1.4,0,2.1,0.7,2.1,1.8V7.9z M352.9,10c0,2.4,1.3,3.9,4.1,3.9c1.9,0,3.2-0.6,3.9-1.7c0.3-0.4,0.2-0.7-0.2-0.9l-0.6-0.3
		c-0.4-0.2-0.6-0.2-0.9,0.2c-0.4,0.6-1.1,1-2.1,1c-1.3,0-2.1-0.6-2.1-1.8V9.5h5.4c0.5,0,0.8-0.3,0.8-0.8V7.7c0-2.2-1.4-3.7-4.2-3.7
		c-2.7,0-4.2,1.4-4.2,3.9V10z M348.8,7.9h-4.2V7.6c0-1.2,0.7-1.8,2.1-1.8c1.4,0,2.1,0.7,2.1,1.8V7.9z M342.6,10
		c0,2.4,1.3,3.9,4.1,3.9c1.9,0,3.2-0.6,3.9-1.7c0.3-0.4,0.2-0.7-0.2-0.9l-0.6-0.3c-0.4-0.2-0.6-0.2-0.9,0.2c-0.4,0.6-1.1,1-2.1,1
		c-1.3,0-2.1-0.6-2.1-1.8V9.5h5.4c0.5,0,0.8-0.3,0.8-0.8V7.7c0-2.2-1.4-3.7-4.2-3.7c-2.7,0-4.2,1.4-4.2,3.9V10z M338.3,10
		c0,1.3-0.7,1.9-2.1,1.9c-0.5,0-1-0.1-1.7-0.3V6.3c0-0.1,0.1-0.2,0.2-0.2c0.5-0.1,1-0.2,1.6-0.2c1.3,0,2,0.6,2,1.8V10z M333.1,4.5
		c-0.6,0.2-0.7,0.5-0.7,1v11.4c0,0.4,0.1,0.6,0.6,0.6h1c0.4,0,0.5-0.1,0.5-0.6v-3.5c0.8,0.2,1.5,0.3,1.9,0.3c2.7,0,4-1.3,4-3.8V7.6
		c0-2.4-1.3-3.6-3.8-3.6C335.2,4,334,4.1,333.1,4.5 M322.5,6.8c0,0.9,0.3,1.6,0.8,2c0.2,0.2,0.5,0.4,0.8,0.5c0.7,0.3,1.2,0.3,2,0.4
		c1.6,0.2,2.2,0.4,2.2,1.2c0,0.7-0.6,1.1-1.9,1.1c-1.1,0-1.8-0.3-2-1c-0.2-0.4-0.4-0.5-0.7-0.3l-0.8,0.3c-0.4,0.1-0.5,0.4-0.4,0.8
		c0.6,1.5,1.9,2.2,4,2.2c2.5,0,3.9-1.2,3.9-3c0-2-1.2-2.7-3.7-2.9c-1.6-0.1-2.1-0.3-2.1-1.1c0-0.6,0.6-1,1.7-1c1,0,1.6,0.3,1.9,0.9
		c0.2,0.4,0.3,0.4,0.8,0.3l0.8-0.3c0.4-0.2,0.5-0.5,0.3-0.8c-0.6-1.3-1.9-1.9-3.9-1.9C323.7,4,322.5,5.1,322.5,6.8"/>
	<path style="clip-path:url(#SVGID_00000034057805038273048890000008817203483581632682_);fill:#575551;" d="M130.5,155.8
		c-0.4-0.7-0.8-1.2-1.3-1.5l2.7-3.4c0.3-0.4,0.2-0.6-0.4-0.6h-0.9c-0.7,0-0.8,0-1.1,0.4l-2.4,3.2H127h-0.8v-7c0-0.4-0.1-0.6-0.6-0.6
		h-0.9c-0.5,0-0.6,0.1-0.6,0.6v12.2c0,0.4,0.1,0.6,0.6,0.6h0.9c0.4,0,0.6-0.1,0.6-0.6v-3.2h1.1c0.7,0,1.2,0.3,1.4,0.9l1.1,2.4
		c0.2,0.4,0.3,0.5,1,0.5h0.9c0.5,0,0.6-0.2,0.3-0.7L130.5,155.8z M121.1,150c-1.3,0-2.5,0.2-3.3,0.5c-0.6,0.2-0.7,0.5-0.7,1v7.5
		c0,0.4,0.1,0.6,0.6,0.6h1c0.4,0,0.5-0.1,0.5-0.6v-6.7c0-0.1,0.1-0.2,0.2-0.2c0.5-0.1,1-0.2,1.7-0.2h0.6c0.4,0,0.6-0.1,0.6-0.6v-0.8
		c0-0.4-0.1-0.6-0.6-0.6H121.1z M112.5,156.3c0,1.1-0.8,1.7-2.1,1.7c-1.3,0-2.1-0.6-2.1-1.7v-2.7c0-1.1,0.7-1.7,2.1-1.7
		c1.3,0,2.1,0.6,2.1,1.7V156.3z M106.2,156.3c0,2.2,1.5,3.6,4.1,3.6c2.7,0,4.2-1.4,4.2-3.6v-2.7c0-2.2-1.5-3.6-4.2-3.6
		c-2.6,0-4.1,1.4-4.1,3.6V156.3z M103.6,150.3c-0.7,0-0.9,0.1-1,0.6l-1,4c-0.1,0.6-0.3,1.4-0.3,1.9l0,0.3h-0.1
		c0-0.1-0.1-1.3-0.4-2.2l-1.2-4c-0.1-0.5-0.3-0.6-0.9-0.6h-0.4c-0.6,0-0.8,0.1-0.9,0.6l-1.2,3.9c-0.2,0.8-0.4,2.1-0.4,2.2h-0.1
		c0,0-0.2-1.5-0.3-2.2l-1-4c-0.1-0.4-0.3-0.6-1-0.6h-0.7c-0.5,0-0.6,0.1-0.4,0.6l2.4,8.2c0.1,0.3,0.3,0.5,0.8,0.5H96
		c0.4,0,0.7-0.2,0.8-0.5l1.3-4.6c0.1-0.5,0.3-1.2,0.3-1.6l0-0.3h0.1l0,0.3c0.1,0.4,0.1,1.1,0.3,1.6l1.3,4.6c0.1,0.3,0.4,0.5,0.8,0.5
		h0.6c0.4,0,0.7-0.2,0.8-0.5l2.4-8.2c0.1-0.5,0.1-0.6-0.5-0.6H103.6z M86.5,148.2c-0.4,0-0.6,0.1-0.6,0.5v1.6h-1.2
		c-0.4,0-0.5,0.1-0.5,0.5v0.8c0,0.4,0.1,0.6,0.5,0.6h1.2v3.7c0,1.5,0.3,2.6,0.9,3.2c0.6,0.6,1.7,0.8,3.2,0.8c0.4,0,0.6-0.1,0.6-0.6
		v-0.8c0-0.4-0.1-0.6-0.6-0.6c-0.8,0-1.3-0.1-1.6-0.4c-0.3-0.3-0.4-0.8-0.4-1.7v-3.6h2.1c0.4,0,0.6-0.1,0.6-0.6v-0.8
		c0-0.4-0.1-0.5-0.6-0.5H88v-1.6c0-0.4-0.1-0.5-0.6-0.5H86.5z M80.6,154h-4.2v-0.4c0-1.2,0.7-1.8,2.1-1.8c1.4,0,2.1,0.7,2.1,1.8V154
		z M74.4,156.1c0,2.4,1.3,3.9,4.1,3.9c1.9,0,3.2-0.6,3.9-1.7c0.3-0.4,0.2-0.7-0.2-0.9l-0.6-0.3c-0.4-0.2-0.6-0.2-0.9,0.2
		c-0.4,0.6-1.1,1-2.1,1c-1.3,0-2.1-0.6-2.1-1.8v-0.7h5.4c0.5,0,0.8-0.3,0.8-0.8v-1.1c0-2.2-1.4-3.7-4.2-3.7c-2.7,0-4.2,1.4-4.2,3.9
		V156.1z M64.7,150.7c-0.6,0.2-0.7,0.5-0.7,1v7.4c0,0.4,0.1,0.6,0.6,0.6h1c0.4,0,0.5-0.1,0.5-0.6v-6.7c0-0.1,0-0.1,0.1-0.2
		c0.6-0.2,1.2-0.2,1.7-0.2c1.3,0,2,0.6,2,1.8v5.4c0,0.4,0.1,0.6,0.5,0.6h1c0.4,0,0.6-0.1,0.6-0.6v-5.4c0-2.3-1.2-3.6-3.7-3.6
		C66.9,150,65.7,150.2,64.7,150.7"/>
	<path style="clip-path:url(#SVGID_00000034057805038273048890000008817203483581632682_);fill:#575551;" d="M123.1,124.9
		c0-0.4-0.1-0.6-0.6-0.6h-1c-0.4,0-0.6,0.1-0.6,0.6v12.2c0,0.4,0.1,0.6,0.6,0.6h1c0.4,0,0.6-0.1,0.6-0.6V124.9z M116.2,135.8
		c0,0.1-0.1,0.2-0.2,0.3c-0.4,0.1-1,0.1-1.8,0.1c-1.3,0-1.7-0.4-1.7-1.2c0-0.8,0.4-1.2,1.7-1.2c0.1,0,0.7,0,2,0.1V135.8z
		 M110.8,129.9c-0.2,0.4-0.1,0.6,0.3,0.8l0.7,0.3c0.4,0.1,0.5,0.1,0.8-0.3c0.4-0.6,1-0.9,1.9-0.9c1.3,0,1.8,0.6,1.8,1.8v0.5
		c-1-0.1-1.6-0.1-1.7-0.1c-2.9,0-4.1,0.8-4.1,2.9c0,1,0.3,1.7,0.9,2.2c0.6,0.5,1.6,0.7,3.2,0.7c1.4,0,2.5-0.2,3.2-0.5
		c0.5-0.2,0.6-0.4,0.6-1v-4.7c0-2.5-1.3-3.7-3.9-3.7C112.6,128,111.4,128.7,110.8,129.9 M108,128c-1.4,0-2.5,0.2-3.3,0.5
		c-0.6,0.2-0.7,0.5-0.7,1v7.5c0,0.4,0.1,0.6,0.6,0.6h1c0.4,0,0.5-0.1,0.5-0.6v-6.7c0-0.1,0.1-0.2,0.2-0.2c0.5-0.1,1-0.2,1.7-0.2h0.6
		c0.4,0,0.6-0.1,0.6-0.6v-0.8c0-0.4-0.1-0.6-0.6-0.6H108z M99.7,128.3c-0.4,0-0.6,0.1-0.6,0.5v6.6c0,0.2-0.1,0.3-0.2,0.3
		c-0.5,0.1-1,0.2-1.7,0.2c-1.3,0-2-0.6-2-1.8v-5.4c0-0.4-0.1-0.5-0.5-0.5h-1c-0.4,0-0.6,0.1-0.6,0.5v5.4c0,2.3,1.2,3.6,3.8,3.6
		c1.3,0,2.5-0.2,3.5-0.6c0.6-0.2,0.7-0.4,0.7-1v-7.4c0-0.4-0.1-0.5-0.6-0.5H99.7z M88.9,132h-4.2v-0.4c0-1.2,0.7-1.8,2.1-1.8
		c1.4,0,2.1,0.7,2.1,1.8V132z M82.6,134.1c0,2.4,1.3,3.9,4.1,3.9c1.9,0,3.2-0.6,3.9-1.7c0.3-0.4,0.2-0.7-0.2-0.9l-0.6-0.3
		c-0.4-0.2-0.6-0.2-0.9,0.2c-0.4,0.6-1.1,1-2.1,1c-1.3,0-2.1-0.6-2.1-1.8v-0.7h5.4c0.5,0,0.8-0.3,0.8-0.8v-1.1
		c0-2.2-1.4-3.7-4.2-3.7c-2.7,0-4.2,1.4-4.2,3.9V134.1z M72.9,128.7c-0.6,0.2-0.7,0.5-0.7,1v7.4c0,0.4,0.1,0.6,0.6,0.6h1
		c0.4,0,0.5-0.1,0.5-0.6v-6.7c0-0.1,0-0.1,0.1-0.2c0.6-0.2,1.2-0.2,1.7-0.2c1.3,0,2,0.6,2,1.8v5.4c0,0.4,0.1,0.6,0.5,0.6h1
		c0.4,0,0.6-0.1,0.6-0.6v-5.4c0-2.3-1.2-3.6-3.7-3.6C75.1,128,73.9,128.2,72.9,128.7"/>
	<path style="clip-path:url(#SVGID_00000034057805038273048890000008817203483581632682_);fill:#575551;" d="M667.5,152.2
		c0.1,0.1,0.2,0.1,0.2,0.2v4.9c-0.7,0.2-1.3,0.3-1.9,0.3c-1.3,0-2-0.6-2-1.8v-1.9c0-1.3,0.7-1.9,2.1-1.9
		C666.5,152,667,152,667.5,152.2 M661.8,155.9c0,2.3,1.2,3.6,3.7,3.6c0.6,0,1.3-0.1,2.2-0.3v0.9c0,1.3-0.6,1.9-1.9,1.9
		c-0.9,0-1.5-0.3-1.9-0.9c-0.3-0.4-0.5-0.4-0.9-0.2l-0.7,0.4c-0.4,0.2-0.5,0.5-0.2,0.9c0.7,1.2,1.9,1.7,3.7,1.7c2.7,0,4-1.5,4-3.9
		v-8.4c0-0.6-0.1-0.7-0.7-1c-0.8-0.4-1.9-0.6-3.3-0.6c-2.7,0-4.1,1.3-4.1,3.8V155.9z M652,150.7c-0.6,0.2-0.7,0.4-0.7,1v7.4
		c0,0.4,0.1,0.6,0.6,0.6h1c0.4,0,0.5-0.1,0.5-0.6v-6.7c0-0.1,0-0.1,0.1-0.2c0.6-0.2,1.2-0.2,1.7-0.2c1.3,0,2,0.6,2,1.8v5.4
		c0,0.4,0.1,0.6,0.5,0.6h1c0.4,0,0.6-0.1,0.6-0.6v-5.4c0-2.3-1.2-3.6-3.7-3.6C654.2,150,653,150.2,652,150.7 M647,150.3
		c-0.4,0-0.5,0.1-0.5,0.5v8.2c0,0.4,0.1,0.6,0.5,0.6h1c0.4,0,0.6-0.1,0.6-0.6v-8.2c0-0.4-0.1-0.5-0.6-0.5H647z M647.4,146.8
		c-0.8,0-1.1,0.3-1.1,1.1v0.2c0,0.8,0.3,1.1,1.1,1.1h0.1c0.8,0,1.1-0.3,1.1-1.1v-0.2c0-0.8-0.3-1.1-1.1-1.1H647.4z M636.5,152.9
		c0,0.9,0.3,1.6,0.8,2c0.2,0.2,0.5,0.4,0.8,0.5c0.7,0.3,1.2,0.3,2,0.4c1.6,0.2,2.2,0.4,2.2,1.2c0,0.7-0.6,1.1-1.9,1.1
		c-1.1,0-1.8-0.3-2-1c-0.2-0.4-0.4-0.5-0.7-0.3l-0.8,0.3c-0.4,0.1-0.5,0.4-0.4,0.8c0.6,1.5,1.9,2.2,4,2.2c2.5,0,3.9-1.2,3.9-3
		c0-2-1.2-2.7-3.7-2.9c-1.6-0.1-2.1-0.3-2.1-1.1c0-0.6,0.6-1,1.7-1c1,0,1.6,0.3,1.9,0.9c0.2,0.4,0.3,0.4,0.8,0.3l0.8-0.3
		c0.4-0.2,0.5-0.5,0.3-0.8c-0.6-1.3-1.9-1.9-3.9-1.9C637.8,150,636.5,151.2,636.5,152.9 M626.7,152.9c0,0.9,0.3,1.6,0.8,2
		c0.2,0.2,0.5,0.4,0.8,0.5c0.7,0.3,1.2,0.3,2,0.4c1.6,0.2,2.2,0.4,2.2,1.2c0,0.7-0.6,1.1-1.9,1.1c-1.1,0-1.8-0.3-2-1
		c-0.2-0.4-0.4-0.5-0.7-0.3L627,157c-0.4,0.1-0.5,0.4-0.4,0.8c0.6,1.5,1.9,2.2,4,2.2c2.5,0,3.9-1.2,3.9-3c0-2-1.2-2.7-3.7-2.9
		c-1.6-0.1-2.1-0.3-2.1-1.1c0-0.6,0.6-1,1.7-1c1,0,1.6,0.3,1.9,0.9c0.2,0.4,0.3,0.4,0.8,0.3l0.8-0.3c0.4-0.2,0.5-0.5,0.3-0.8
		c-0.6-1.3-1.9-1.9-3.9-1.9C628,150,626.7,151.2,626.7,152.9 M622.4,154h-4.2v-0.4c0-1.2,0.7-1.8,2.1-1.8c1.4,0,2.1,0.7,2.1,1.8V154
		z M616.1,156.1c0,2.4,1.3,3.9,4.1,3.9c1.9,0,3.2-0.6,3.9-1.7c0.3-0.4,0.2-0.7-0.2-0.9l-0.6-0.3c-0.4-0.2-0.6-0.2-0.9,0.2
		c-0.4,0.6-1.1,1-2.1,1c-1.3,0-2.1-0.6-2.1-1.8v-0.7h5.4c0.5,0,0.8-0.3,0.8-0.8v-1.1c0-2.2-1.4-3.7-4.2-3.7c-2.7,0-4.2,1.4-4.2,3.9
		V156.1z M606.1,156.2c0,2.4,1.3,3.7,4,3.7c2.1,0,3.4-0.8,4-2.4c0.2-0.4,0-0.6-0.4-0.8l-0.8-0.2c-0.4-0.1-0.6-0.1-0.8,0.4
		c-0.3,0.8-1,1.2-2,1.2c-1.3,0-2-0.6-2-1.8v-2.7c0-1.2,0.6-1.8,2-1.8c1,0,1.7,0.4,2,1.2c0.2,0.4,0.4,0.5,0.8,0.4l0.8-0.3
		c0.4-0.2,0.5-0.4,0.4-0.8c-0.5-1.4-1.8-2.4-3.9-2.4c-2.8,0-4.1,1.3-4.1,3.7V156.2z M601.8,156.3c0,1.1-0.8,1.7-2.1,1.7
		c-1.3,0-2.1-0.6-2.1-1.7v-2.7c0-1.1,0.7-1.7,2.1-1.7c1.3,0,2.1,0.6,2.1,1.7V156.3z M595.6,156.3c0,2.2,1.5,3.6,4.1,3.6
		c2.7,0,4.2-1.4,4.2-3.6v-2.7c0-2.2-1.5-3.6-4.2-3.6c-2.6,0-4.1,1.3-4.1,3.6V156.3z M593.1,150c-1.3,0-2.5,0.2-3.3,0.5
		c-0.6,0.2-0.7,0.5-0.7,1v7.5c0,0.4,0.1,0.6,0.6,0.6h1c0.4,0,0.5-0.1,0.5-0.6v-6.7c0-0.1,0.1-0.2,0.2-0.2c0.5-0.1,1-0.2,1.7-0.2h0.6
		c0.4,0,0.6-0.1,0.6-0.6v-0.8c0-0.4-0.1-0.6-0.6-0.6H593.1z M584.5,156.1c0,1.3-0.7,1.9-2.1,1.9c-0.5,0-1-0.1-1.7-0.3v-5.3
		c0-0.1,0.1-0.2,0.2-0.2c0.5-0.1,1-0.2,1.6-0.2c1.3,0,2,0.6,2,1.8V156.1z M579.3,150.6c-0.6,0.2-0.7,0.5-0.7,1V163
		c0,0.4,0.1,0.6,0.6,0.6h1c0.4,0,0.5-0.1,0.5-0.6v-3.5c0.8,0.2,1.5,0.3,1.9,0.3c2.7,0,4-1.3,4-3.8v-2.5c0-2.4-1.3-3.6-3.8-3.6
		C581.4,150,580.2,150.2,579.3,150.6"/>
	<path style="clip-path:url(#SVGID_00000034057805038273048890000008817203483581632682_);fill:#575551;" d="M692.8,132h-4.2v-0.4
		c0-1.2,0.7-1.8,2.1-1.8c1.4,0,2.1,0.7,2.1,1.8V132z M686.6,134.1c0,2.4,1.3,3.9,4.1,3.9c1.9,0,3.2-0.6,3.9-1.7
		c0.3-0.4,0.2-0.7-0.2-0.9l-0.6-0.3c-0.4-0.2-0.6-0.2-0.9,0.2c-0.4,0.6-1.1,1-2.1,1c-1.3,0-2.1-0.6-2.1-1.8v-0.7h5.4
		c0.5,0,0.8-0.3,0.8-0.8v-1.1c0-2.2-1.4-3.7-4.2-3.7c-2.7,0-4.2,1.4-4.2,3.9V134.1z M682,130.2c0.1,0.1,0.2,0.1,0.2,0.2v4.9
		c-0.7,0.2-1.3,0.3-1.9,0.3c-1.3,0-2-0.6-2-1.8v-1.9c0-1.3,0.7-1.9,2.1-1.9C681,130,681.5,130,682,130.2 M676.2,133.9
		c0,2.3,1.2,3.6,3.7,3.6c0.6,0,1.3-0.1,2.2-0.3v0.9c0,1.3-0.6,1.9-1.9,1.9c-0.9,0-1.5-0.3-1.9-0.9c-0.3-0.4-0.5-0.4-0.9-0.2
		l-0.7,0.4c-0.4,0.2-0.5,0.5-0.2,0.9c0.7,1.2,1.9,1.7,3.7,1.7c2.7,0,4-1.5,4-3.9v-8.4c0-0.6-0.1-0.7-0.7-1c-0.8-0.4-1.9-0.6-3.3-0.6
		c-2.7,0-4.1,1.3-4.1,3.8V133.9z M671.7,135.8c0,0.1-0.1,0.2-0.2,0.3c-0.4,0.1-1,0.1-1.8,0.1c-1.3,0-1.7-0.4-1.7-1.2
		c0-0.8,0.4-1.2,1.7-1.2c0.1,0,0.7,0,2,0.1V135.8z M666.2,129.9c-0.2,0.4-0.1,0.6,0.3,0.8l0.7,0.3c0.4,0.1,0.5,0.1,0.8-0.3
		c0.4-0.6,1-0.9,1.9-0.9c1.3,0,1.8,0.6,1.8,1.8v0.5c-1-0.1-1.6-0.1-1.7-0.1c-2.9,0-4.1,0.8-4.1,2.9c0,1,0.3,1.7,0.9,2.2
		c0.6,0.5,1.6,0.7,3.2,0.7c1.4,0,2.5-0.2,3.2-0.5c0.5-0.2,0.6-0.4,0.6-1v-4.7c0-2.5-1.3-3.7-3.9-3.7
		C668.1,128,666.9,128.7,666.2,129.9 M662.1,128.3c-0.4,0-0.6,0.1-0.6,0.5v6.6c0,0.2-0.1,0.3-0.2,0.3c-0.5,0.1-1,0.2-1.7,0.2
		c-1.3,0-2-0.6-2-1.8v-5.4c0-0.4-0.1-0.5-0.5-0.5h-1c-0.4,0-0.6,0.1-0.6,0.5v5.4c0,2.3,1.2,3.6,3.8,3.6c1.3,0,2.5-0.2,3.5-0.6
		c0.6-0.2,0.7-0.4,0.7-1v-7.4c0-0.4-0.1-0.5-0.6-0.5H662.1z M650.8,130.2c0.1,0.1,0.2,0.1,0.2,0.2v4.9c-0.7,0.2-1.3,0.3-1.9,0.3
		c-1.3,0-2-0.6-2-1.8v-1.9c0-1.3,0.7-1.9,2.1-1.9C649.8,130,650.3,130,650.8,130.2 M645,133.9c0,2.3,1.2,3.6,3.7,3.6
		c0.6,0,1.3-0.1,2.2-0.3v0.9c0,1.3-0.6,1.9-1.9,1.9c-0.9,0-1.5-0.3-1.9-0.9c-0.3-0.4-0.5-0.4-0.9-0.2l-0.7,0.4
		c-0.4,0.2-0.5,0.5-0.2,0.9c0.7,1.2,1.9,1.7,3.7,1.7c2.7,0,4-1.5,4-3.9v-8.4c0-0.6-0.1-0.7-0.7-1c-0.8-0.4-1.9-0.6-3.3-0.6
		c-2.7,0-4.1,1.3-4.1,3.8V133.9z M635.2,128.7c-0.6,0.2-0.7,0.5-0.7,1v7.4c0,0.4,0.1,0.6,0.6,0.6h1c0.4,0,0.5-0.1,0.5-0.6v-6.7
		c0-0.1,0-0.1,0.1-0.2c0.6-0.2,1.2-0.2,1.7-0.2c1.3,0,2,0.6,2,1.8v5.4c0,0.4,0.1,0.6,0.5,0.6h1c0.4,0,0.6-0.1,0.6-0.6v-5.4
		c0-2.3-1.2-3.6-3.7-3.6C637.4,128,636.3,128.2,635.2,128.7 M629.8,135.8c0,0.1-0.1,0.2-0.2,0.3c-0.4,0.1-1,0.1-1.8,0.1
		c-1.3,0-1.7-0.4-1.7-1.2c0-0.8,0.4-1.2,1.7-1.2c0.1,0,0.7,0,2,0.1V135.8z M624.3,129.9c-0.2,0.4-0.1,0.6,0.3,0.8l0.7,0.3
		c0.4,0.1,0.5,0.1,0.8-0.3c0.4-0.6,1-0.9,1.9-0.9c1.3,0,1.8,0.6,1.8,1.8v0.5c-1-0.1-1.6-0.1-1.7-0.1c-2.9,0-4.1,0.8-4.1,2.9
		c0,1,0.3,1.7,0.9,2.2c0.6,0.5,1.6,0.7,3.1,0.7c1.4,0,2.5-0.2,3.2-0.5c0.5-0.2,0.6-0.4,0.6-1v-4.7c0-2.5-1.3-3.7-3.9-3.7
		C626.2,128,625,128.7,624.3,129.9 M621.6,124.9c0-0.4-0.1-0.6-0.6-0.6h-1c-0.4,0-0.6,0.1-0.6,0.6v12.2c0,0.4,0.1,0.6,0.6,0.6h1
		c0.4,0,0.6-0.1,0.6-0.6V124.9z M612,124.9c0-0.4-0.1-0.6-0.6-0.6h-1c-0.4,0-0.6,0.1-0.6,0.6v12.2c0,0.4,0.1,0.6,0.6,0.6h1
		c0.4,0,0.6-0.1,0.6-0.6V124.9z M605.1,135.8c0,0.1-0.1,0.2-0.2,0.3c-0.4,0.1-1,0.1-1.8,0.1c-1.3,0-1.7-0.4-1.7-1.2
		c0-0.8,0.4-1.2,1.7-1.2c0.1,0,0.7,0,2,0.1V135.8z M599.6,129.9c-0.2,0.4-0.1,0.6,0.3,0.8l0.7,0.3c0.4,0.1,0.5,0.1,0.8-0.3
		c0.4-0.6,1-0.9,1.9-0.9c1.3,0,1.8,0.6,1.8,1.8v0.5c-1-0.1-1.6-0.1-1.7-0.1c-2.9,0-4.1,0.8-4.1,2.9c0,1,0.3,1.7,0.9,2.2
		c0.6,0.5,1.6,0.7,3.2,0.7c1.4,0,2.5-0.2,3.2-0.5c0.5-0.2,0.6-0.4,0.6-1v-4.7c0-2.5-1.3-3.7-3.9-3.7
		C601.5,128,600.3,128.7,599.6,129.9 M596.9,128c-1.3,0-2.5,0.2-3.3,0.5c-0.6,0.2-0.7,0.5-0.7,1v7.5c0,0.4,0.1,0.6,0.6,0.6h1
		c0.4,0,0.5-0.1,0.5-0.6v-6.7c0-0.1,0.1-0.2,0.2-0.2c0.5-0.1,1-0.2,1.7-0.2h0.6c0.4,0,0.6-0.1,0.6-0.6v-0.8c0-0.4-0.1-0.6-0.6-0.6
		H596.9z M588.5,128.3c-0.4,0-0.6,0.1-0.6,0.5v6.6c0,0.2-0.1,0.3-0.2,0.3c-0.5,0.1-1,0.2-1.7,0.2c-1.3,0-2-0.6-2-1.8v-5.4
		c0-0.4-0.1-0.5-0.5-0.5h-1c-0.4,0-0.6,0.1-0.6,0.5v5.4c0,2.3,1.2,3.6,3.8,3.6c1.3,0,2.5-0.2,3.5-0.6c0.6-0.2,0.7-0.4,0.7-1v-7.4
		c0-0.4-0.1-0.5-0.6-0.5H588.5z M575.9,126.2c-0.4,0-0.6,0.1-0.6,0.5v1.6h-1.2c-0.4,0-0.5,0.1-0.5,0.5v0.8c0,0.4,0.1,0.6,0.5,0.6
		h1.2v3.7c0,1.5,0.3,2.6,0.9,3.2c0.6,0.6,1.7,0.8,3.2,0.8c0.4,0,0.6-0.1,0.6-0.6v-0.8c0-0.4-0.1-0.6-0.6-0.6c-0.8,0-1.3-0.1-1.6-0.4
		c-0.3-0.3-0.4-0.8-0.4-1.7v-3.6h2.1c0.4,0,0.6-0.1,0.6-0.6v-0.8c0-0.4-0.1-0.5-0.6-0.5h-2.1v-1.6c0-0.4-0.1-0.5-0.6-0.5H575.9z
		 M569.8,135.8c0,0.1-0.1,0.2-0.2,0.3c-0.4,0.1-1,0.1-1.8,0.1c-1.3,0-1.7-0.4-1.7-1.2c0-0.8,0.4-1.2,1.7-1.2c0.1,0,0.7,0,2,0.1
		V135.8z M564.3,129.9c-0.2,0.4-0.1,0.6,0.3,0.8l0.7,0.3c0.4,0.1,0.5,0.1,0.8-0.3c0.4-0.6,1-0.9,1.9-0.9c1.3,0,1.8,0.6,1.8,1.8v0.5
		c-1-0.1-1.6-0.1-1.7-0.1c-2.9,0-4.1,0.8-4.1,2.9c0,1,0.3,1.7,0.9,2.2c0.6,0.5,1.6,0.7,3.1,0.7c1.4,0,2.5-0.2,3.2-0.5
		c0.5-0.2,0.6-0.4,0.6-1v-4.7c0-2.5-1.3-3.7-3.9-3.7C566.2,128,564.9,128.7,564.3,129.9 M554.5,128.7c-0.6,0.2-0.7,0.5-0.7,1v7.4
		c0,0.4,0.1,0.6,0.6,0.6h1c0.4,0,0.5-0.1,0.5-0.6v-6.7c0-0.1,0-0.1,0.1-0.2c0.6-0.2,1.2-0.2,1.7-0.2c1.3,0,2,0.6,2,1.8v5.4
		c0,0.4,0.1,0.6,0.5,0.6h1c0.4,0,0.6-0.1,0.6-0.6v-5.4c0-2.3-1.2-3.6-3.7-3.6C556.6,128,555.5,128.2,554.5,128.7"/>
	<path style="clip-path:url(#SVGID_00000034057805038273048890000008817203483581632682_);fill:#575551;" d="M705.8,254.9
		c0,0.9,0.3,1.6,0.8,2c0.2,0.2,0.5,0.4,0.8,0.5c0.7,0.3,1.2,0.3,2,0.4c1.6,0.2,2.2,0.4,2.2,1.2c0,0.7-0.6,1.1-1.9,1.1
		c-1.1,0-1.8-0.3-2-1c-0.2-0.4-0.4-0.5-0.7-0.3l-0.8,0.3c-0.4,0.1-0.5,0.4-0.4,0.8c0.6,1.5,1.9,2.2,4,2.2c2.5,0,3.9-1.2,3.9-3
		c0-2-1.2-2.7-3.7-2.9c-1.6-0.1-2.1-0.3-2.1-1.1c0-0.6,0.6-1,1.7-1c1,0,1.6,0.3,1.9,0.9c0.2,0.4,0.3,0.4,0.8,0.3l0.8-0.3
		c0.4-0.2,0.5-0.5,0.3-0.8c-0.6-1.3-1.9-1.9-3.9-1.9C707.1,252,705.8,253.2,705.8,254.9 M701.6,252.3c-0.4,0-0.5,0.1-0.5,0.5v8.2
		c0,0.4,0.1,0.6,0.5,0.6h1c0.4,0,0.6-0.1,0.6-0.6v-8.2c0-0.4-0.1-0.5-0.6-0.5H701.6z M702,248.8c-0.8,0-1.1,0.3-1.1,1.1v0.2
		c0,0.8,0.3,1.1,1.1,1.1h0.1c0.8,0,1.1-0.3,1.1-1.1v-0.2c0-0.8-0.3-1.1-1.1-1.1H702z M691.1,254.9c0,0.9,0.3,1.6,0.8,2
		c0.2,0.2,0.5,0.4,0.8,0.5c0.7,0.3,1.2,0.3,2,0.4c1.6,0.2,2.2,0.4,2.2,1.2c0,0.7-0.6,1.1-1.9,1.1c-1.1,0-1.8-0.3-2-1
		c-0.2-0.4-0.4-0.5-0.7-0.3l-0.8,0.3c-0.4,0.1-0.5,0.4-0.4,0.8c0.6,1.5,1.9,2.2,4,2.2c2.5,0,3.9-1.2,3.9-3c0-2-1.2-2.7-3.7-2.9
		c-1.6-0.1-2.1-0.3-2.1-1.1c0-0.6,0.6-1,1.7-1c1,0,1.6,0.3,1.9,0.9c0.2,0.4,0.3,0.4,0.8,0.3l0.8-0.3c0.4-0.2,0.5-0.5,0.3-0.8
		c-0.6-1.3-1.9-1.9-3.9-1.9C692.4,252,691.1,253.2,691.1,254.9 M686.8,256h-4.2v-0.4c0-1.2,0.7-1.8,2.1-1.8c1.4,0,2.1,0.7,2.1,1.8
		V256z M680.6,258.1c0,2.4,1.3,3.9,4.1,3.9c1.9,0,3.2-0.6,3.9-1.7c0.3-0.4,0.2-0.7-0.2-0.9l-0.6-0.3c-0.4-0.2-0.6-0.2-0.9,0.2
		c-0.4,0.6-1.1,1-2.1,1c-1.3,0-2.1-0.6-2.1-1.8v-0.7h5.4c0.5,0,0.8-0.3,0.8-0.8v-1.1c0-2.2-1.4-3.7-4.2-3.7c-2.7,0-4.2,1.4-4.2,3.9
		V258.1z M670.7,248.3c-0.4,0-0.6,0.1-0.6,0.6v12.2c0,0.4,0.1,0.6,0.6,0.6h1c0.4,0,0.5-0.1,0.5-0.6v-6.9c0.4-0.2,1-0.3,1.9-0.3
		c1.3,0,2,0.6,2,1.8v5.4c0,0.4,0.1,0.6,0.6,0.6h1c0.4,0,0.6-0.1,0.6-0.6v-5.4c0-2.4-1.2-3.6-3.7-3.6c-1,0-2,0.2-2.2,0.3v-3.4
		c0-0.4-0.1-0.6-0.5-0.6H670.7z M663.9,250.2c-0.4,0-0.6,0.1-0.6,0.5v1.6h-1.2c-0.4,0-0.5,0.1-0.5,0.5v0.8c0,0.4,0.1,0.6,0.5,0.6
		h1.2v3.7c0,1.5,0.3,2.6,0.9,3.2c0.6,0.6,1.7,0.8,3.2,0.8c0.4,0,0.6-0.1,0.6-0.6v-0.8c0-0.4-0.1-0.6-0.6-0.6c-0.8,0-1.3-0.1-1.6-0.4
		c-0.3-0.3-0.4-0.8-0.4-1.7v-3.6h2.1c0.4,0,0.6-0.1,0.6-0.6v-0.8c0-0.4-0.1-0.5-0.6-0.5h-2.1v-1.6c0-0.4-0.1-0.5-0.6-0.5H663.9z
		 M652.5,252.7c-0.6,0.2-0.7,0.4-0.7,1v7.4c0,0.4,0.1,0.6,0.6,0.6h1c0.4,0,0.5-0.1,0.5-0.6v-6.7c0-0.1,0-0.1,0.1-0.2
		c0.6-0.2,1.2-0.2,1.7-0.2c1.3,0,2,0.6,2,1.8v5.4c0,0.4,0.1,0.6,0.5,0.6h1c0.4,0,0.6-0.1,0.6-0.6v-5.4c0-2.3-1.2-3.6-3.7-3.6
		C654.7,252,653.5,252.2,652.5,252.7 M647.6,252.3c-0.4,0-0.6,0.1-0.6,0.5v6.4c-0.6,0.2-1.3,0.3-1.9,0.3c-1.3,0-2-0.6-2-1.8v-4.9
		c0-0.4-0.1-0.5-0.5-0.5h-1c-0.4,0-0.6,0.1-0.6,0.5v5c0,2.3,1.2,3.6,3.8,3.6c0.7,0,1.4-0.1,2.1-0.3v0.8c0,1.3-0.6,1.9-1.9,1.9
		c-0.9,0-1.5-0.3-1.9-0.9c-0.3-0.4-0.5-0.4-0.9-0.2l-0.7,0.4c-0.4,0.2-0.5,0.5-0.2,0.9c0.7,1.2,2,1.7,3.7,1.7c2.7,0,4-1.5,4-3.9
		v-9.1c0-0.4-0.1-0.5-0.6-0.5H647.6z M631.2,254.9c0,0.9,0.3,1.6,0.8,2c0.2,0.2,0.5,0.4,0.8,0.5c0.7,0.3,1.2,0.3,2,0.4
		c1.6,0.2,2.2,0.4,2.2,1.2c0,0.7-0.6,1.1-1.9,1.1c-1.1,0-1.8-0.3-2-1c-0.2-0.4-0.4-0.5-0.7-0.3l-0.8,0.3c-0.4,0.1-0.5,0.4-0.4,0.8
		c0.6,1.5,1.9,2.2,4,2.2c2.5,0,3.9-1.2,3.9-3c0-2-1.2-2.7-3.7-2.9c-1.6-0.1-2.1-0.3-2.1-1.1c0-0.6,0.6-1,1.7-1c1,0,1.6,0.3,1.9,0.9
		c0.2,0.4,0.3,0.4,0.8,0.3l0.8-0.3c0.4-0.2,0.5-0.5,0.3-0.8c-0.6-1.3-1.9-1.9-3.9-1.9C632.5,252,631.2,253.2,631.2,254.9"/>
	<path style="clip-path:url(#SVGID_00000034057805038273048890000008817203483581632682_);fill:#575551;" d="M742,227.3
		c0.1-0.3,0.1-0.5-0.4-0.5h-1c-0.4,0-0.6,0.1-0.7,0.5l-4.8,12.9c-0.1,0.3,0,0.5,0.4,0.5h1c0.4,0,0.6-0.1,0.7-0.5L742,227.3z
		 M725.6,230.7c-0.6,0.2-0.7,0.5-0.7,1v7.4c0,0.4,0.1,0.6,0.6,0.6h1c0.4,0,0.5-0.1,0.5-0.6v-6.7c0-0.1,0-0.1,0.1-0.2
		c0.6-0.2,1.2-0.2,1.7-0.2c1.3,0,2,0.6,2,1.8v5.4c0,0.4,0.1,0.6,0.5,0.6h1c0.4,0,0.6-0.1,0.6-0.6v-5.4c0-2.3-1.2-3.6-3.7-3.6
		C727.8,230,726.6,230.2,725.6,230.7 M720.3,236.3c0,1.1-0.8,1.7-2.1,1.7c-1.3,0-2.1-0.6-2.1-1.7v-2.7c0-1.1,0.7-1.7,2.1-1.7
		c1.3,0,2.1,0.6,2.1,1.7V236.3z M714.1,236.3c0,2.2,1.5,3.6,4.1,3.6c2.7,0,4.2-1.4,4.2-3.6v-2.7c0-2.2-1.5-3.6-4.2-3.6
		c-2.6,0-4.1,1.4-4.1,3.6V236.3z M710.1,230.3c-0.4,0-0.5,0.1-0.5,0.5v8.2c0,0.4,0.1,0.6,0.5,0.6h1c0.4,0,0.6-0.1,0.6-0.6v-8.2
		c0-0.4-0.1-0.5-0.6-0.5H710.1z M710.5,226.8c-0.8,0-1.1,0.3-1.1,1.1v0.2c0,0.8,0.3,1.1,1.1,1.1h0.1c0.8,0,1.1-0.3,1.1-1.1v-0.2
		c0-0.8-0.3-1.1-1.1-1.1H710.5z M703.3,228.2c-0.4,0-0.6,0.1-0.6,0.5v1.6h-1.2c-0.4,0-0.5,0.1-0.5,0.5v0.8c0,0.4,0.1,0.6,0.5,0.6
		h1.2v3.7c0,1.5,0.3,2.6,0.9,3.2c0.6,0.6,1.7,0.8,3.2,0.8c0.4,0,0.6-0.1,0.6-0.6v-0.8c0-0.4-0.1-0.6-0.6-0.6c-0.8,0-1.3-0.1-1.6-0.4
		c-0.3-0.3-0.4-0.8-0.4-1.7v-3.6h2.1c0.4,0,0.6-0.1,0.6-0.6v-0.8c0-0.4-0.1-0.5-0.6-0.5h-2.1v-1.6c0-0.4-0.1-0.5-0.6-0.5H703.3z
		 M697.1,237.8c0,0.1-0.1,0.2-0.2,0.3c-0.4,0.1-1,0.1-1.8,0.1c-1.3,0-1.7-0.4-1.7-1.2c0-0.8,0.4-1.2,1.7-1.2c0.1,0,0.7,0,2,0.1
		V237.8z M691.7,231.9c-0.2,0.4-0.1,0.6,0.3,0.8l0.7,0.3c0.4,0.1,0.5,0.1,0.8-0.3c0.4-0.6,1-0.9,1.9-0.9c1.3,0,1.8,0.6,1.8,1.8v0.5
		c-1-0.1-1.6-0.1-1.7-0.1c-2.9,0-4.1,0.8-4.1,2.9c0,1,0.3,1.7,0.9,2.2c0.6,0.5,1.6,0.7,3.1,0.7c1.4,0,2.5-0.2,3.2-0.5
		c0.5-0.2,0.6-0.4,0.6-1v-4.7c0-2.5-1.3-3.7-3.9-3.7C693.5,230,692.3,230.7,691.7,231.9 M688.9,230c-1.4,0-2.5,0.2-3.3,0.5
		c-0.6,0.2-0.7,0.4-0.7,1v7.5c0,0.4,0.1,0.6,0.6,0.6h1c0.4,0,0.5-0.1,0.5-0.6v-6.7c0-0.1,0.1-0.2,0.2-0.2c0.5-0.1,1-0.2,1.7-0.2h0.6
		c0.4,0,0.6-0.1,0.6-0.6v-0.8c0-0.4-0.1-0.6-0.6-0.6H688.9z M680.4,234h-4.2v-0.4c0-1.2,0.7-1.8,2.1-1.8c1.4,0,2.1,0.7,2.1,1.8V234z
		 M674.2,236.1c0,2.4,1.3,3.9,4.1,3.9c1.9,0,3.2-0.6,3.9-1.7c0.3-0.4,0.2-0.7-0.2-0.9l-0.6-0.3c-0.4-0.2-0.6-0.2-0.9,0.2
		c-0.4,0.6-1.1,1-2.1,1c-1.3,0-2.1-0.6-2.1-1.8v-0.7h5.4c0.5,0,0.8-0.3,0.8-0.8v-1.1c0-2.2-1.4-3.7-4.2-3.7c-2.7,0-4.2,1.4-4.2,3.9
		V236.1z M664.5,230.7c-0.6,0.2-0.7,0.5-0.7,1v7.4c0,0.4,0.1,0.6,0.6,0.6h1c0.4,0,0.5-0.1,0.5-0.6v-6.7c0-0.1,0-0.1,0.1-0.2
		c0.6-0.2,1.2-0.2,1.7-0.2c1.3,0,2,0.6,2,1.8v5.4c0,0.4,0.1,0.6,0.5,0.6h1c0.4,0,0.6-0.1,0.6-0.6v-5.4c0-2.3-1.2-3.6-3.7-3.6
		C666.7,230,665.5,230.2,664.5,230.7 M659.4,234h-4.2v-0.4c0-1.2,0.7-1.8,2.1-1.8c1.4,0,2.1,0.7,2.1,1.8V234z M653.1,236.1
		c0,2.4,1.3,3.9,4.1,3.9c1.9,0,3.2-0.6,3.9-1.7c0.3-0.4,0.2-0.7-0.2-0.9l-0.6-0.3c-0.4-0.2-0.6-0.2-0.9,0.2c-0.4,0.6-1.1,1-2.1,1
		c-1.3,0-2.1-0.6-2.1-1.8v-0.7h5.4c0.5,0,0.8-0.3,0.8-0.8v-1.1c0-2.2-1.4-3.7-4.2-3.7c-2.7,0-4.2,1.4-4.2,3.9V236.1z M648.5,232.2
		c0.1,0.1,0.2,0.1,0.2,0.2v5c-0.7,0.2-1.3,0.3-1.9,0.3c-1.3,0-2-0.6-2-1.8v-1.9c0-1.3,0.7-1.9,2.1-1.9
		C647.5,232,648,232,648.5,232.2 M642.8,235.9c0,2.3,1.2,3.6,3.7,3.6c0.6,0,1.4-0.1,2.2-0.3v0.9c0,1.3-0.6,1.9-1.9,1.9
		c-0.9,0-1.5-0.3-1.9-0.9c-0.3-0.4-0.5-0.4-0.9-0.2l-0.7,0.4c-0.4,0.2-0.5,0.5-0.2,0.9c0.7,1.2,1.9,1.7,3.7,1.7c2.7,0,4-1.5,4-3.9
		v-8.4c0-0.6-0.1-0.7-0.7-1c-0.8-0.4-1.9-0.6-3.3-0.6c-2.7,0-4.1,1.3-4.1,3.8V235.9z M632.1,228.2c-0.4,0-0.6,0.1-0.6,0.5v1.6h-1.2
		c-0.4,0-0.5,0.1-0.5,0.5v0.8c0,0.4,0.1,0.6,0.5,0.6h1.2v3.7c0,1.5,0.3,2.6,0.9,3.2c0.6,0.6,1.7,0.8,3.2,0.8c0.4,0,0.6-0.1,0.6-0.6
		v-0.8c0-0.4-0.1-0.6-0.6-0.6c-0.8,0-1.3-0.1-1.6-0.4c-0.3-0.3-0.4-0.8-0.4-1.7v-3.6h2.1c0.4,0,0.6-0.1,0.6-0.6v-0.8
		c0-0.4-0.1-0.5-0.6-0.5h-2.1v-1.6c0-0.4-0.1-0.5-0.6-0.5H632.1z M627.2,230.3c-0.6,0-0.7,0.1-1,0.5l-1.7,2.5l-1.8-2.5
		c-0.2-0.4-0.4-0.5-1-0.5h-0.8c-0.6,0-0.7,0.2-0.4,0.6l2.8,3.9l-2.9,4.1c-0.3,0.4-0.2,0.6,0.4,0.6h0.8c0.6,0,0.7-0.1,1-0.5l1.9-2.8
		l1.9,2.8c0.3,0.4,0.4,0.5,1,0.5h0.9c0.6,0,0.7-0.2,0.4-0.6l-2.9-4.2l2.7-3.9c0.3-0.4,0.2-0.6-0.4-0.6H627.2z M616.5,234h-4.2v-0.4
		c0-1.2,0.7-1.8,2.1-1.8c1.4,0,2.1,0.7,2.1,1.8V234z M610.3,236.1c0,2.4,1.3,3.9,4.1,3.9c1.9,0,3.2-0.6,3.9-1.7
		c0.3-0.4,0.2-0.7-0.2-0.9l-0.6-0.3c-0.4-0.2-0.6-0.2-0.9,0.2c-0.4,0.6-1.1,1-2.1,1c-1.3,0-2.1-0.6-2.1-1.8v-0.7h5.4
		c0.5,0,0.8-0.3,0.8-0.8v-1.1c0-2.2-1.4-3.7-4.2-3.7c-2.7,0-4.2,1.4-4.2,3.9V236.1z M604.3,228.2c-0.4,0-0.6,0.1-0.6,0.5v1.6h-1.2
		c-0.4,0-0.5,0.1-0.5,0.5v0.8c0,0.4,0.1,0.6,0.5,0.6h1.2v3.7c0,1.5,0.3,2.6,0.9,3.2c0.6,0.6,1.7,0.8,3.2,0.8c0.4,0,0.6-0.1,0.6-0.6
		v-0.8c0-0.4-0.1-0.6-0.6-0.6c-0.8,0-1.3-0.1-1.6-0.4c-0.3-0.3-0.4-0.8-0.4-1.7v-3.6h2.1c0.4,0,0.6-0.1,0.6-0.6v-0.8
		c0-0.4-0.1-0.5-0.6-0.5h-2.1v-1.6c0-0.4-0.1-0.5-0.6-0.5H604.3z"/>
	<path style="clip-path:url(#SVGID_00000034057805038273048890000008817203483581632682_);fill:#575551;" d="M689.5,365.9
		c0.1,0.1,0.2,0.1,0.2,0.2v4.9c-0.7,0.2-1.3,0.3-1.9,0.3c-1.3,0-2-0.6-2-1.8v-1.9c0-1.3,0.7-1.9,2.1-1.9
		C688.5,365.7,689,365.8,689.5,365.9 M683.8,369.6c0,2.3,1.2,3.6,3.7,3.6c0.6,0,1.3-0.1,2.2-0.3v0.9c0,1.3-0.6,1.9-1.9,1.9
		c-0.9,0-1.5-0.3-1.9-0.9c-0.3-0.4-0.5-0.4-0.9-0.2l-0.7,0.4c-0.4,0.2-0.5,0.5-0.2,0.9c0.7,1.2,1.9,1.7,3.7,1.7c2.7,0,4-1.5,4-3.9
		v-8.4c0-0.6-0.1-0.7-0.7-1c-0.8-0.4-1.9-0.6-3.3-0.6c-2.7,0-4.1,1.3-4.1,3.8V369.6z M674,364.4c-0.6,0.2-0.7,0.5-0.7,1v7.4
		c0,0.4,0.1,0.6,0.6,0.6h1c0.4,0,0.5-0.1,0.5-0.6v-6.7c0-0.1,0-0.1,0.1-0.2c0.6-0.2,1.2-0.2,1.7-0.2c1.3,0,2,0.6,2,1.8v5.4
		c0,0.4,0.1,0.6,0.5,0.6h1c0.4,0,0.6-0.1,0.6-0.6v-5.4c0-2.3-1.2-3.6-3.7-3.6C676.2,363.8,675,364,674,364.4 M669,364.1
		c-0.4,0-0.5,0.1-0.5,0.5v8.2c0,0.4,0.1,0.6,0.5,0.6h1c0.4,0,0.6-0.1,0.6-0.6v-8.2c0-0.4-0.1-0.5-0.6-0.5H669z M669.4,360.6
		c-0.8,0-1.1,0.3-1.1,1.1v0.2c0,0.8,0.3,1.1,1.1,1.1h0.1c0.8,0,1.1-0.3,1.1-1.1v-0.2c0-0.8-0.3-1.1-1.1-1.1H669.4z M665.4,363.8
		c-1.3,0-2.5,0.2-3.3,0.5c-0.6,0.2-0.7,0.5-0.7,1v7.5c0,0.4,0.1,0.6,0.6,0.6h1c0.4,0,0.5-0.1,0.5-0.6v-6.7c0-0.1,0.1-0.2,0.2-0.2
		c0.5-0.1,1-0.2,1.7-0.2h0.6c0.4,0,0.6-0.1,0.6-0.6v-0.8c0-0.4-0.1-0.6-0.6-0.6H665.4z M656.9,367.8h-4.2v-0.4
		c0-1.2,0.7-1.8,2.1-1.8c1.4,0,2.1,0.7,2.1,1.8V367.8z M650.7,369.8c0,2.4,1.3,3.9,4.1,3.9c1.9,0,3.2-0.6,3.9-1.7
		c0.3-0.4,0.2-0.7-0.2-0.9l-0.6-0.3c-0.4-0.2-0.6-0.2-0.9,0.2c-0.4,0.6-1.1,1-2.1,1c-1.3,0-2.1-0.6-2.1-1.8v-0.7h5.4
		c0.5,0,0.8-0.3,0.8-0.8v-1.1c0-2.2-1.4-3.7-4.2-3.7c-2.7,0-4.2,1.4-4.2,3.9V369.8z M648,364.1c-0.7,0-0.9,0.1-1,0.6l-1,4
		c-0.1,0.6-0.3,1.4-0.3,1.9l0,0.3h-0.1c0-0.1-0.1-1.3-0.4-2.2l-1.2-4c-0.1-0.5-0.3-0.6-0.9-0.6h-0.4c-0.6,0-0.8,0.1-0.9,0.6
		l-1.2,3.9c-0.2,0.8-0.4,2.1-0.4,2.2h-0.1c0,0-0.2-1.5-0.3-2.2l-1-4c-0.1-0.4-0.3-0.6-1-0.6h-0.7c-0.5,0-0.6,0.1-0.5,0.6l2.4,8.2
		c0.1,0.3,0.3,0.5,0.8,0.5h0.6c0.4,0,0.7-0.2,0.8-0.5l1.3-4.6c0.1-0.5,0.3-1.2,0.3-1.6l0-0.3h0.1l0,0.3c0.1,0.4,0.1,1.1,0.3,1.6
		l1.3,4.6c0.1,0.3,0.4,0.5,0.8,0.5h0.6c0.4,0,0.7-0.2,0.8-0.5l2.4-8.2c0.1-0.5,0.1-0.6-0.5-0.6H648z M627.4,366.7
		c0,0.9,0.3,1.6,0.8,2c0.2,0.2,0.5,0.4,0.8,0.5c0.7,0.3,1.2,0.3,2,0.4c1.6,0.2,2.2,0.4,2.2,1.2c0,0.7-0.6,1.1-1.9,1.1
		c-1.1,0-1.8-0.3-2-1c-0.2-0.4-0.4-0.5-0.7-0.3l-0.8,0.3c-0.4,0.1-0.5,0.4-0.4,0.8c0.6,1.5,1.9,2.2,4,2.2c2.5,0,3.9-1.2,3.9-3
		c0-2-1.2-2.7-3.7-2.9c-1.6-0.1-2.1-0.3-2.1-1.1c0-0.6,0.6-1,1.7-1c1,0,1.6,0.3,1.9,0.9c0.2,0.4,0.3,0.4,0.8,0.3l0.8-0.3
		c0.4-0.2,0.5-0.5,0.3-0.8c-0.6-1.3-1.9-1.9-3.9-1.9C628.7,363.8,627.4,364.9,627.4,366.7 M617.5,364.4c-0.6,0.2-0.7,0.5-0.7,1v7.4
		c0,0.4,0.1,0.6,0.6,0.6h1c0.4,0,0.5-0.1,0.5-0.6v-6.7c0-0.1,0-0.1,0.1-0.2c0.6-0.2,1.2-0.2,1.7-0.2c1.3,0,2,0.6,2,1.8v5.4
		c0,0.4,0.1,0.6,0.5,0.6h1c0.4,0,0.6-0.1,0.6-0.6v-5.4c0-2.3-1.2-3.6-3.7-3.6C619.7,363.8,618.6,364,617.5,364.4 M612.1,371.5
		c0,0.1-0.1,0.2-0.2,0.3c-0.4,0.1-1,0.1-1.8,0.1c-1.3,0-1.7-0.4-1.7-1.2c0-0.8,0.4-1.2,1.7-1.2c0.1,0,0.7,0,2,0.1V371.5z
		 M606.6,365.7c-0.2,0.4-0.1,0.6,0.3,0.8l0.7,0.3c0.4,0.1,0.5,0.1,0.8-0.3c0.4-0.6,1-0.9,1.9-0.9c1.3,0,1.8,0.6,1.8,1.8v0.5
		c-1-0.1-1.6-0.1-1.7-0.1c-2.9,0-4.1,0.8-4.1,2.9c0,1,0.3,1.7,0.9,2.2c0.6,0.5,1.6,0.7,3.1,0.7c1.4,0,2.5-0.2,3.2-0.5
		c0.5-0.2,0.6-0.4,0.6-1v-4.7c0-2.5-1.3-3.7-3.9-3.7C608.5,363.8,607.3,364.4,606.6,365.7"/>
	<path style="clip-path:url(#SVGID_00000034057805038273048890000008817203483581632682_);fill:#575551;" d="M678.2,342.4
		c-0.6,0.2-0.7,0.4-0.7,1v7.4c0,0.4,0.1,0.6,0.6,0.6h1c0.4,0,0.5-0.1,0.5-0.6v-6.7c0-0.1,0-0.1,0.1-0.2c0.6-0.2,1.2-0.2,1.7-0.2
		c1.3,0,2,0.6,2,1.8v5.4c0,0.4,0.1,0.6,0.5,0.6h1c0.4,0,0.6-0.1,0.6-0.6v-5.4c0-2.3-1.2-3.6-3.7-3.6
		C680.4,341.8,679.2,342,678.2,342.4 M672.9,348.1c0,1.1-0.8,1.7-2.1,1.7c-1.3,0-2.1-0.6-2.1-1.7v-2.7c0-1.1,0.7-1.7,2.1-1.7
		c1.3,0,2.1,0.6,2.1,1.7V348.1z M666.7,348.1c0,2.2,1.5,3.6,4.1,3.6c2.7,0,4.2-1.4,4.2-3.6v-2.7c0-2.2-1.5-3.6-4.2-3.6
		c-2.6,0-4.1,1.4-4.1,3.6V348.1z M662.7,342.1c-0.4,0-0.5,0.1-0.5,0.5v8.2c0,0.4,0.1,0.6,0.5,0.6h1c0.4,0,0.6-0.1,0.6-0.6v-8.2
		c0-0.4-0.1-0.5-0.6-0.5H662.7z M663.1,338.6c-0.8,0-1.1,0.3-1.1,1.1v0.2c0,0.8,0.3,1.1,1.1,1.1h0.1c0.8,0,1.1-0.3,1.1-1.1v-0.2
		c0-0.8-0.3-1.1-1.1-1.1H663.1z M655.9,339.9c-0.4,0-0.6,0.1-0.6,0.5v1.6h-1.2c-0.4,0-0.5,0.1-0.5,0.5v0.8c0,0.4,0.1,0.6,0.5,0.6
		h1.2v3.7c0,1.5,0.3,2.6,0.9,3.2c0.6,0.6,1.7,0.8,3.2,0.8c0.4,0,0.6-0.1,0.6-0.6v-0.8c0-0.4-0.1-0.6-0.6-0.6c-0.8,0-1.3-0.1-1.6-0.4
		c-0.3-0.3-0.4-0.8-0.4-1.7V344h2.1c0.4,0,0.6-0.1,0.6-0.6v-0.8c0-0.4-0.1-0.5-0.6-0.5h-2.1v-1.6c0-0.4-0.1-0.5-0.6-0.5H655.9z
		 M644.5,344.7c0,0.9,0.3,1.6,0.8,2c0.2,0.2,0.5,0.4,0.8,0.5c0.7,0.3,1.2,0.3,2,0.4c1.6,0.2,2.2,0.4,2.2,1.2c0,0.7-0.6,1.1-1.9,1.1
		c-1.1,0-1.8-0.3-2-1c-0.2-0.4-0.4-0.5-0.7-0.3l-0.8,0.3c-0.4,0.1-0.5,0.4-0.4,0.8c0.6,1.5,1.9,2.2,4,2.2c2.5,0,3.9-1.2,3.9-3
		c0-2-1.2-2.7-3.7-2.9c-1.6-0.1-2.1-0.3-2.1-1.1c0-0.6,0.6-1,1.7-1c1,0,1.6,0.3,1.9,0.9c0.2,0.4,0.3,0.4,0.8,0.3l0.8-0.3
		c0.4-0.2,0.5-0.5,0.3-0.8c-0.6-1.3-1.9-1.9-3.9-1.9C645.7,341.8,644.5,342.9,644.5,344.7 M640.1,345.8H636v-0.4
		c0-1.2,0.7-1.8,2.1-1.8c1.4,0,2.1,0.7,2.1,1.8V345.8z M633.9,347.8c0,2.4,1.3,3.9,4.1,3.9c1.9,0,3.2-0.6,3.9-1.7
		c0.3-0.4,0.2-0.7-0.2-0.9l-0.6-0.3c-0.4-0.2-0.6-0.2-0.9,0.2c-0.4,0.6-1.1,1-2.1,1c-1.3,0-2.1-0.6-2.1-1.8v-0.7h5.4
		c0.5,0,0.8-0.3,0.8-0.8v-1.1c0-2.2-1.4-3.7-4.2-3.7c-2.7,0-4.2,1.4-4.2,3.9V347.8z M629.9,342.1c-0.4,0-0.6,0.1-0.6,0.5v6.6
		c0,0.2-0.1,0.3-0.2,0.3c-0.5,0.1-1,0.2-1.7,0.2c-1.3,0-2-0.6-2-1.8v-5.4c0-0.4-0.1-0.5-0.5-0.5h-1c-0.4,0-0.6,0.1-0.6,0.5v5.4
		c0,2.3,1.2,3.6,3.8,3.6c1.3,0,2.5-0.2,3.5-0.6c0.6-0.2,0.7-0.4,0.7-1v-7.4c0-0.4-0.1-0.5-0.6-0.5H629.9z M614.9,345.7
		c0-1.3,0.7-1.9,2.1-1.9c0.5,0,1,0.1,1.5,0.2c0.1,0.1,0.2,0.1,0.2,0.2v5.3c-0.7,0.2-1.4,0.3-1.9,0.3c-1.3,0-2-0.6-2-1.8V345.7z
		 M616.9,341.8c-2.7,0-4.1,1.3-4.1,3.8v2.5c0,2.3,1.2,3.6,3.7,3.6c0.6,0,1.3-0.1,2.2-0.3v3.5c0,0.4,0.1,0.6,0.5,0.6h1
		c0.4,0,0.6-0.1,0.6-0.6v-11.4c0-0.6-0.1-0.7-0.7-1C619.3,342,618.2,341.8,616.9,341.8"/>
	<path style="clip-path:url(#SVGID_00000034057805038273048890000008817203483581632682_);fill:#575551;" d="M650.5,467
		c-0.6,0.2-0.7,0.5-0.7,1v7.4c0,0.4,0.1,0.6,0.6,0.6h1c0.4,0,0.5-0.1,0.5-0.6v-6.7c0-0.1,0-0.1,0.1-0.2c0.6-0.2,1.2-0.2,1.7-0.2
		c1.3,0,2,0.6,2,1.8v5.4c0,0.4,0.1,0.6,0.5,0.6h1c0.4,0,0.6-0.1,0.6-0.6V470c0-2.3-1.2-3.6-3.7-3.6
		C652.7,466.4,651.5,466.6,650.5,467 M645.2,472.6c0,1.1-0.8,1.7-2.1,1.7c-1.3,0-2.1-0.6-2.1-1.7V470c0-1.1,0.7-1.7,2.1-1.7
		c1.3,0,2.1,0.6,2.1,1.7V472.6z M639,472.6c0,2.2,1.5,3.6,4.1,3.6c2.7,0,4.2-1.4,4.2-3.6V470c0-2.2-1.5-3.6-4.2-3.6
		c-2.6,0-4.1,1.4-4.1,3.6V472.6z M635,466.7c-0.4,0-0.5,0.1-0.5,0.5v8.2c0,0.4,0.1,0.6,0.5,0.6h1c0.4,0,0.6-0.1,0.6-0.6v-8.2
		c0-0.4-0.1-0.5-0.6-0.5H635z M635.4,463.2c-0.8,0-1.1,0.3-1.1,1.1v0.2c0,0.8,0.3,1.1,1.1,1.1h0.1c0.8,0,1.1-0.3,1.1-1.1v-0.2
		c0-0.8-0.3-1.1-1.1-1.1H635.4z M628.2,464.5c-0.4,0-0.6,0.1-0.6,0.5v1.6h-1.2c-0.4,0-0.5,0.1-0.5,0.5v0.8c0,0.4,0.1,0.6,0.5,0.6
		h1.2v3.7c0,1.5,0.3,2.6,0.9,3.2c0.6,0.6,1.7,0.8,3.2,0.8c0.4,0,0.6-0.1,0.6-0.6v-0.8c0-0.4-0.1-0.6-0.6-0.6c-0.8,0-1.3-0.1-1.6-0.4
		c-0.3-0.3-0.4-0.8-0.4-1.7v-3.6h2.1c0.4,0,0.6-0.1,0.6-0.6v-0.8c0-0.4-0.1-0.5-0.6-0.5h-2.1V465c0-0.4-0.1-0.5-0.6-0.5H628.2z
		 M622.1,474.1c0,0.1-0.1,0.2-0.2,0.3c-0.4,0.1-1,0.1-1.8,0.1c-1.3,0-1.7-0.4-1.7-1.2c0-0.8,0.4-1.2,1.7-1.2c0.1,0,0.7,0,2,0.1
		V474.1z M616.6,468.3c-0.2,0.4-0.1,0.6,0.3,0.8l0.7,0.3c0.4,0.1,0.5,0.1,0.8-0.3c0.4-0.6,1-0.9,1.9-0.9c1.3,0,1.8,0.6,1.8,1.8v0.5
		c-1-0.1-1.6-0.1-1.7-0.1c-2.9,0-4.1,0.8-4.1,2.9c0,1,0.3,1.7,0.9,2.2c0.6,0.5,1.6,0.7,3.1,0.7c1.4,0,2.5-0.2,3.2-0.5
		c0.5-0.2,0.6-0.4,0.6-1v-4.7c0-2.5-1.3-3.7-3.9-3.7C618.5,466.4,617.2,467,616.6,468.3 M613.9,463.2c0-0.4-0.1-0.6-0.6-0.6h-1
		c-0.4,0-0.6,0.1-0.6,0.6v12.2c0,0.4,0.1,0.6,0.6,0.6h1c0.4,0,0.6-0.1,0.6-0.6V463.2z M601.8,469.3c0,0.9,0.3,1.6,0.8,2
		c0.2,0.2,0.5,0.4,0.8,0.5c0.7,0.3,1.2,0.3,2,0.4c1.6,0.2,2.2,0.4,2.2,1.2c0,0.7-0.6,1.1-1.9,1.1c-1.1,0-1.8-0.3-2-1
		c-0.2-0.4-0.4-0.5-0.7-0.3l-0.8,0.3c-0.4,0.1-0.5,0.4-0.4,0.8c0.6,1.5,1.9,2.2,4,2.2c2.5,0,3.9-1.2,3.9-3c0-2-1.2-2.7-3.7-2.9
		c-1.6-0.1-2.1-0.3-2.1-1.1c0-0.6,0.6-1,1.7-1c1,0,1.6,0.3,1.9,0.9c0.2,0.4,0.3,0.4,0.8,0.3l0.8-0.3c0.4-0.2,0.5-0.4,0.3-0.8
		c-0.6-1.3-1.9-1.9-3.9-1.9C603.1,466.4,601.8,467.5,601.8,469.3 M591.9,467c-0.6,0.2-0.7,0.5-0.7,1v7.4c0,0.4,0.1,0.6,0.6,0.6h1
		c0.4,0,0.5-0.1,0.5-0.6v-6.7c0-0.1,0-0.1,0.1-0.2c0.6-0.2,1.2-0.2,1.7-0.2c1.3,0,2,0.6,2,1.8v5.4c0,0.4,0.1,0.6,0.5,0.6h1
		c0.4,0,0.6-0.1,0.6-0.6V470c0-2.3-1.2-3.6-3.7-3.6C594.1,466.4,593,466.6,591.9,467 M586.5,474.1c0,0.1-0.1,0.2-0.2,0.3
		c-0.4,0.1-1,0.1-1.8,0.1c-1.3,0-1.7-0.4-1.7-1.2c0-0.8,0.4-1.2,1.7-1.2c0.1,0,0.7,0,2,0.1V474.1z M581.1,468.3
		c-0.2,0.4-0.1,0.6,0.3,0.8l0.7,0.3c0.4,0.1,0.5,0.1,0.8-0.3c0.4-0.6,1-0.9,1.9-0.9c1.3,0,1.8,0.6,1.8,1.8v0.5
		c-1-0.1-1.6-0.1-1.7-0.1c-2.9,0-4.1,0.8-4.1,2.9c0,1,0.3,1.7,0.9,2.2c0.6,0.5,1.6,0.7,3.2,0.7c1.4,0,2.5-0.2,3.2-0.5
		c0.5-0.2,0.6-0.4,0.6-1v-4.7c0-2.5-1.3-3.7-3.9-3.7C582.9,466.4,581.7,467,581.1,468.3 M578.3,466.4c-1.3,0-2.5,0.2-3.3,0.5
		c-0.6,0.2-0.7,0.4-0.7,1v7.5c0,0.4,0.1,0.6,0.6,0.6h1c0.4,0,0.5-0.1,0.5-0.6v-6.7c0-0.1,0.1-0.2,0.2-0.2c0.5-0.1,1-0.2,1.7-0.2h0.6
		c0.4,0,0.6-0.1,0.6-0.6v-0.8c0-0.4-0.1-0.6-0.6-0.6H578.3z M568,464.5c-0.4,0-0.6,0.1-0.6,0.5v1.6h-1.2c-0.4,0-0.5,0.1-0.5,0.5v0.8
		c0,0.4,0.1,0.6,0.5,0.6h1.2v3.7c0,1.5,0.3,2.6,0.9,3.2c0.6,0.6,1.7,0.8,3.2,0.8c0.4,0,0.6-0.1,0.6-0.6v-0.8c0-0.4-0.1-0.6-0.6-0.6
		c-0.8,0-1.3-0.1-1.6-0.4c-0.3-0.3-0.4-0.8-0.4-1.7v-3.6h2.1c0.4,0,0.6-0.1,0.6-0.6v-0.8c0-0.4-0.1-0.5-0.6-0.5h-2.1V465
		c0-0.4-0.1-0.5-0.6-0.5H568z"/>
	<path style="clip-path:url(#SVGID_00000034057805038273048890000008817203483581632682_);fill:#575551;" d="M645.2,448.4h-4.2V448
		c0-1.2,0.7-1.8,2.1-1.8c1.4,0,2.1,0.7,2.1,1.8V448.4z M639,450.4c0,2.4,1.3,3.9,4.1,3.9c1.9,0,3.2-0.6,3.9-1.7
		c0.3-0.4,0.2-0.7-0.2-0.9l-0.6-0.3c-0.4-0.2-0.6-0.2-0.9,0.2c-0.4,0.6-1.1,1-2.1,1c-1.3,0-2.1-0.6-2.1-1.8V450h5.4
		c0.5,0,0.8-0.3,0.8-0.8v-1.1c0-2.2-1.4-3.7-4.2-3.7c-2.7,0-4.2,1.4-4.2,3.9V450.4z M629.3,445c-0.6,0.2-0.7,0.5-0.7,1v7.4
		c0,0.4,0.1,0.6,0.6,0.6h1c0.4,0,0.5-0.1,0.5-0.6v-6.7c0-0.1,0-0.1,0.1-0.2c0.6-0.2,1.2-0.2,1.7-0.2c1.3,0,2,0.6,2,1.8v5.4
		c0,0.4,0.1,0.6,0.5,0.6h1c0.4,0,0.6-0.1,0.6-0.6V448c0-2.3-1.2-3.6-3.7-3.6C631.5,444.4,630.3,444.6,629.3,445 M624.3,444.7
		c-0.4,0-0.5,0.1-0.5,0.5v8.2c0,0.4,0.1,0.6,0.5,0.6h1c0.4,0,0.6-0.1,0.6-0.6v-8.2c0-0.4-0.1-0.5-0.6-0.5H624.3z M624.7,441.2
		c-0.8,0-1.1,0.3-1.1,1.1v0.2c0,0.8,0.3,1.1,1.1,1.1h0.1c0.8,0,1.1-0.3,1.1-1.1v-0.2c0-0.8-0.3-1.1-1.1-1.1H624.7z M613.6,440.7
		c-0.4,0-0.6,0.1-0.6,0.6v12.2c0,0.4,0.1,0.6,0.6,0.6h1c0.4,0,0.5-0.1,0.5-0.6v-6.9c0.4-0.2,1-0.3,1.9-0.3c1.3,0,2,0.6,2,1.8v5.4
		c0,0.4,0.1,0.6,0.6,0.6h1c0.4,0,0.6-0.1,0.6-0.6V448c0-2.4-1.2-3.6-3.7-3.6c-1,0-2,0.2-2.2,0.3v-3.4c0-0.4-0.1-0.6-0.5-0.6H613.6z
		 M602.7,450.6c0,2.4,1.3,3.7,4,3.7c2.1,0,3.4-0.8,4-2.4c0.2-0.4,0-0.6-0.4-0.8l-0.8-0.2c-0.4-0.1-0.6-0.1-0.8,0.4
		c-0.3,0.8-1,1.2-2,1.2c-1.3,0-2-0.6-2-1.8V448c0-1.2,0.6-1.8,2-1.8c1,0,1.7,0.4,2,1.2c0.2,0.4,0.4,0.5,0.8,0.4l0.8-0.3
		c0.4-0.2,0.5-0.4,0.4-0.8c-0.5-1.4-1.8-2.4-3.9-2.4c-2.8,0-4.1,1.3-4.1,3.7V450.6z M598.3,452.1c0,0.1-0.1,0.2-0.2,0.3
		c-0.4,0.1-1,0.1-1.8,0.1c-1.3,0-1.7-0.4-1.7-1.2c0-0.8,0.4-1.2,1.7-1.2c0.1,0,0.7,0,2,0.1V452.1z M592.8,446.3
		c-0.2,0.4-0.1,0.6,0.3,0.8l0.7,0.3c0.4,0.1,0.5,0.1,0.8-0.3c0.4-0.6,1-0.9,1.9-0.9c1.3,0,1.8,0.6,1.8,1.8v0.5
		c-1-0.1-1.6-0.1-1.7-0.1c-2.9,0-4.1,0.8-4.1,2.9c0,1,0.3,1.7,0.9,2.2c0.6,0.5,1.6,0.7,3.1,0.7c1.4,0,2.5-0.2,3.2-0.5
		c0.5-0.2,0.6-0.4,0.6-1v-4.7c0-2.5-1.3-3.7-3.9-3.7C594.7,444.4,593.5,445,592.8,446.3 M583.5,445c-0.5-0.4-1.3-0.6-2.2-0.6
		c-1.2,0-2.3,0.2-3.3,0.6c-0.6,0.2-0.7,0.5-0.7,1v7.4c0,0.4,0.1,0.6,0.6,0.6h1c0.4,0,0.5-0.1,0.5-0.6v-6.7c0-0.1,0.1-0.2,0.1-0.2
		c0.5-0.1,0.9-0.2,1.4-0.2c1.2,0,1.8,0.6,1.8,1.7v5.4c0,0.4,0.1,0.6,0.6,0.6h1c0.4,0,0.6-0.1,0.6-0.6V448c0-0.6-0.1-1-0.2-1.4
		c0.6-0.2,1.2-0.3,1.7-0.3c1.2,0,1.7,0.6,1.7,1.7v5.4c0,0.4,0.1,0.6,0.6,0.6h1c0.4,0,0.5-0.1,0.5-0.6V448c0-2.4-1.2-3.6-3.5-3.6
		C585.6,444.4,584.5,444.6,583.5,445"/>
	<path style="clip-path:url(#SVGID_00000034057805038273048890000008817203483581632682_);fill:#575551;" d="M550.7,548.7
		c-0.6,0.2-0.7,0.5-0.7,1v7.4c0,0.4,0.1,0.6,0.6,0.6h1c0.4,0,0.5-0.1,0.5-0.6v-6.7c0-0.1,0-0.1,0.1-0.2c0.6-0.2,1.2-0.2,1.7-0.2
		c1.3,0,2,0.6,2,1.8v5.4c0,0.4,0.1,0.6,0.5,0.6h1c0.4,0,0.6-0.1,0.6-0.6v-5.4c0-2.3-1.2-3.6-3.7-3.6
		C552.9,548,551.8,548.2,550.7,548.7 M545.5,554.3c0,1.1-0.8,1.7-2.1,1.7c-1.3,0-2.1-0.6-2.1-1.7v-2.7c0-1.1,0.7-1.7,2.1-1.7
		c1.3,0,2.1,0.6,2.1,1.7V554.3z M539.3,554.3c0,2.2,1.5,3.6,4.1,3.6c2.7,0,4.2-1.3,4.2-3.6v-2.7c0-2.2-1.5-3.6-4.2-3.6
		c-2.6,0-4.1,1.4-4.1,3.6V554.3z M535.2,548.3c-0.4,0-0.5,0.1-0.5,0.5v8.2c0,0.4,0.1,0.6,0.5,0.6h1c0.4,0,0.6-0.1,0.6-0.6v-8.2
		c0-0.4-0.1-0.5-0.6-0.5H535.2z M535.7,544.8c-0.8,0-1.1,0.3-1.1,1.1v0.2c0,0.8,0.3,1.1,1.1,1.1h0.1c0.8,0,1.1-0.3,1.1-1.1v-0.2
		c0-0.8-0.3-1.1-1.1-1.1H535.7z M528.4,546.2c-0.4,0-0.6,0.1-0.6,0.5v1.6h-1.2c-0.4,0-0.5,0.1-0.5,0.5v0.8c0,0.4,0.1,0.6,0.5,0.6
		h1.2v3.7c0,1.5,0.3,2.6,0.9,3.2c0.6,0.6,1.7,0.8,3.2,0.8c0.4,0,0.6-0.1,0.6-0.6v-0.8c0-0.4-0.1-0.6-0.6-0.6c-0.8,0-1.3-0.1-1.6-0.4
		c-0.3-0.3-0.4-0.8-0.4-1.7v-3.6h2.1c0.4,0,0.6-0.1,0.6-0.6v-0.8c0-0.4-0.1-0.5-0.6-0.5H530v-1.6c0-0.4-0.1-0.5-0.6-0.5H528.4z
		 M522.6,548.3c-0.4,0-0.5,0.1-0.5,0.5v8.2c0,0.4,0.1,0.6,0.5,0.6h1c0.4,0,0.6-0.1,0.6-0.6v-8.2c0-0.4-0.1-0.5-0.6-0.5H522.6z
		 M523.1,544.8c-0.8,0-1.1,0.3-1.1,1.1v0.2c0,0.8,0.3,1.1,1.1,1.1h0.1c0.8,0,1.1-0.3,1.1-1.1v-0.2c0-0.8-0.3-1.1-1.1-1.1H523.1z
		 M512.1,548.7c-0.6,0.2-0.7,0.5-0.7,1v7.4c0,0.4,0.1,0.6,0.6,0.6h1c0.4,0,0.5-0.1,0.5-0.6v-6.7c0-0.1,0-0.1,0.1-0.2
		c0.6-0.2,1.2-0.2,1.7-0.2c1.3,0,2,0.6,2,1.8v5.4c0,0.4,0.1,0.6,0.5,0.6h1c0.4,0,0.6-0.1,0.6-0.6v-5.4c0-2.3-1.2-3.6-3.7-3.6
		C514.3,548,513.1,548.2,512.1,548.7 M506.5,550.2c0.1,0.1,0.2,0.1,0.2,0.2v5c-0.7,0.2-1.3,0.3-1.9,0.3c-1.3,0-2-0.6-2-1.8v-1.9
		c0-1.3,0.7-1.9,2.1-1.9C505.5,550,506,550,506.5,550.2 M500.8,553.9c0,2.3,1.2,3.6,3.7,3.6c0.6,0,1.4-0.1,2.2-0.3v0.9
		c0,1.3-0.6,1.9-1.9,1.9c-0.9,0-1.5-0.3-1.9-0.9c-0.3-0.4-0.5-0.4-0.9-0.2l-0.7,0.4c-0.4,0.2-0.5,0.5-0.2,0.9
		c0.7,1.2,1.9,1.7,3.7,1.7c2.7,0,4-1.5,4-3.9v-8.4c0-0.6-0.1-0.7-0.7-1c-0.8-0.4-1.9-0.6-3.3-0.6c-2.7,0-4.1,1.3-4.1,3.8V553.9z
		 M496.4,554.3c0,1.1-0.8,1.7-2.1,1.7s-2.1-0.6-2.1-1.7v-2.7c0-1.1,0.7-1.7,2.1-1.7s2.1,0.6,2.1,1.7V554.3z M490.2,554.3
		c0,2.2,1.5,3.6,4.1,3.6c2.7,0,4.2-1.3,4.2-3.6v-2.7c0-2.2-1.5-3.6-4.2-3.6c-2.6,0-4.1,1.4-4.1,3.6V554.3z M480.1,554.2
		c0,2.4,1.3,3.7,4,3.7c2.1,0,3.4-0.8,4-2.4c0.2-0.4,0-0.6-0.4-0.8l-0.8-0.2c-0.4-0.1-0.6-0.1-0.8,0.4c-0.3,0.8-1,1.2-2,1.2
		c-1.3,0-2-0.6-2-1.8v-2.7c0-1.2,0.6-1.8,2-1.8c1,0,1.7,0.4,2,1.2c0.2,0.4,0.4,0.5,0.8,0.4l0.8-0.3c0.4-0.2,0.5-0.4,0.4-0.8
		c-0.5-1.4-1.8-2.4-3.9-2.4c-2.8,0-4.1,1.3-4.1,3.7V554.2z M476,552h-4.2v-0.4c0-1.2,0.7-1.8,2.1-1.8c1.4,0,2.1,0.7,2.1,1.8V552z
		 M469.7,554.1c0,2.4,1.3,3.9,4.1,3.9c1.9,0,3.2-0.6,3.9-1.7c0.3-0.4,0.2-0.7-0.2-0.9l-0.6-0.3c-0.4-0.2-0.6-0.2-0.9,0.2
		c-0.4,0.6-1.1,1-2.1,1c-1.3,0-2.1-0.6-2.1-1.8v-0.7h5.4c0.5,0,0.8-0.3,0.8-0.8v-1.1c0-2.2-1.4-3.7-4.2-3.7c-2.7,0-4.2,1.4-4.2,3.9
		V554.1z M467.2,548c-1.4,0-2.5,0.2-3.3,0.5c-0.6,0.2-0.7,0.5-0.7,1v7.5c0,0.4,0.1,0.6,0.6,0.6h1c0.4,0,0.5-0.1,0.5-0.6v-6.7
		c0-0.1,0.1-0.2,0.2-0.2c0.5-0.1,1-0.2,1.7-0.2h0.6c0.4,0,0.6-0.1,0.6-0.6v-0.8c0-0.4-0.1-0.6-0.6-0.6H467.2z"/>
	<path style="clip-path:url(#SVGID_00000034057805038273048890000008817203483581632682_);fill:#575551;" d="M531.7,524.2
		c-0.4,0-0.6,0.1-0.6,0.5v1.6h-1.2c-0.4,0-0.5,0.1-0.5,0.5v0.8c0,0.4,0.1,0.6,0.5,0.6h1.2v3.7c0,1.5,0.3,2.6,0.9,3.2
		c0.6,0.6,1.7,0.8,3.2,0.8c0.4,0,0.6-0.1,0.6-0.6v-0.8c0-0.4-0.1-0.6-0.6-0.6c-0.8,0-1.3-0.1-1.6-0.4c-0.3-0.3-0.4-0.8-0.4-1.7v-3.6
		h2.1c0.4,0,0.6-0.1,0.6-0.6v-0.8c0-0.4-0.1-0.5-0.6-0.5h-2.1v-1.6c0-0.4-0.1-0.5-0.6-0.5H531.7z M520.3,526.7
		c-0.6,0.2-0.7,0.4-0.7,1v7.4c0,0.4,0.1,0.6,0.6,0.6h1c0.4,0,0.5-0.1,0.5-0.6v-6.7c0-0.1,0-0.1,0.1-0.2c0.6-0.2,1.2-0.2,1.7-0.2
		c1.3,0,2,0.6,2,1.8v5.4c0,0.4,0.1,0.6,0.5,0.6h1c0.4,0,0.6-0.1,0.6-0.6v-5.4c0-2.3-1.2-3.6-3.7-3.6
		C522.5,526,521.3,526.2,520.3,526.7 M515.2,530H511v-0.4c0-1.2,0.7-1.8,2.1-1.8c1.4,0,2.1,0.7,2.1,1.8V530z M508.9,532.1
		c0,2.4,1.3,3.9,4.1,3.9c1.9,0,3.2-0.6,3.9-1.7c0.3-0.4,0.2-0.7-0.2-0.9l-0.6-0.3c-0.4-0.2-0.6-0.2-0.9,0.2c-0.4,0.6-1.1,1-2.1,1
		c-1.3,0-2.1-0.6-2.1-1.8v-0.7h5.4c0.5,0,0.8-0.3,0.8-0.8v-1.1c0-2.2-1.4-3.7-4.2-3.7c-2.7,0-4.2,1.4-4.2,3.9V532.1z M503,524.2
		c-0.4,0-0.6,0.1-0.6,0.5v1.6h-1.2c-0.4,0-0.5,0.1-0.5,0.5v0.8c0,0.4,0.1,0.6,0.5,0.6h1.2v3.7c0,1.5,0.3,2.6,0.9,3.2
		c0.6,0.6,1.7,0.8,3.2,0.8c0.4,0,0.6-0.1,0.6-0.6v-0.8c0-0.4-0.1-0.6-0.6-0.6c-0.8,0-1.3-0.1-1.6-0.4c-0.3-0.3-0.4-0.8-0.4-1.7v-3.6
		h2.1c0.4,0,0.6-0.1,0.6-0.6v-0.8c0-0.4-0.1-0.5-0.6-0.5h-2.1v-1.6c0-0.4-0.1-0.5-0.6-0.5H503z M491.6,526.7c-0.6,0.2-0.7,0.4-0.7,1
		v7.4c0,0.4,0.1,0.6,0.6,0.6h1c0.4,0,0.5-0.1,0.5-0.6v-6.7c0-0.1,0-0.1,0.1-0.2c0.6-0.2,1.2-0.2,1.7-0.2c1.3,0,2,0.6,2,1.8v5.4
		c0,0.4,0.1,0.6,0.5,0.6h1c0.4,0,0.6-0.1,0.6-0.6v-5.4c0-2.3-1.2-3.6-3.7-3.6C493.8,526,492.6,526.2,491.6,526.7 M486.6,526.3
		c-0.4,0-0.5,0.1-0.5,0.5v8.2c0,0.4,0.1,0.6,0.5,0.6h1c0.4,0,0.6-0.1,0.6-0.6v-8.2c0-0.4-0.1-0.5-0.6-0.5H486.6z M487,522.8
		c-0.8,0-1.1,0.3-1.1,1.1v0.2c0,0.8,0.3,1.1,1.1,1.1h0.1c0.8,0,1.1-0.3,1.1-1.1v-0.2c0-0.8-0.3-1.1-1.1-1.1H487z"/>
	<path style="clip-path:url(#SVGID_00000034057805038273048890000008817203483581632682_);fill:#575551;" d="M383.1,597.4
		c0.1,0.1,0.2,0.1,0.2,0.2v4.9c-0.7,0.2-1.3,0.3-1.9,0.3c-1.3,0-2-0.6-2-1.8v-1.9c0-1.3,0.7-1.9,2.1-1.9
		C382.1,597.2,382.6,597.3,383.1,597.4 M377.4,601.1c0,2.3,1.2,3.6,3.7,3.6c0.6,0,1.4-0.1,2.2-0.3v0.9c0,1.3-0.6,1.9-1.9,1.9
		c-0.9,0-1.5-0.3-1.9-0.9c-0.3-0.4-0.5-0.4-0.9-0.2l-0.7,0.4c-0.4,0.2-0.5,0.5-0.2,0.9c0.7,1.2,1.9,1.7,3.7,1.7c2.7,0,4-1.5,4-3.9
		v-8.4c0-0.6-0.1-0.7-0.7-1c-0.8-0.4-1.9-0.6-3.3-0.6c-2.7,0-4.1,1.3-4.1,3.8V601.1z M367.6,595.9c-0.6,0.2-0.7,0.5-0.7,1v7.4
		c0,0.4,0.1,0.6,0.6,0.6h1c0.4,0,0.5-0.1,0.5-0.6v-6.7c0-0.1,0-0.1,0.1-0.2c0.6-0.2,1.2-0.2,1.7-0.2c1.3,0,2,0.6,2,1.8v5.4
		c0,0.4,0.1,0.6,0.5,0.6h1c0.4,0,0.6-0.1,0.6-0.6v-5.4c0-2.3-1.2-3.6-3.7-3.6C369.8,595.3,368.6,595.5,367.6,595.9 M362.6,595.6
		c-0.4,0-0.5,0.1-0.5,0.5v8.2c0,0.4,0.1,0.6,0.5,0.6h1c0.4,0,0.6-0.1,0.6-0.6v-8.2c0-0.4-0.1-0.5-0.6-0.5H362.6z M363,592.1
		c-0.8,0-1.1,0.3-1.1,1.1v0.2c0,0.8,0.3,1.1,1.1,1.1h0.1c0.8,0,1.1-0.3,1.1-1.1v-0.2c0-0.8-0.3-1.1-1.1-1.1H363z M352.1,595.9
		c-0.6,0.2-0.7,0.5-0.7,1v7.4c0,0.4,0.1,0.6,0.6,0.6h1c0.4,0,0.5-0.1,0.5-0.6v-6.7c0-0.1,0-0.1,0.1-0.2c0.6-0.2,1.2-0.2,1.7-0.2
		c1.3,0,2,0.6,2,1.8v5.4c0,0.4,0.1,0.6,0.5,0.6h1c0.4,0,0.6-0.1,0.6-0.6v-5.4c0-2.3-1.2-3.6-3.7-3.6
		C354.2,595.3,353.1,595.5,352.1,595.9 M348.4,595.3c-1.3,0-2.5,0.2-3.3,0.5c-0.6,0.2-0.7,0.5-0.7,1v7.5c0,0.4,0.1,0.6,0.6,0.6h1
		c0.4,0,0.5-0.1,0.5-0.6v-6.7c0-0.1,0.1-0.2,0.2-0.2c0.5-0.1,1-0.2,1.7-0.2h0.6c0.4,0,0.6-0.1,0.6-0.6v-0.8c0-0.4-0.1-0.6-0.6-0.6
		H348.4z M339.6,603c0,0.1-0.1,0.2-0.2,0.3c-0.4,0.1-1,0.1-1.8,0.1c-1.3,0-1.7-0.4-1.7-1.2c0-0.8,0.4-1.2,1.7-1.2c0.1,0,0.7,0,2,0.1
		V603z M334.2,597.2c-0.2,0.4-0.1,0.6,0.3,0.8l0.7,0.3c0.4,0.1,0.5,0.1,0.8-0.3c0.4-0.6,1-0.9,1.9-0.9c1.3,0,1.8,0.6,1.8,1.8v0.5
		c-1-0.1-1.6-0.1-1.7-0.1c-2.9,0-4.1,0.8-4.1,2.9c0,1,0.3,1.7,0.9,2.2c0.6,0.5,1.6,0.7,3.1,0.7c1.4,0,2.5-0.2,3.2-0.5
		c0.5-0.2,0.6-0.4,0.6-1V599c0-2.5-1.3-3.7-3.9-3.7C336,595.3,334.8,595.9,334.2,597.2 M329.9,599.3h-4.2v-0.4
		c0-1.2,0.7-1.8,2.1-1.8c1.4,0,2.1,0.7,2.1,1.8V599.3z M323.6,601.3c0,2.4,1.3,3.9,4.1,3.9c1.9,0,3.2-0.6,3.9-1.7
		c0.3-0.4,0.2-0.7-0.2-0.9l-0.6-0.3c-0.4-0.2-0.6-0.2-0.9,0.2c-0.4,0.6-1.1,1-2.1,1c-1.3,0-2.1-0.6-2.1-1.8v-0.7h5.4
		c0.5,0,0.8-0.3,0.8-0.8V599c0-2.2-1.4-3.7-4.2-3.7c-2.7,0-4.2,1.4-4.2,3.9V601.3z M321.1,592.1c0-0.4-0.1-0.6-0.6-0.6h-1
		c-0.4,0-0.6,0.1-0.6,0.6v12.2c0,0.4,0.1,0.6,0.6,0.6h1c0.4,0,0.6-0.1,0.6-0.6V592.1z"/>
	<path style="clip-path:url(#SVGID_00000034057805038273048890000008817203483581632682_);fill:#575551;" d="M385.2,577.3H381v-0.4
		c0-1.2,0.7-1.8,2.1-1.8c1.4,0,2.1,0.7,2.1,1.8V577.3z M379,579.3c0,2.4,1.3,3.9,4.1,3.9c1.9,0,3.2-0.6,3.9-1.7
		c0.3-0.4,0.2-0.7-0.2-0.9l-0.6-0.3c-0.4-0.2-0.6-0.2-0.9,0.2c-0.4,0.6-1.1,1-2.1,1c-1.3,0-2.1-0.6-2.1-1.8v-0.7h5.4
		c0.5,0,0.8-0.3,0.8-0.8V577c0-2.2-1.4-3.7-4.2-3.7c-2.7,0-4.2,1.4-4.2,3.9V579.3z M369.3,573.9c-0.6,0.2-0.7,0.5-0.7,1v7.4
		c0,0.4,0.1,0.6,0.6,0.6h1c0.4,0,0.5-0.1,0.5-0.6v-6.7c0-0.1,0-0.1,0.1-0.2c0.6-0.2,1.2-0.2,1.7-0.2c1.3,0,2,0.6,2,1.8v5.4
		c0,0.4,0.1,0.6,0.5,0.6h1c0.4,0,0.6-0.1,0.6-0.6v-5.4c0-2.3-1.2-3.6-3.7-3.6C371.5,573.3,370.3,573.5,369.3,573.9 M364.3,573.6
		c-0.4,0-0.5,0.1-0.5,0.5v8.2c0,0.4,0.1,0.6,0.5,0.6h1c0.4,0,0.6-0.1,0.6-0.6v-8.2c0-0.4-0.1-0.5-0.6-0.5H364.3z M364.7,570.1
		c-0.8,0-1.1,0.3-1.1,1.1v0.2c0,0.8,0.3,1.1,1.1,1.1h0.1c0.8,0,1.1-0.3,1.1-1.1v-0.2c0-0.8-0.3-1.1-1.1-1.1H364.7z M353.6,569.6
		c-0.4,0-0.6,0.1-0.6,0.6v12.2c0,0.4,0.1,0.6,0.6,0.6h1c0.4,0,0.5-0.1,0.5-0.6v-6.9c0.4-0.2,1-0.3,1.9-0.3c1.3,0,2,0.6,2,1.8v5.4
		c0,0.4,0.1,0.6,0.6,0.6h1c0.4,0,0.6-0.1,0.6-0.6v-5.4c0-2.4-1.2-3.6-3.7-3.6c-1,0-2,0.2-2.2,0.3v-3.4c0-0.4-0.1-0.6-0.5-0.6H353.6z
		 M342.7,579.5c0,2.4,1.3,3.7,4,3.7c2.1,0,3.4-0.8,4-2.4c0.2-0.4,0-0.6-0.4-0.8l-0.8-0.2c-0.4-0.1-0.6-0.1-0.8,0.4
		c-0.3,0.8-1,1.2-2,1.2c-1.3,0-2-0.6-2-1.8v-2.7c0-1.2,0.6-1.8,2-1.8c1,0,1.7,0.4,2,1.2c0.2,0.4,0.4,0.5,0.8,0.4l0.8-0.3
		c0.4-0.2,0.5-0.4,0.4-0.8c-0.5-1.4-1.8-2.4-3.9-2.4c-2.8,0-4.1,1.3-4.1,3.7V579.5z M338.3,581c0,0.1-0.1,0.2-0.2,0.3
		c-0.4,0.1-1,0.1-1.8,0.1c-1.3,0-1.7-0.4-1.7-1.2c0-0.8,0.4-1.2,1.7-1.2c0.1,0,0.7,0,2,0.1V581z M332.8,575.2
		c-0.2,0.4-0.1,0.6,0.3,0.8l0.7,0.3c0.4,0.1,0.5,0.1,0.8-0.3c0.4-0.6,1-0.9,1.9-0.9c1.3,0,1.8,0.6,1.8,1.8v0.5
		c-1-0.1-1.6-0.1-1.7-0.1c-2.9,0-4.1,0.8-4.1,2.9c0,1,0.3,1.7,0.9,2.2c0.6,0.5,1.6,0.7,3.1,0.7c1.4,0,2.5-0.2,3.2-0.5
		c0.5-0.2,0.6-0.4,0.6-1V577c0-2.5-1.3-3.7-3.9-3.7C334.7,573.3,333.4,573.9,332.8,575.2 M323.5,573.9c-0.5-0.4-1.3-0.6-2.2-0.6
		c-1.2,0-2.3,0.2-3.3,0.6c-0.6,0.2-0.7,0.5-0.7,1v7.4c0,0.4,0.1,0.6,0.6,0.6h1c0.4,0,0.5-0.1,0.5-0.6v-6.7c0-0.1,0.1-0.2,0.1-0.2
		c0.5-0.1,0.9-0.2,1.4-0.2c1.2,0,1.8,0.6,1.8,1.7v5.4c0,0.4,0.1,0.6,0.6,0.6h1c0.4,0,0.6-0.1,0.6-0.6v-5.5c0-0.6-0.1-1-0.2-1.4
		c0.6-0.2,1.2-0.3,1.7-0.3c1.2,0,1.7,0.6,1.7,1.7v5.4c0,0.4,0.1,0.6,0.6,0.6h1c0.4,0,0.5-0.1,0.5-0.6v-5.5c0-2.4-1.2-3.6-3.5-3.6
		C325.5,573.3,324.5,573.5,323.5,573.9"/>
	<path style="clip-path:url(#SVGID_00000034057805038273048890000008817203483581632682_);fill:#575551;" d="M223.8,548.7
		c-0.6,0.2-0.7,0.5-0.7,1v7.4c0,0.4,0.1,0.6,0.6,0.6h1c0.4,0,0.5-0.1,0.5-0.6v-6.7c0-0.1,0-0.1,0.1-0.2c0.6-0.2,1.2-0.2,1.7-0.2
		c1.3,0,2,0.6,2,1.8v5.4c0,0.4,0.1,0.6,0.5,0.6h1c0.4,0,0.6-0.1,0.6-0.6v-5.4c0-2.3-1.2-3.6-3.7-3.6
		C226,548,224.8,548.2,223.8,548.7 M218.5,554.3c0,1.1-0.8,1.7-2.1,1.7c-1.3,0-2.1-0.6-2.1-1.7v-2.7c0-1.1,0.7-1.7,2.1-1.7
		c1.3,0,2.1,0.6,2.1,1.7V554.3z M212.3,554.3c0,2.2,1.5,3.6,4.1,3.6c2.7,0,4.2-1.3,4.2-3.6v-2.7c0-2.2-1.5-3.6-4.2-3.6
		c-2.6,0-4.1,1.4-4.1,3.6V554.3z M208.3,548.3c-0.4,0-0.5,0.1-0.5,0.5v8.2c0,0.4,0.1,0.6,0.5,0.6h1c0.4,0,0.6-0.1,0.6-0.6v-8.2
		c0-0.4-0.1-0.5-0.6-0.5H208.3z M208.7,544.8c-0.8,0-1.1,0.3-1.1,1.1v0.2c0,0.8,0.3,1.1,1.1,1.1h0.1c0.8,0,1.1-0.3,1.1-1.1v-0.2
		c0-0.8-0.3-1.1-1.1-1.1H208.7z M201.5,546.2c-0.4,0-0.6,0.1-0.6,0.5v1.6h-1.2c-0.4,0-0.5,0.1-0.5,0.5v0.8c0,0.4,0.1,0.6,0.5,0.6
		h1.2v3.7c0,1.5,0.3,2.6,0.9,3.2c0.6,0.6,1.7,0.8,3.2,0.8c0.4,0,0.6-0.1,0.6-0.6v-0.8c0-0.4-0.1-0.6-0.6-0.6c-0.8,0-1.3-0.1-1.6-0.4
		c-0.3-0.3-0.4-0.8-0.4-1.7v-3.6h2.1c0.4,0,0.6-0.1,0.6-0.6v-0.8c0-0.4-0.1-0.5-0.6-0.5H203v-1.6c0-0.4-0.1-0.5-0.6-0.5H201.5z
		 M189.7,554.2c0,2.4,1.3,3.7,4,3.7c2.1,0,3.4-0.8,4-2.4c0.2-0.4,0-0.6-0.4-0.8l-0.8-0.2c-0.4-0.1-0.6-0.1-0.8,0.4
		c-0.3,0.8-1,1.2-2,1.2c-1.3,0-2-0.6-2-1.8v-2.7c0-1.2,0.6-1.8,2-1.8c1,0,1.7,0.4,2,1.2c0.2,0.4,0.4,0.5,0.8,0.4l0.8-0.3
		c0.4-0.2,0.5-0.4,0.4-0.8c-0.5-1.4-1.8-2.4-3.9-2.4c-2.8,0-4.1,1.3-4.1,3.7V554.2z M185.3,555.8c0,0.1-0.1,0.2-0.2,0.3
		c-0.4,0.1-1,0.1-1.8,0.1c-1.3,0-1.7-0.4-1.7-1.2c0-0.8,0.4-1.2,1.7-1.2c0.1,0,0.7,0,2,0.1V555.8z M179.8,549.9
		c-0.2,0.4-0.1,0.6,0.3,0.8l0.7,0.3c0.4,0.1,0.5,0.1,0.8-0.3c0.4-0.6,1-0.9,1.9-0.9c1.3,0,1.8,0.6,1.8,1.8v0.5
		c-1-0.1-1.6-0.1-1.7-0.1c-2.9,0-4.1,0.8-4.1,2.9c0,1,0.3,1.7,0.9,2.2c0.6,0.5,1.6,0.7,3.1,0.7c1.4,0,2.5-0.2,3.2-0.5
		c0.5-0.2,0.6-0.4,0.6-1v-4.7c0-2.5-1.3-3.7-3.9-3.7C181.7,548,180.4,548.7,179.8,549.9 M177,548c-1.3,0-2.5,0.2-3.3,0.5
		c-0.6,0.2-0.7,0.5-0.7,1v7.5c0,0.4,0.1,0.6,0.6,0.6h1c0.4,0,0.5-0.1,0.5-0.6v-6.7c0-0.1,0.1-0.2,0.2-0.2c0.5-0.1,1-0.2,1.7-0.2h0.6
		c0.4,0,0.6-0.1,0.6-0.6v-0.8c0-0.4-0.1-0.6-0.6-0.6H177z M166.7,546.2c-0.4,0-0.6,0.1-0.6,0.5v1.6h-1.2c-0.4,0-0.5,0.1-0.5,0.5v0.8
		c0,0.4,0.1,0.6,0.5,0.6h1.2v3.7c0,1.5,0.3,2.6,0.9,3.2c0.6,0.6,1.7,0.8,3.2,0.8c0.4,0,0.6-0.1,0.6-0.6v-0.8c0-0.4-0.1-0.6-0.6-0.6
		c-0.8,0-1.3-0.1-1.6-0.4c-0.3-0.3-0.4-0.8-0.4-1.7v-3.6h2.1c0.4,0,0.6-0.1,0.6-0.6v-0.8c0-0.4-0.1-0.5-0.6-0.5h-2.1v-1.6
		c0-0.4-0.1-0.5-0.6-0.5H166.7z M161.9,548.3c-0.6,0-0.7,0.1-1,0.5l-1.7,2.5l-1.8-2.5c-0.2-0.4-0.4-0.5-1-0.5h-0.8
		c-0.6,0-0.7,0.2-0.4,0.6l2.8,3.9L155,557c-0.3,0.4-0.2,0.6,0.4,0.6h0.8c0.6,0,0.7-0.1,1-0.5l1.9-2.8l1.9,2.8c0.3,0.4,0.4,0.5,1,0.5
		h0.9c0.6,0,0.7-0.2,0.4-0.6l-2.9-4.2l2.7-3.9c0.3-0.4,0.2-0.6-0.4-0.6H161.9z M151.2,552H147v-0.4c0-1.2,0.7-1.8,2.1-1.8
		c1.4,0,2.1,0.7,2.1,1.8V552z M144.9,554.1c0,2.4,1.3,3.9,4.1,3.9c1.9,0,3.2-0.6,3.9-1.7c0.3-0.4,0.2-0.7-0.2-0.9l-0.6-0.3
		c-0.4-0.2-0.6-0.2-0.9,0.2c-0.4,0.6-1.1,1-2.1,1c-1.3,0-2.1-0.6-2.1-1.8v-0.7h5.4c0.5,0,0.8-0.3,0.8-0.8v-1.1
		c0-2.2-1.4-3.7-4.2-3.7c-2.7,0-4.2,1.4-4.2,3.9V554.1z"/>
	<path style="clip-path:url(#SVGID_00000034057805038273048890000008817203483581632682_);fill:#575551;" d="M211.3,526.3
		c-0.4,0-0.6,0.1-0.6,0.5v6.4c-0.6,0.2-1.3,0.3-1.9,0.3c-1.3,0-2-0.6-2-1.8v-4.9c0-0.4-0.1-0.5-0.5-0.5h-1c-0.4,0-0.6,0.1-0.6,0.5v5
		c0,2.3,1.2,3.6,3.8,3.6c0.7,0,1.4-0.1,2.1-0.3v0.8c0,1.3-0.6,1.9-1.9,1.9c-0.9,0-1.5-0.3-1.9-0.9c-0.3-0.4-0.5-0.4-0.9-0.2
		l-0.7,0.4c-0.4,0.2-0.5,0.5-0.2,0.9c0.7,1.2,2,1.7,3.7,1.7c2.7,0,4-1.5,4-3.9v-9.1c0-0.4-0.1-0.5-0.6-0.5H211.3z M198.6,524.2
		c-0.4,0-0.6,0.1-0.6,0.5v1.6h-1.2c-0.4,0-0.5,0.1-0.5,0.5v0.8c0,0.4,0.1,0.6,0.5,0.6h1.2v3.7c0,1.5,0.3,2.6,0.9,3.2
		c0.6,0.6,1.7,0.8,3.2,0.8c0.4,0,0.6-0.1,0.6-0.6v-0.8c0-0.4-0.1-0.6-0.6-0.6c-0.8,0-1.3-0.1-1.6-0.4c-0.3-0.3-0.4-0.8-0.4-1.7v-3.6
		h2.1c0.4,0,0.6-0.1,0.6-0.6v-0.8c0-0.4-0.1-0.5-0.6-0.5h-2.1v-1.6c0-0.4-0.1-0.5-0.6-0.5H198.6z M192.8,526.3
		c-0.4,0-0.5,0.1-0.5,0.5v8.2c0,0.4,0.1,0.6,0.5,0.6h1c0.4,0,0.6-0.1,0.6-0.6v-8.2c0-0.4-0.1-0.5-0.6-0.5H192.8z M193.2,522.8
		c-0.8,0-1.1,0.3-1.1,1.1v0.2c0,0.8,0.3,1.1,1.1,1.1h0.1c0.8,0,1.1-0.3,1.1-1.1v-0.2c0-0.8-0.3-1.1-1.1-1.1H193.2z M186,524.2
		c-0.4,0-0.6,0.1-0.6,0.5v1.6h-1.2c-0.4,0-0.5,0.1-0.5,0.5v0.8c0,0.4,0.1,0.6,0.5,0.6h1.2v3.7c0,1.5,0.3,2.6,0.9,3.2
		c0.6,0.6,1.7,0.8,3.2,0.8c0.4,0,0.6-0.1,0.6-0.6v-0.8c0-0.4-0.1-0.6-0.6-0.6c-0.8,0-1.3-0.1-1.6-0.4c-0.3-0.3-0.4-0.8-0.4-1.7v-3.6
		h2.1c0.4,0,0.6-0.1,0.6-0.6v-0.8c0-0.4-0.1-0.5-0.6-0.5h-2.1v-1.6c0-0.4-0.1-0.5-0.6-0.5H186z M174.6,526.7c-0.6,0.2-0.7,0.4-0.7,1
		v7.4c0,0.4,0.1,0.6,0.6,0.6h1c0.4,0,0.5-0.1,0.5-0.6v-6.7c0-0.1,0-0.1,0.1-0.2c0.6-0.2,1.2-0.2,1.7-0.2c1.3,0,2,0.6,2,1.8v5.4
		c0,0.4,0.1,0.6,0.5,0.6h1c0.4,0,0.6-0.1,0.6-0.6v-5.4c0-2.3-1.2-3.6-3.7-3.6C176.8,526,175.6,526.2,174.6,526.7 M169.4,530h-4.2
		v-0.4c0-1.2,0.7-1.8,2.1-1.8c1.4,0,2.1,0.7,2.1,1.8V530z M163.2,532.1c0,2.4,1.3,3.9,4.1,3.9c1.9,0,3.2-0.6,3.9-1.7
		c0.3-0.4,0.2-0.7-0.2-0.9l-0.6-0.3c-0.4-0.2-0.6-0.2-0.9,0.2c-0.4,0.6-1.1,1-2.1,1c-1.3,0-2.1-0.6-2.1-1.8v-0.7h5.4
		c0.5,0,0.8-0.3,0.8-0.8v-1.1c0-2.2-1.4-3.7-4.2-3.7c-2.7,0-4.2,1.4-4.2,3.9V532.1z"/>
	<path style="clip-path:url(#SVGID_00000034057805038273048890000008817203483581632682_);fill:#575551;" d="M110.6,469.3
		c0,0.9,0.3,1.6,0.8,2c0.2,0.2,0.5,0.4,0.8,0.5c0.7,0.3,1.2,0.3,2,0.4c1.6,0.2,2.2,0.4,2.2,1.2c0,0.7-0.6,1.1-1.9,1.1
		c-1.1,0-1.8-0.3-2-1c-0.2-0.4-0.4-0.5-0.7-0.3l-0.8,0.3c-0.4,0.1-0.5,0.4-0.4,0.8c0.6,1.5,1.9,2.2,4,2.2c2.5,0,3.9-1.2,3.9-3
		c0-2-1.2-2.7-3.7-2.9c-1.6-0.1-2.1-0.3-2.1-1.1c0-0.6,0.6-1,1.7-1c1,0,1.6,0.3,1.9,0.9c0.2,0.4,0.3,0.4,0.8,0.3l0.8-0.3
		c0.4-0.2,0.5-0.5,0.3-0.8c-0.6-1.3-1.9-1.9-3.9-1.9C111.8,466.4,110.6,467.5,110.6,469.3 M100.6,462.7c-0.4,0-0.6,0.1-0.6,0.6v12.2
		c0,0.4,0.1,0.6,0.6,0.6h1c0.4,0,0.5-0.1,0.5-0.6v-6.9c0.4-0.2,1-0.3,1.9-0.3c1.3,0,2,0.6,2,1.8v5.4c0,0.4,0.1,0.6,0.6,0.6h1
		c0.4,0,0.6-0.1,0.6-0.6V470c0-2.4-1.2-3.6-3.7-3.6c-1,0-2,0.2-2.2,0.3v-3.4c0-0.4-0.1-0.6-0.5-0.6H100.6z M95.4,472.4
		c0,1.3-0.7,1.9-2.1,1.9c-0.5,0-1-0.1-1.7-0.3v-5.3c0-0.1,0.1-0.2,0.2-0.2c0.5-0.1,1-0.2,1.6-0.2c1.3,0,2,0.6,2,1.8V472.4z
		 M90.2,466.9c-0.6,0.2-0.7,0.5-0.7,1v11.4c0,0.4,0.1,0.6,0.6,0.6h1c0.4,0,0.5-0.1,0.5-0.6v-3.5c0.8,0.2,1.5,0.3,1.9,0.3
		c2.7,0,4-1.3,4-3.8V470c0-2.4-1.3-3.6-3.8-3.6C92.3,466.4,91.2,466.6,90.2,466.9 M84.8,474.1c0,0.1-0.1,0.2-0.2,0.3
		c-0.4,0.1-1,0.1-1.8,0.1c-1.3,0-1.7-0.4-1.7-1.2c0-0.8,0.4-1.2,1.7-1.2c0.1,0,0.7,0,2,0.1V474.1z M79.3,468.3
		c-0.2,0.4-0.1,0.6,0.3,0.8l0.7,0.3c0.4,0.1,0.5,0.1,0.8-0.3c0.4-0.6,1-0.9,1.9-0.9c1.3,0,1.8,0.6,1.8,1.8v0.5
		c-1-0.1-1.6-0.1-1.7-0.1c-2.9,0-4.1,0.8-4.1,2.9c0,1,0.3,1.7,0.9,2.2c0.6,0.5,1.6,0.7,3.2,0.7c1.4,0,2.5-0.2,3.2-0.5
		c0.5-0.2,0.6-0.4,0.6-1v-4.7c0-2.5-1.3-3.7-3.9-3.7C81.2,466.4,80,467,79.3,468.3 M76.6,466.4c-1.3,0-2.5,0.2-3.3,0.5
		c-0.6,0.2-0.7,0.5-0.7,1v7.5c0,0.4,0.1,0.6,0.6,0.6h1c0.4,0,0.5-0.1,0.5-0.6v-6.7c0-0.1,0.1-0.2,0.2-0.2c0.5-0.1,1-0.2,1.7-0.2h0.6
		c0.4,0,0.6-0.1,0.6-0.6v-0.8c0-0.4-0.1-0.6-0.6-0.6H76.6z M67.6,468.5c0.1,0.1,0.2,0.1,0.2,0.2v4.9c-0.7,0.2-1.3,0.3-1.9,0.3
		c-1.3,0-2-0.6-2-1.8v-1.9c0-1.3,0.7-1.9,2.1-1.9C66.6,468.3,67.1,468.4,67.6,468.5 M61.9,472.2c0,2.3,1.2,3.6,3.7,3.6
		c0.6,0,1.3-0.1,2.2-0.3v0.9c0,1.3-0.6,1.9-1.9,1.9c-0.9,0-1.5-0.3-1.9-0.9c-0.3-0.4-0.5-0.4-0.9-0.2l-0.7,0.4
		c-0.4,0.2-0.5,0.5-0.2,0.9c0.7,1.2,1.9,1.7,3.7,1.7c2.7,0,4-1.5,4-3.9v-8.4c0-0.6-0.1-0.7-0.7-1c-0.8-0.4-1.9-0.6-3.3-0.6
		c-2.7,0-4.1,1.3-4.1,3.8V472.2z"/>
	<path style="clip-path:url(#SVGID_00000034057805038273048890000008817203483581632682_);fill:#575551;" d="M132.7,448.4h-4.2V448
		c0-1.2,0.7-1.8,2.1-1.8c1.4,0,2.1,0.7,2.1,1.8V448.4z M126.5,450.4c0,2.4,1.3,3.9,4.1,3.9c1.9,0,3.2-0.6,3.9-1.7
		c0.3-0.4,0.2-0.7-0.2-0.9l-0.6-0.3c-0.4-0.2-0.6-0.2-0.9,0.2c-0.4,0.6-1.1,1-2.1,1c-1.3,0-2.1-0.6-2.1-1.8V450h5.4
		c0.5,0,0.8-0.3,0.8-0.8v-1.1c0-2.2-1.4-3.7-4.2-3.7c-2.7,0-4.2,1.4-4.2,3.9V450.4z M121.9,446.5c0.1,0.1,0.2,0.1,0.2,0.2v5
		c-0.7,0.2-1.3,0.3-1.9,0.3c-1.3,0-2-0.6-2-1.8v-1.9c0-1.3,0.7-1.9,2.1-1.9C120.9,446.3,121.4,446.4,121.9,446.5 M116.1,450.2
		c0,2.3,1.2,3.6,3.7,3.6c0.6,0,1.3-0.1,2.2-0.3v0.9c0,1.3-0.6,1.9-1.9,1.9c-0.9,0-1.5-0.3-1.9-0.9c-0.3-0.4-0.5-0.4-0.9-0.2
		l-0.7,0.4c-0.4,0.2-0.5,0.5-0.2,0.9c0.7,1.2,1.9,1.7,3.7,1.7c2.7,0,4-1.5,4-3.9v-8.4c0-0.6-0.1-0.7-0.7-1c-0.8-0.4-1.9-0.6-3.3-0.6
		c-2.7,0-4.1,1.3-4.1,3.8V450.2z M111.5,451.9c0,0.1-0.1,0.2-0.1,0.2c-0.5,0.1-1,0.2-1.7,0.2c-1.3,0-2-0.6-2-1.8v-2.3
		c0-1.3,0.7-1.9,2.1-1.9c0.4,0,1,0.1,1.7,0.2V451.9z M105.6,450.6c0,2.4,1.3,3.6,3.9,3.6c1.2,0,2.3-0.2,3.4-0.6
		c0.6-0.2,0.7-0.4,0.7-1v-11.5c0-0.4-0.1-0.6-0.6-0.6h-1c-0.4,0-0.5,0.1-0.5,0.6v3.4c-0.9-0.2-1.6-0.2-2.1-0.2
		c-2.5,0-3.8,1.3-3.8,3.8V450.6z M101.4,448.4h-4.2V448c0-1.2,0.7-1.8,2.1-1.8c1.4,0,2.1,0.7,2.1,1.8V448.4z M95.2,450.4
		c0,2.4,1.3,3.9,4.1,3.9c1.9,0,3.2-0.6,3.9-1.7c0.3-0.4,0.2-0.7-0.2-0.9l-0.6-0.3c-0.4-0.2-0.6-0.2-0.9,0.2c-0.4,0.6-1.1,1-2.1,1
		c-1.3,0-2.1-0.6-2.1-1.8V450h5.4c0.5,0,0.8-0.3,0.8-0.8v-1.1c0-2.2-1.4-3.7-4.2-3.7c-2.7,0-4.2,1.4-4.2,3.9V450.4z M92.6,441.2
		c0-0.4-0.1-0.6-0.6-0.6h-1c-0.4,0-0.6,0.1-0.6,0.6v12.2c0,0.4,0.1,0.6,0.6,0.6h1c0.4,0,0.6-0.1,0.6-0.6V441.2z M87.4,444.7
		c-0.7,0-0.9,0.1-1,0.6l-1,4c-0.1,0.6-0.3,1.4-0.3,1.9l0,0.3h-0.1c0-0.1-0.1-1.3-0.4-2.2l-1.2-4c-0.1-0.5-0.3-0.6-0.9-0.6H82
		c-0.6,0-0.8,0.1-0.9,0.6l-1.2,3.9c-0.2,0.8-0.4,2.1-0.4,2.2h-0.1c0,0-0.2-1.5-0.3-2.2l-1-4c-0.1-0.5-0.3-0.6-1-0.6h-0.7
		c-0.5,0-0.6,0.1-0.5,0.6l2.4,8.2c0.1,0.3,0.3,0.5,0.8,0.5h0.6c0.4,0,0.7-0.2,0.8-0.5l1.3-4.6c0.1-0.5,0.3-1.2,0.3-1.6l0-0.3h0.1
		l0,0.3c0.1,0.4,0.1,1.1,0.3,1.6l1.3,4.6c0.1,0.3,0.4,0.5,0.8,0.5h0.6c0.4,0,0.7-0.2,0.8-0.5l2.4-8.2c0.1-0.5,0.1-0.6-0.5-0.6H87.4z
		 M72.1,450.6c0,1.1-0.8,1.7-2.1,1.7c-1.3,0-2.1-0.6-2.1-1.7V448c0-1.1,0.7-1.7,2.1-1.7c1.3,0,2.1,0.6,2.1,1.7V450.6z M65.9,450.6
		c0,2.2,1.5,3.6,4.1,3.6c2.7,0,4.2-1.4,4.2-3.6V448c0-2.2-1.5-3.6-4.2-3.6c-2.6,0-4.1,1.4-4.1,3.6V450.6z M56.2,445
		c-0.6,0.2-0.7,0.5-0.7,1v7.4c0,0.4,0.1,0.6,0.6,0.6h1c0.4,0,0.5-0.1,0.5-0.6v-6.7c0-0.1,0-0.1,0.1-0.2c0.6-0.2,1.2-0.2,1.7-0.2
		c1.3,0,2,0.6,2,1.8v5.4c0,0.4,0.1,0.6,0.5,0.6h1c0.4,0,0.6-0.1,0.6-0.6V448c0-2.3-1.2-3.6-3.7-3.6C58.4,444.4,57.2,444.6,56.2,445
		 M51.8,450.2c-0.4-0.7-0.8-1.2-1.3-1.5l2.7-3.4c0.3-0.4,0.2-0.6-0.4-0.6h-0.9c-0.7,0-0.8,0-1.1,0.4l-2.4,3.2h-0.1h-0.8v-7
		c0-0.4-0.1-0.6-0.6-0.6H46c-0.5,0-0.6,0.1-0.6,0.6v12.2c0,0.4,0.1,0.6,0.6,0.6h0.9c0.5,0,0.6-0.1,0.6-0.6v-3.2h1.1
		c0.7,0,1.2,0.3,1.4,0.9l1.1,2.4c0.2,0.4,0.3,0.5,1,0.5H53c0.5,0,0.6-0.2,0.3-0.7L51.8,450.2z"/>
	<path style="clip-path:url(#SVGID_00000034057805038273048890000008817203483581632682_);fill:#575551;" d="M87.1,362.9
		c-0.6,0.2-0.7,0.4-0.7,1v7.4c0,0.4,0.1,0.6,0.6,0.6h1c0.4,0,0.5-0.1,0.5-0.6v-6.7c0-0.1,0-0.1,0.1-0.2c0.6-0.2,1.2-0.2,1.7-0.2
		c1.3,0,2,0.6,2,1.8v5.4c0,0.4,0.1,0.6,0.5,0.6h1c0.4,0,0.6-0.1,0.6-0.6v-5.4c0-2.3-1.2-3.6-3.7-3.6
		C89.3,362.3,88.1,362.5,87.1,362.9 M81.8,368.6c0,1.1-0.8,1.7-2.1,1.7c-1.3,0-2.1-0.6-2.1-1.7v-2.7c0-1.1,0.7-1.7,2.1-1.7
		c1.3,0,2.1,0.6,2.1,1.7V368.6z M75.6,368.6c0,2.2,1.5,3.6,4.1,3.6c2.7,0,4.2-1.4,4.2-3.6v-2.7c0-2.2-1.5-3.6-4.2-3.6
		c-2.6,0-4.1,1.4-4.1,3.6V368.6z M71.6,362.6c-0.4,0-0.5,0.1-0.5,0.5v8.2c0,0.4,0.1,0.6,0.5,0.6h1c0.4,0,0.6-0.1,0.6-0.6v-8.2
		c0-0.4-0.1-0.5-0.6-0.5H71.6z M72,359.1c-0.8,0-1.1,0.3-1.1,1.1v0.2c0,0.8,0.3,1.1,1.1,1.1h0.1c0.8,0,1.1-0.3,1.1-1.1v-0.2
		c0-0.8-0.3-1.1-1.1-1.1H72z M64.8,360.4c-0.4,0-0.6,0.1-0.6,0.5v1.6H63c-0.4,0-0.5,0.1-0.5,0.5v0.8c0,0.4,0.1,0.6,0.5,0.6h1.2v3.7
		c0,1.5,0.3,2.6,0.9,3.2c0.6,0.6,1.7,0.8,3.2,0.8c0.4,0,0.6-0.1,0.6-0.6v-0.8c0-0.4-0.1-0.6-0.6-0.6c-0.8,0-1.3-0.1-1.6-0.4
		c-0.3-0.3-0.4-0.8-0.4-1.7v-3.6h2.1c0.4,0,0.6-0.1,0.6-0.6v-0.8c0-0.4-0.1-0.5-0.6-0.5h-2.1v-1.6c0-0.4-0.1-0.5-0.6-0.5H64.8z
		 M59,362.6c-0.4,0-0.5,0.1-0.5,0.5v8.2c0,0.4,0.1,0.6,0.5,0.6h1c0.4,0,0.6-0.1,0.6-0.6v-8.2c0-0.4-0.1-0.5-0.6-0.5H59z M59.4,359.1
		c-0.8,0-1.1,0.3-1.1,1.1v0.2c0,0.8,0.3,1.1,1.1,1.1h0.1c0.8,0,1.1-0.3,1.1-1.1v-0.2c0-0.8-0.3-1.1-1.1-1.1H59.4z M48.4,362.9
		c-0.6,0.2-0.7,0.4-0.7,1v7.4c0,0.4,0.1,0.6,0.6,0.6h1c0.4,0,0.5-0.1,0.5-0.6v-6.7c0-0.1,0-0.1,0.1-0.2c0.6-0.2,1.2-0.2,1.7-0.2
		c1.3,0,2,0.6,2,1.8v5.4c0,0.4,0.1,0.6,0.5,0.6h1c0.4,0,0.6-0.1,0.6-0.6v-5.4c0-2.3-1.2-3.6-3.7-3.6
		C50.6,362.3,49.5,362.5,48.4,362.9 M42.8,364.4c0.1,0.1,0.2,0.1,0.2,0.2v4.9c-0.7,0.2-1.3,0.3-1.9,0.3c-1.3,0-2-0.6-2-1.8v-1.9
		c0-1.3,0.7-1.9,2.1-1.9C41.8,364.2,42.3,364.3,42.8,364.4 M37.1,368.1c0,2.3,1.2,3.6,3.7,3.6c0.6,0,1.4-0.1,2.2-0.3v0.9
		c0,1.3-0.6,1.9-1.9,1.9c-0.9,0-1.5-0.3-1.9-0.9c-0.3-0.4-0.5-0.4-0.9-0.2l-0.7,0.4c-0.4,0.2-0.5,0.5-0.2,0.9
		c0.7,1.2,1.9,1.7,3.7,1.7c2.7,0,4-1.5,4-3.9v-8.4c0-0.6-0.1-0.7-0.7-1c-0.8-0.4-1.9-0.6-3.3-0.6c-2.7,0-4.1,1.3-4.1,3.8V368.1z
		 M32.7,368.6c0,1.1-0.8,1.7-2.1,1.7c-1.3,0-2.1-0.6-2.1-1.7v-2.7c0-1.1,0.7-1.7,2.1-1.7c1.3,0,2.1,0.6,2.1,1.7V368.6z M26.5,368.6
		c0,2.2,1.5,3.6,4.1,3.6c2.7,0,4.2-1.4,4.2-3.6v-2.7c0-2.2-1.5-3.6-4.2-3.6c-2.6,0-4.1,1.4-4.1,3.6V368.6z M16.5,368.5
		c0,2.4,1.3,3.7,4,3.7c2.1,0,3.4-0.8,4-2.4c0.2-0.4,0-0.6-0.4-0.8l-0.8-0.2c-0.4-0.1-0.6-0.1-0.8,0.4c-0.3,0.8-1,1.2-2,1.2
		c-1.3,0-2-0.6-2-1.8v-2.7c0-1.2,0.6-1.8,2-1.8c1,0,1.7,0.4,2,1.2c0.2,0.4,0.4,0.5,0.8,0.4l0.8-0.3c0.4-0.2,0.5-0.4,0.4-0.8
		c-0.5-1.4-1.8-2.4-3.9-2.4c-2.8,0-4.1,1.3-4.1,3.7V368.5z M12.3,366.3H8.2v-0.4c0-1.2,0.7-1.8,2.1-1.8c1.4,0,2.1,0.7,2.1,1.8V366.3
		z M6.1,368.3c0,2.4,1.3,3.9,4.1,3.9c1.9,0,3.2-0.6,3.9-1.7c0.3-0.4,0.2-0.7-0.2-0.9l-0.6-0.3c-0.4-0.2-0.6-0.2-0.9,0.2
		c-0.4,0.6-1.1,1-2.1,1c-1.3,0-2.1-0.6-2.1-1.8v-0.7h5.4c0.5,0,0.8-0.3,0.8-0.8V366c0-2.2-1.4-3.7-4.2-3.7c-2.7,0-4.2,1.4-4.2,3.9
		V368.3z M3.6,362.3c-1.4,0-2.5,0.2-3.3,0.5c-0.6,0.2-0.7,0.5-0.7,1v7.5c0,0.4,0.1,0.6,0.6,0.6h1c0.4,0,0.5-0.1,0.5-0.6v-6.7
		c0-0.1,0.1-0.2,0.2-0.2c0.5-0.1,1-0.2,1.7-0.2h0.6c0.4,0,0.6-0.1,0.6-0.6v-0.8c0-0.4-0.1-0.6-0.6-0.6H3.6z"/>
	<path style="clip-path:url(#SVGID_00000034057805038273048890000008817203483581632682_);fill:#575551;" d="M69.6,344.3h-4.2v-0.4
		c0-1.2,0.7-1.8,2.1-1.8c1.4,0,2.1,0.7,2.1,1.8V344.3z M63.3,346.3c0,2.4,1.3,3.9,4.1,3.9c1.9,0,3.2-0.6,3.9-1.7
		c0.3-0.4,0.2-0.7-0.2-0.9l-0.6-0.3c-0.4-0.2-0.6-0.2-0.9,0.2c-0.4,0.6-1.1,1-2.1,1c-1.3,0-2.1-0.6-2.1-1.8v-0.7h5.4
		c0.5,0,0.8-0.3,0.8-0.8V344c0-2.2-1.4-3.7-4.2-3.7c-2.7,0-4.2,1.4-4.2,3.9V346.3z M58.7,342.4c0.1,0.1,0.2,0.1,0.2,0.2v5
		c-0.7,0.2-1.3,0.3-1.9,0.3c-1.3,0-2-0.6-2-1.8v-1.9c0-1.3,0.7-1.9,2.1-1.9C57.7,342.2,58.2,342.3,58.7,342.4 M53,346.1
		c0,2.3,1.2,3.6,3.7,3.6c0.6,0,1.3-0.1,2.2-0.3v0.9c0,1.3-0.6,1.9-1.9,1.9c-0.9,0-1.5-0.3-1.9-0.9c-0.3-0.4-0.5-0.4-0.9-0.2
		l-0.7,0.4c-0.4,0.2-0.5,0.5-0.2,0.9c0.7,1.2,1.9,1.7,3.7,1.7c2.7,0,4-1.5,4-3.9v-8.4c0-0.6-0.1-0.7-0.7-1c-0.8-0.4-1.9-0.6-3.3-0.6
		c-2.7,0-4.1,1.3-4.1,3.8V346.1z M48.4,348c0,0.1-0.1,0.2-0.2,0.3c-0.4,0.1-1,0.1-1.8,0.1c-1.3,0-1.7-0.4-1.7-1.2
		c0-0.8,0.4-1.2,1.7-1.2c0.1,0,0.7,0,2,0.1V348z M42.9,342.2c-0.2,0.4-0.1,0.6,0.3,0.8l0.7,0.3c0.4,0.1,0.5,0.1,0.8-0.3
		c0.4-0.6,1-0.9,1.9-0.9c1.3,0,1.8,0.6,1.8,1.8v0.5c-1-0.1-1.6-0.1-1.7-0.1c-2.9,0-4.1,0.8-4.1,2.9c0,1,0.3,1.7,0.9,2.2
		c0.6,0.5,1.6,0.7,3.2,0.7c1.4,0,2.5-0.2,3.2-0.5c0.5-0.2,0.6-0.4,0.6-1V344c0-2.5-1.3-3.7-3.9-3.7
		C44.8,340.3,43.6,340.9,42.9,342.2 M33.7,340.9c-0.5-0.4-1.3-0.6-2.2-0.6c-1.2,0-2.3,0.2-3.3,0.6c-0.6,0.2-0.7,0.5-0.7,1v7.4
		c0,0.4,0.1,0.6,0.6,0.6h1c0.4,0,0.5-0.1,0.5-0.6v-6.7c0-0.1,0.1-0.2,0.1-0.2c0.5-0.1,0.9-0.2,1.4-0.2c1.2,0,1.8,0.6,1.8,1.7v5.4
		c0,0.4,0.1,0.6,0.6,0.6h1c0.4,0,0.6-0.1,0.6-0.6v-5.5c0-0.6-0.1-1-0.2-1.4c0.6-0.2,1.2-0.3,1.7-0.3c1.2,0,1.7,0.6,1.7,1.7v5.4
		c0,0.4,0.1,0.6,0.6,0.6h1c0.4,0,0.5-0.1,0.5-0.6v-5.5c0-2.4-1.2-3.6-3.5-3.6C35.7,340.3,34.7,340.5,33.7,340.9 M23.2,340.6
		c-0.4,0-0.5,0.1-0.5,0.5v8.2c0,0.4,0.1,0.6,0.5,0.6h1c0.4,0,0.6-0.1,0.6-0.6v-8.2c0-0.4-0.1-0.5-0.6-0.5H23.2z M23.6,337.1
		c-0.8,0-1.1,0.3-1.1,1.1v0.2c0,0.8,0.3,1.1,1.1,1.1h0.1c0.8,0,1.1-0.3,1.1-1.1v-0.2c0-0.8-0.3-1.1-1.1-1.1H23.6z"/>
	<path style="clip-path:url(#SVGID_00000034057805038273048890000008817203483581632682_);fill:#575551;" d="M85.2,254.2
		c0.1,0.1,0.2,0.1,0.2,0.2v4.9c-0.7,0.2-1.3,0.3-1.9,0.3c-1.3,0-2-0.6-2-1.8v-1.9c0-1.3,0.7-1.9,2.1-1.9
		C84.2,254,84.7,254,85.2,254.2 M79.4,257.9c0,2.3,1.2,3.6,3.7,3.6c0.6,0,1.3-0.1,2.2-0.3v0.9c0,1.3-0.6,1.9-1.9,1.9
		c-0.9,0-1.5-0.3-1.9-0.9c-0.3-0.4-0.5-0.4-0.9-0.2l-0.7,0.4c-0.4,0.2-0.5,0.5-0.2,0.9c0.7,1.2,1.9,1.7,3.7,1.7c2.7,0,4-1.5,4-3.9
		v-8.4c0-0.6-0.1-0.7-0.7-1c-0.8-0.4-1.9-0.6-3.3-0.6c-2.7,0-4.1,1.3-4.1,3.8V257.9z M69.6,252.7c-0.6,0.2-0.7,0.4-0.7,1v7.4
		c0,0.4,0.1,0.6,0.6,0.6h1c0.4,0,0.5-0.1,0.5-0.6v-6.7c0-0.1,0-0.1,0.1-0.2c0.6-0.2,1.2-0.2,1.7-0.2c1.3,0,2,0.6,2,1.8v5.4
		c0,0.4,0.1,0.6,0.5,0.6h1c0.4,0,0.6-0.1,0.6-0.6v-5.4c0-2.3-1.2-3.6-3.7-3.6C71.8,252,70.7,252.2,69.6,252.7 M64.6,252.3
		c-0.4,0-0.5,0.1-0.5,0.5v8.2c0,0.4,0.1,0.6,0.5,0.6h1c0.4,0,0.6-0.1,0.6-0.6v-8.2c0-0.4-0.1-0.5-0.6-0.5H64.6z M65.1,248.8
		c-0.8,0-1.1,0.3-1.1,1.1v0.2c0,0.8,0.3,1.1,1.1,1.1h0.1c0.8,0,1.1-0.3,1.1-1.1v-0.2c0-0.8-0.3-1.1-1.1-1.1H65.1z M54.1,252.7
		c-0.6,0.2-0.7,0.4-0.7,1v7.4c0,0.4,0.1,0.6,0.6,0.6h1c0.4,0,0.5-0.1,0.5-0.6v-6.7c0-0.1,0-0.1,0.1-0.2c0.6-0.2,1.2-0.2,1.7-0.2
		c1.3,0,2,0.6,2,1.8v5.4c0,0.4,0.1,0.6,0.5,0.6h1c0.4,0,0.6-0.1,0.6-0.6v-5.4c0-2.3-1.2-3.6-3.7-3.6C56.3,252,55.1,252.2,54.1,252.7
		 M50.4,252c-1.3,0-2.5,0.2-3.3,0.5c-0.6,0.2-0.7,0.5-0.7,1v7.5c0,0.4,0.1,0.6,0.6,0.6h1c0.4,0,0.5-0.1,0.5-0.6v-6.7
		c0-0.1,0.1-0.2,0.2-0.2c0.5-0.1,1-0.2,1.7-0.2H51c0.4,0,0.6-0.1,0.6-0.6v-0.8c0-0.4-0.1-0.6-0.6-0.6H50.4z M41.7,259.8
		c0,0.1-0.1,0.2-0.2,0.3c-0.4,0.1-1,0.1-1.8,0.1c-1.3,0-1.7-0.4-1.7-1.2c0-0.8,0.4-1.2,1.7-1.2c0.1,0,0.7,0,2,0.1V259.8z
		 M36.2,253.9c-0.2,0.4-0.1,0.6,0.3,0.8l0.7,0.3c0.4,0.1,0.5,0.1,0.8-0.3c0.4-0.6,1-0.9,1.9-0.9c1.3,0,1.8,0.6,1.8,1.8v0.5
		c-1-0.1-1.6-0.1-1.7-0.1c-2.9,0-4.1,0.8-4.1,2.9c0,1,0.3,1.7,0.9,2.2c0.6,0.5,1.6,0.7,3.1,0.7c1.4,0,2.5-0.2,3.2-0.5
		c0.5-0.2,0.6-0.4,0.6-1v-4.7c0-2.5-1.3-3.7-3.9-3.7C38.1,252,36.8,252.7,36.2,253.9 M31.9,256h-4.2v-0.4c0-1.2,0.7-1.8,2.1-1.8
		c1.4,0,2.1,0.7,2.1,1.8V256z M25.6,258.1c0,2.4,1.3,3.9,4.1,3.9c1.9,0,3.2-0.6,3.9-1.7c0.3-0.4,0.2-0.7-0.2-0.9l-0.6-0.3
		c-0.4-0.2-0.6-0.2-0.9,0.2c-0.4,0.6-1.1,1-2.1,1c-1.3,0-2.1-0.6-2.1-1.8v-0.7h5.4c0.5,0,0.8-0.3,0.8-0.8v-1.1
		c0-2.2-1.4-3.7-4.2-3.7c-2.7,0-4.2,1.4-4.2,3.9V258.1z M23.1,248.9c0-0.4-0.1-0.6-0.6-0.6h-1c-0.4,0-0.6,0.1-0.6,0.6v12.2
		c0,0.4,0.1,0.6,0.6,0.6h1c0.4,0,0.6-0.1,0.6-0.6V248.9z"/>
	<path style="clip-path:url(#SVGID_00000034057805038273048890000008817203483581632682_);fill:#575551;" d="M71.8,236.1
		c0,1.3-0.7,1.9-2.1,1.9c-0.5,0-1-0.1-1.7-0.3v-5.3c0-0.1,0.1-0.2,0.2-0.2c0.5-0.1,1-0.2,1.6-0.2c1.3,0,2,0.6,2,1.8V236.1z
		 M66.6,230.6c-0.6,0.2-0.7,0.5-0.7,1V243c0,0.4,0.1,0.6,0.6,0.6h1c0.4,0,0.5-0.1,0.5-0.6v-3.5c0.8,0.2,1.5,0.3,1.9,0.3
		c2.7,0,4-1.3,4-3.8v-2.5c0-2.4-1.3-3.6-3.8-3.6C68.7,230,67.5,230.2,66.6,230.6 M61.5,234h-4.2v-0.4c0-1.2,0.7-1.8,2.1-1.8
		c1.4,0,2.1,0.7,2.1,1.8V234z M55.2,236.1c0,2.4,1.3,3.9,4.1,3.9c1.9,0,3.2-0.6,3.9-1.7c0.3-0.4,0.2-0.7-0.2-0.9l-0.6-0.3
		c-0.4-0.2-0.6-0.2-0.9,0.2c-0.4,0.6-1.1,1-2.1,1c-1.3,0-2.1-0.6-2.1-1.8v-0.7h5.4c0.5,0,0.8-0.3,0.8-0.8v-1.1
		c0-2.2-1.4-3.7-4.2-3.7c-2.7,0-4.2,1.4-4.2,3.9V236.1z M51.1,234h-4.2v-0.4c0-1.2,0.7-1.8,2.1-1.8c1.4,0,2.1,0.7,2.1,1.8V234z
		 M44.8,236.1c0,2.4,1.3,3.9,4.1,3.9c1.9,0,3.2-0.6,3.9-1.7c0.3-0.4,0.2-0.7-0.2-0.9l-0.6-0.3c-0.4-0.2-0.6-0.2-0.9,0.2
		c-0.4,0.6-1.1,1-2.1,1c-1.3,0-2.1-0.6-2.1-1.8v-0.7h5.4c0.5,0,0.8-0.3,0.8-0.8v-1.1c0-2.2-1.4-3.7-4.2-3.7c-2.7,0-4.2,1.4-4.2,3.9
		V236.1z M40.3,237.6c0,0.1-0.1,0.2-0.1,0.2c-0.5,0.1-1,0.2-1.7,0.2c-1.4,0-2-0.6-2-1.8v-2.3c0-1.3,0.7-1.9,2.1-1.9
		c0.5,0,1,0.1,1.7,0.2V237.6z M34.4,236.3c0,2.4,1.3,3.6,3.9,3.6c1.2,0,2.3-0.2,3.4-0.6c0.6-0.2,0.7-0.4,0.7-1v-11.5
		c0-0.4-0.1-0.6-0.6-0.6h-1c-0.4,0-0.5,0.1-0.5,0.6v3.4c-0.9-0.2-1.6-0.2-2.1-0.2c-2.5,0-3.8,1.3-3.8,3.8V236.3z"/>
</g>
<line class="st4" x1="350.3" y1="85" x2="350.3" y2="211"/>
<line class="st4" x1="351" y1="292" x2="351" y2="524"/>
<line class="st4" x1="333.1" y1="291" x2="253.1" y2="508"/>
<line class="st4" x1="317.1" y1="281" x2="177.1" y2="444"/>
<line class="st4" x1="310.1" y1="264" x2="129.1" y2="354"/>
<line class="st4" x1="303.1" y1="245" x2="128.1" y2="255"/>
<line class="st4" x1="312.1" y1="226" x2="173.1" y2="164"/>
<line class="st4" x1="329.1" y1="217" x2="252.4" y2="99.6"/>
<line class="st4" x1="378.1" y1="317" x2="448.5" y2="508"/>
<line class="st4" x1="395.1" y1="293" x2="524.5" y2="444"/>
<line class="st4" x1="419.1" y1="278" x2="572.5" y2="354"/>
<line class="st4" x1="412.1" y1="246" x2="573.5" y2="255"/>
<line class="st4" x1="389.5" y1="226" x2="528.5" y2="164"/>
<line class="st4" x1="372.5" y1="217" x2="449.2" y2="99.6"/>
<g>
	<defs>
		<rect id="SVGID_00000042719980163028758230000013830663030627816112_" x="-0.5" y="0.2" width="742.6" height="608.9"/>
	</defs>
	<clipPath id="SVGID_00000106123064841106253040000014353749475571989939_">
		<use xlink:href="#SVGID_00000042719980163028758230000013830663030627816112_"  style="overflow:visible;"/>
	</clipPath>
	<path style="clip-path:url(#SVGID_00000106123064841106253040000014353749475571989939_);fill:#EF8803;" d="M348.4,89.2
		c7.9,1.1,15.3-4.4,16.5-12.3c1.1-7.9-4.4-15.3-12.3-16.5c-7.9-1.1-15.3,4.4-16.5,12.3C334.9,80.7,340.5,88.1,348.4,89.2"/>
	<path style="clip-path:url(#SVGID_00000106123064841106253040000014353749475571989939_);fill:#FFFFFF;" d="M441.9,109.5
		c6.7,4.4,15.7,2.6,20.2-4.1c4.4-6.7,2.6-15.7-4.1-20.2c-6.7-4.4-15.7-2.6-20.2,4.1C433.4,96,435.3,105.1,441.9,109.5"/>
	<path style="clip-path:url(#SVGID_00000106123064841106253040000014353749475571989939_);fill:#EF8803;" d="M517.7,168.2
		c4.1,6.9,13,9.3,19.9,5.2c6.9-4.1,9.3-13,5.2-19.9c-4.1-6.9-13-9.3-19.9-5.2C516,152.3,513.6,161.3,517.7,168.2"/>
	<path style="clip-path:url(#SVGID_00000106123064841106253040000014353749475571989939_);fill:#575551;" d="M560.1,254
		c0.7,8,7.7,13.9,15.7,13.3c8-0.7,13.9-7.7,13.3-15.7c-0.7-8-7.7-13.9-15.7-13.3C565.4,239,559.5,246,560.1,254"/>
	<path style="clip-path:url(#SVGID_00000106123064841106253040000014353749475571989939_);fill:#FFFFFF;" d="M561.5,349.8
		c-2.9,7.5,0.9,15.9,8.3,18.8c7.5,2.9,15.9-0.9,18.8-8.3c2.9-7.5-0.9-15.9-8.3-18.8C572.8,338.6,564.4,342.3,561.5,349.8"/>
	<path style="clip-path:url(#SVGID_00000106123064841106253040000014353749475571989939_);fill:#EF8803;" d="M520.9,436.5
		c-5.8,5.5-6.1,14.7-0.6,20.5c5.5,5.8,14.7,6.1,20.5,0.6c5.8-5.5,6.1-14.7,0.6-20.5C535.9,431.3,526.7,431,520.9,436.5"/>
	<path style="clip-path:url(#SVGID_00000106123064841106253040000014353749475571989939_);fill:#575551;" d="M446.8,497.1
		c-7.6,2.4-11.9,10.6-9.4,18.3c2.4,7.6,10.6,11.9,18.3,9.4c7.6-2.4,11.9-10.6,9.4-18.3C462.6,498.9,454.4,494.7,446.8,497.1"/>
	<path style="clip-path:url(#SVGID_00000106123064841106253040000014353749475571989939_);fill:#FFFFFF;" d="M353.7,519.7
		c-7.9-1.1-15.3,4.4-16.5,12.3s4.4,15.3,12.3,16.5c7.9,1.1,15.3-4.4,16.5-12.3C367.1,528.2,361.6,520.9,353.7,519.7"/>
	<path style="clip-path:url(#SVGID_00000106123064841106253040000014353749475571989939_);fill:#EF8803;" d="M260.1,499.5
		c-6.7-4.4-15.7-2.6-20.2,4.1c-4.4,6.7-2.6,15.7,4.1,20.2c6.7,4.4,15.7,2.6,20.2-4.1C268.6,512.9,266.8,503.9,260.1,499.5"/>
	<path style="clip-path:url(#SVGID_00000106123064841106253040000014353749475571989939_);fill:#575551;" d="M184.3,440.8
		c-4.1-6.9-13-9.3-19.9-5.2c-6.9,4.1-9.3,13-5.2,19.9c4.1,6.9,13,9.3,19.9,5.2C186.1,456.7,188.4,447.8,184.3,440.8"/>
	<path style="clip-path:url(#SVGID_00000106123064841106253040000014353749475571989939_);fill:#FFFFFF;" d="M141.8,355
		c-0.7-8-7.7-13.9-15.7-13.3c-8,0.7-13.9,7.7-13.3,15.7c0.7,8,7.7,13.9,15.7,13.3C136.6,370.1,142.5,363,141.8,355"/>
	<path style="clip-path:url(#SVGID_00000106123064841106253040000014353749475571989939_);fill:#EF8803;" d="M140.4,259.2
		c2.9-7.5-0.9-15.9-8.3-18.8c-7.5-2.9-15.9,0.9-18.8,8.3c-2.9,7.5,0.9,15.9,8.3,18.8C129.1,270.5,137.6,266.7,140.4,259.2"/>
	<path style="clip-path:url(#SVGID_00000106123064841106253040000014353749475571989939_);fill:#575551;" d="M181,172.5
		c5.8-5.5,6.1-14.7,0.6-20.5c-5.5-5.8-14.7-6.1-20.5-0.6c-5.8,5.5-6.1,14.7-0.6,20.5C166,177.7,175.2,178,181,172.5"/>
	<path style="clip-path:url(#SVGID_00000106123064841106253040000014353749475571989939_);fill:#FFFFFF;" d="M255.1,111.8
		c7.6-2.4,11.9-10.6,9.4-18.3c-2.4-7.6-10.6-11.9-18.3-9.4c-7.6,2.4-11.9,10.6-9.4,18.3C239.2,110,247.4,114.2,255.1,111.8"/>
	<path style="clip-path:url(#SVGID_00000106123064841106253040000014353749475571989939_);fill:#575551;" d="M213.8,68.7
		c-0.6,0.2-0.7,0.5-0.7,1v7.4c0,0.4,0.1,0.6,0.6,0.6h1c0.4,0,0.5-0.1,0.5-0.6v-6.7c0-0.1,0-0.1,0.1-0.2c0.6-0.2,1.2-0.2,1.7-0.2
		c1.3,0,2,0.6,2,1.8v5.4c0,0.4,0.1,0.6,0.5,0.6h1c0.4,0,0.6-0.1,0.6-0.6v-5.4c0-2.3-1.2-3.6-3.7-3.6C216,68,214.8,68.2,213.8,68.7
		 M208.6,74.3c0,1.1-0.8,1.7-2.1,1.7c-1.3,0-2.1-0.6-2.1-1.7v-2.7c0-1.1,0.7-1.7,2.1-1.7c1.3,0,2.1,0.6,2.1,1.7V74.3z M202.4,74.3
		c0,2.2,1.5,3.6,4.1,3.6c2.7,0,4.2-1.4,4.2-3.6v-2.7c0-2.2-1.5-3.6-4.2-3.6c-2.6,0-4.1,1.3-4.1,3.6V74.3z M198.3,68.3
		c-0.4,0-0.5,0.1-0.5,0.5v8.2c0,0.4,0.1,0.6,0.5,0.6h1c0.4,0,0.6-0.1,0.6-0.6v-8.2c0-0.4-0.1-0.5-0.6-0.5H198.3z M198.8,64.8
		c-0.8,0-1.1,0.3-1.1,1.1v0.2c0,0.8,0.3,1.1,1.1,1.1h0.1c0.8,0,1.1-0.3,1.1-1.1v-0.2c0-0.8-0.3-1.1-1.1-1.1H198.8z M191.5,66.2
		c-0.4,0-0.6,0.1-0.6,0.5v1.6h-1.2c-0.4,0-0.5,0.1-0.5,0.5v0.8c0,0.4,0.1,0.6,0.5,0.6h1.2v3.7c0,1.5,0.3,2.6,0.9,3.2
		c0.6,0.6,1.7,0.8,3.2,0.8c0.4,0,0.6-0.1,0.6-0.6v-0.8c0-0.4-0.1-0.6-0.6-0.6c-0.8,0-1.3-0.1-1.6-0.4c-0.3-0.3-0.4-0.8-0.4-1.7v-3.6
		h2.1c0.4,0,0.6-0.1,0.6-0.6v-0.8c0-0.4-0.1-0.5-0.6-0.5H193v-1.6c0-0.4-0.1-0.5-0.6-0.5H191.5z M185.4,75.8c0,0.1-0.1,0.2-0.2,0.3
		c-0.4,0.1-1,0.1-1.8,0.1c-1.3,0-1.7-0.4-1.7-1.2c0-0.8,0.4-1.2,1.7-1.2c0.1,0,0.7,0,2,0.1V75.8z M179.9,69.9
		c-0.2,0.4-0.1,0.6,0.3,0.8l0.7,0.3c0.4,0.1,0.5,0.1,0.8-0.3c0.4-0.6,1-0.9,1.9-0.9c1.3,0,1.8,0.6,1.8,1.8v0.5
		c-1-0.1-1.6-0.1-1.7-0.1c-2.9,0-4.1,0.8-4.1,2.9c0,1,0.3,1.7,0.9,2.2c0.6,0.5,1.6,0.7,3.2,0.7c1.4,0,2.5-0.2,3.2-0.5
		c0.5-0.2,0.6-0.4,0.6-1v-4.7c0-2.5-1.3-3.7-3.9-3.7C181.8,68,180.6,68.7,179.9,69.9 M177.2,68c-1.4,0-2.5,0.2-3.3,0.5
		c-0.6,0.2-0.7,0.5-0.7,1v7.5c0,0.4,0.1,0.6,0.6,0.6h1c0.4,0,0.5-0.1,0.5-0.6v-6.7c0-0.1,0.1-0.2,0.2-0.2c0.5-0.1,1-0.2,1.7-0.2h0.6
		c0.4,0,0.6-0.1,0.6-0.6v-0.8c0-0.4-0.1-0.6-0.6-0.6H177.2z M168.7,72h-4.2v-0.4c0-1.2,0.7-1.8,2.1-1.8c1.4,0,2.1,0.7,2.1,1.8V72z
		 M162.4,74.1c0,2.4,1.3,3.9,4.1,3.9c1.9,0,3.2-0.6,3.9-1.7c0.3-0.4,0.2-0.7-0.2-0.9l-0.6-0.3c-0.4-0.2-0.6-0.2-0.9,0.2
		c-0.4,0.6-1.1,1-2.1,1c-1.3,0-2.1-0.6-2.1-1.8v-0.7h5.4c0.5,0,0.8-0.3,0.8-0.8v-1.1c0-2.2-1.4-3.7-4.2-3.7c-2.7,0-4.2,1.4-4.2,3.9
		V74.1z M152.7,68.7c-0.6,0.2-0.7,0.5-0.7,1v7.4c0,0.4,0.1,0.6,0.6,0.6h1c0.4,0,0.5-0.1,0.5-0.6v-6.7c0-0.1,0-0.1,0.1-0.2
		c0.6-0.2,1.2-0.2,1.7-0.2c1.3,0,2,0.6,2,1.8v5.4c0,0.4,0.1,0.6,0.5,0.6h1c0.4,0,0.6-0.1,0.6-0.6v-5.4c0-2.3-1.2-3.6-3.7-3.6
		C154.9,68,153.8,68.2,152.7,68.7 M147.6,72h-4.2v-0.4c0-1.2,0.7-1.8,2.1-1.8c1.4,0,2.1,0.7,2.1,1.8V72z M141.4,74.1
		c0,2.4,1.3,3.9,4.1,3.9c1.9,0,3.2-0.6,3.9-1.7c0.3-0.4,0.2-0.7-0.2-0.9l-0.6-0.3c-0.4-0.2-0.6-0.2-0.9,0.2c-0.4,0.6-1.1,1-2.1,1
		c-1.3,0-2.1-0.6-2.1-1.8v-0.7h5.4c0.5,0,0.8-0.3,0.8-0.8v-1.1c0-2.2-1.4-3.7-4.2-3.7c-2.7,0-4.2,1.4-4.2,3.9V74.1z M136.8,70.2
		c0.1,0.1,0.2,0.1,0.2,0.2v4.9c-0.7,0.2-1.3,0.3-1.9,0.3c-1.3,0-2-0.6-2-1.8v-1.9c0-1.3,0.7-1.9,2.1-1.9
		C135.8,70,136.3,70,136.8,70.2 M131,73.9c0,2.3,1.2,3.6,3.7,3.6c0.6,0,1.4-0.1,2.2-0.3v0.9c0,1.3-0.6,1.9-1.9,1.9
		c-0.9,0-1.5-0.3-1.9-0.9c-0.3-0.4-0.5-0.4-0.9-0.2l-0.7,0.4c-0.4,0.2-0.5,0.5-0.2,0.9c0.7,1.2,1.9,1.7,3.7,1.7c2.7,0,4-1.5,4-3.9
		v-8.4c0-0.6-0.1-0.7-0.7-1c-0.8-0.4-1.9-0.6-3.3-0.6c-2.7,0-4.1,1.3-4.1,3.8V73.9z"/>
	<path style="clip-path:url(#SVGID_00000106123064841106253040000014353749475571989939_);fill:#575551;" d="M198.3,42.3
		c-0.4,0-0.6,0.1-0.6,0.6v12.2c0,0.4,0.1,0.6,0.6,0.6h1c0.4,0,0.5-0.1,0.5-0.6v-6.9c0.4-0.2,1-0.3,1.9-0.3c1.3,0,2,0.6,2,1.8v5.4
		c0,0.4,0.1,0.6,0.6,0.6h1c0.4,0,0.6-0.1,0.6-0.6v-5.4c0-2.4-1.2-3.6-3.7-3.6c-1,0-2,0.2-2.2,0.3v-3.4c0-0.4-0.1-0.6-0.5-0.6H198.3z
		 M187.4,52.2c0,2.4,1.3,3.7,4,3.7c2.1,0,3.4-0.8,4-2.4c0.2-0.4,0-0.6-0.4-0.8l-0.8-0.2c-0.4-0.1-0.6-0.1-0.8,0.4
		c-0.3,0.8-1,1.2-2,1.2c-1.3,0-2-0.6-2-1.8v-2.7c0-1.2,0.6-1.8,2-1.8c1,0,1.7,0.4,2,1.2c0.2,0.4,0.4,0.5,0.8,0.4l0.8-0.3
		c0.4-0.2,0.5-0.4,0.4-0.8c-0.5-1.4-1.8-2.4-3.9-2.4c-2.8,0-4.1,1.3-4.1,3.7V52.2z M183.2,50h-4.2v-0.4c0-1.2,0.7-1.8,2.1-1.8
		c1.4,0,2.1,0.7,2.1,1.8V50z M177,52.1c0,2.4,1.3,3.9,4.1,3.9c1.9,0,3.2-0.6,3.9-1.7c0.3-0.4,0.2-0.7-0.2-0.9l-0.6-0.3
		c-0.4-0.2-0.6-0.2-0.9,0.2c-0.4,0.6-1.1,1-2.1,1c-1.3,0-2.1-0.6-2.1-1.8v-0.7h5.4c0.5,0,0.8-0.3,0.8-0.8v-1.1
		c0-2.2-1.4-3.7-4.2-3.7c-2.7,0-4.2,1.4-4.2,3.9V52.1z M172.8,50h-4.2v-0.4c0-1.2,0.7-1.8,2.1-1.8c1.4,0,2.1,0.7,2.1,1.8V50z
		 M166.6,52.1c0,2.4,1.3,3.9,4.1,3.9c1.9,0,3.2-0.6,3.9-1.7c0.3-0.4,0.2-0.7-0.2-0.9l-0.6-0.3c-0.4-0.2-0.6-0.2-0.9,0.2
		c-0.4,0.6-1.1,1-2.1,1c-1.3,0-2.1-0.6-2.1-1.8v-0.7h5.4c0.5,0,0.8-0.3,0.8-0.8v-1.1c0-2.2-1.4-3.7-4.2-3.7c-2.7,0-4.2,1.4-4.2,3.9
		V52.1z M162.3,52.1c0,1.3-0.7,1.9-2.1,1.9c-0.5,0-1-0.1-1.7-0.3v-5.3c0-0.1,0.1-0.2,0.2-0.2c0.5-0.1,1-0.2,1.6-0.2
		c1.3,0,2,0.6,2,1.8V52.1z M157.1,46.6c-0.6,0.2-0.7,0.5-0.7,1V59c0,0.4,0.1,0.6,0.6,0.6h1c0.4,0,0.5-0.1,0.5-0.6v-3.5
		c0.8,0.2,1.5,0.3,1.9,0.3c2.7,0,4-1.3,4-3.8v-2.5c0-2.4-1.3-3.6-3.8-3.6C159.2,46,158.1,46.2,157.1,46.6 M146.5,48.9
		c0,0.9,0.3,1.6,0.8,2c0.2,0.2,0.5,0.4,0.8,0.5c0.7,0.3,1.2,0.3,2,0.4c1.6,0.2,2.2,0.4,2.2,1.2c0,0.7-0.6,1.1-1.9,1.1
		c-1.1,0-1.8-0.3-2-1c-0.2-0.4-0.4-0.5-0.7-0.3l-0.8,0.3c-0.4,0.1-0.5,0.4-0.4,0.8c0.6,1.5,1.9,2.2,4,2.2c2.5,0,3.9-1.2,3.9-3
		c0-2-1.2-2.7-3.7-2.9c-1.6-0.1-2.1-0.3-2.1-1.1c0-0.6,0.6-1,1.7-1c1,0,1.6,0.3,1.9,0.9c0.2,0.4,0.3,0.4,0.8,0.3l0.8-0.3
		c0.4-0.2,0.5-0.5,0.3-0.8c-0.6-1.3-1.9-1.9-3.9-1.9C147.8,46,146.5,47.2,146.5,48.9"/>
</g>
</svg>
