<?xml version="1.0" encoding="utf-8"?>
<!-- Generator: Adobe Illustrator 26.0.3, SVG Export Plug-In . SVG Version: 6.00 Build 0)  -->
<svg version="1.1" id="Laag_1" xmlns="http://www.w3.org/2000/svg" xmlns:xlink="http://www.w3.org/1999/xlink" x="0px" y="0px"
	 viewBox="0 0 710.1 561.6" style="enable-background:new 0 0 710.1 561.6;" xml:space="preserve">
<style type="text/css">
	.st0{clip-path:url(#SVGID_00000006693641125664731260000015866583286944825991_);fill:#4CACC6;}
	.st1{clip-path:url(#SVGID_00000021089129246492218470000017696867064680934577_);fill:#35312A;}
</style>
<g>
	<defs>
		<rect id="SVGID_1_" width="710.1" height="561.6"/>
	</defs>
	<clipPath id="SVGID_00000170268729734964953940000015398034897295781265_">
		<use xlink:href="#SVGID_1_"  style="overflow:visible;"/>
	</clipPath>
</g>
<g>
	<defs>
		<rect id="SVGID_00000150076168413616245380000011541295835571623356_" width="710.1" height="561.6"/>
	</defs>
	<clipPath id="SVGID_00000106144458521015771720000004429850541969138868_">
		<use xlink:href="#SVGID_00000150076168413616245380000011541295835571623356_"  style="overflow:visible;"/>
	</clipPath>
	<path style="clip-path:url(#SVGID_00000106144458521015771720000004429850541969138868_);fill:#4CACC6;" d="M709.9,380.3h0.2V177.8
		h-0.2c-0.9-20-17.3-36-37.6-36c-20.3,0-36.7,16-37.6,36h-0.2v202.5h0.2c0,0.6-0.2,1.2-0.2,1.8c0,20.9,16.9,37.8,37.8,37.8
		c20.9,0,37.8-16.9,37.8-37.8C710.1,381.4,710,380.9,709.9,380.3"/>
	<path style="clip-path:url(#SVGID_00000106144458521015771720000004429850541969138868_);fill:#4CACC6;" d="M568.1,526.5V37.2h-0.1
		C567.8,16.6,551,0,530.3,0c-20.7,0-37.4,16.6-37.7,37.2h-0.1v489.3h0.3c1.4,19.6,17.6,35.1,37.5,35.1c20,0,36.1-15.5,37.5-35.1
		H568.1z"/>
	<path style="clip-path:url(#SVGID_00000106144458521015771720000004429850541969138868_);fill:#4CACC6;" d="M426.2,155.3h-0.4
		c0.1-1.3,0.4-2.5,0.4-3.9c0-20.9-16.9-37.8-37.8-37.8c-20.9,0-37.8,16.9-37.8,37.8c0,1.3,0.3,2.6,0.4,3.9h-0.4v256.5h0.2
		c0.9,20.1,17.3,36.2,37.6,36.2c20.3,0,36.8-16.1,37.6-36.2h0.2V155.3z"/>
</g>
<g>
	<g>
		<g>
			<defs>
				<rect id="SVGID_00000128471039607744252380000010951398528498580895_" y="74" width="276.7" height="413.7"/>
			</defs>
			<clipPath id="SVGID_00000054951243489437716470000007692726130192421249_">
				<use xlink:href="#SVGID_00000128471039607744252380000010951398528498580895_"  style="overflow:visible;"/>
			</clipPath>
			<path style="clip-path:url(#SVGID_00000054951243489437716470000007692726130192421249_);fill:#35312A;" d="M256.2,231.4
				l-139-139l0,0c-12.5-11.5-29-18.5-47.4-18.5C31.2,73.9,0,105.1,0,143.6c0,18.2,7,34.9,18.5,47.4l0,0l89.7,89.7l-89.7,89.7l0,0
				C7,382.9,0,399.5,0,417.8c0,38.6,31.2,69.8,69.8,69.8c18.2,0,34.9-7,47.3-18.5l0,0l2-2l0,0l137-137
				c12.7-12.6,20.5-30.1,20.5-49.4C276.7,261.5,268.9,244.1,256.2,231.4"/>
		</g>
	</g>
</g>
</svg>
