<?xml version="1.0" encoding="utf-8"?>
<!-- Generator: Adobe Illustrator 24.3.0, SVG Export Plug-In . SVG Version: 6.00 Build 0)  -->
<svg version="1.1" id="Laag_1" xmlns="http://www.w3.org/2000/svg" xmlns:xlink="http://www.w3.org/1999/xlink" x="0px" y="0px"
	 viewBox="0 0 274 327" style="enable-background:new 0 0 274 327;" xml:space="preserve">
<style type="text/css">
	.st0{clip-path:url(#SVGID_2_);fill:#36322A;}
	.st1{clip-path:url(#SVGID_4_);fill:#4EADC6;}
</style>
<g>
	<g>
		<defs>
			<rect id="SVGID_1_" x="0.6" y="40.8" width="164.8" height="246.4"/>
		</defs>
		<clipPath id="SVGID_2_">
			<use xlink:href="#SVGID_1_"  style="overflow:visible;"/>
		</clipPath>
		<path class="st0" d="M153.2,134.5L70.4,51.7l0,0c-7.4-6.9-17.3-11-28.2-11c-23,0-41.6,18.6-41.6,41.6c0,10.9,4.2,20.8,11,28.2l0,0
			l53.4,53.4l-53.4,53.4l0,0c-6.9,7.4-11,17.3-11,28.2c0,23,18.6,41.6,41.6,41.6c10.9,0,20.8-4.2,28.2-11l0,0l1.2-1.2l0,0l81.6-81.6
			c7.6-7.5,12.2-18,12.2-29.4C165.4,152.5,160.8,142.1,153.2,134.5"/>
	</g>
</g>
<g>
	<defs>
		<rect id="SVGID_3_" x="160.8" y="0.3" width="113.3" height="327.3"/>
	</defs>
	<clipPath id="SVGID_4_">
		<use xlink:href="#SVGID_3_"  style="overflow:visible;"/>
	</clipPath>
	<path class="st1" d="M252.1,0.3L252.1,0.3l-69.9,0c-11.8,0-21.4,9.9-21.4,22c0,12.2,9.6,22,21.4,22H230v239.2h-47.9
		c-11.8,0-21.4,9.9-21.4,22c0,12.2,9.6,22,21.4,22h69.9v0c0,0,0,0,0,0c12.2,0,22-9.9,22-22V22.4h0c0,0,0,0,0,0
		C274.1,10.2,264.2,0.3,252.1,0.3C252.1,0.3,252.1,0.3,252.1,0.3"/>
</g>
</svg>
