<?xml version="1.0" encoding="utf-8"?>
<!-- Generator: Adobe Illustrator 26.0.3, SVG Export Plug-In . SVG Version: 6.00 Build 0)  -->
<svg version="1.1" id="Laag_1" xmlns="http://www.w3.org/2000/svg" xmlns:xlink="http://www.w3.org/1999/xlink" x="0px" y="0px"
	 viewBox="0 0 927.5 540.6" style="enable-background:new 0 0 927.5 540.6;" xml:space="preserve">
<style type="text/css">
	.st0{clip-path:url(#SVGID_00000159433614521648054560000013382356690467280823_);fill:#FFFFFF;}
	.st1{fill:#35312A;}
</style>
<g>
	<defs>
		<rect id="SVGID_1_" width="927.5" height="540.6"/>
	</defs>
	<clipPath id="SVGID_00000038384320852131298660000000258524620607815809_">
		<use xlink:href="#SVGID_1_"  style="overflow:visible;"/>
	</clipPath>
	<path style="clip-path:url(#SVGID_00000038384320852131298660000000258524620607815809_);fill:#FFFFFF;" d="M581.6,174.5h-0.2
		v194.9h0.2c0.9,19.3,16.7,34.7,36.2,34.7c19.5,0,35.3-15.4,36.2-34.7h0.2V174.5h-0.2c0-0.6,0.2-1.1,0.2-1.7
		c0-20.1-16.3-36.4-36.4-36.4c-20.1,0-36.4,16.3-36.4,36.4C581.5,173.4,581.6,174,581.6,174.5"/>
	<path style="clip-path:url(#SVGID_00000038384320852131298660000000258524620607815809_);fill:#FFFFFF;" d="M718.1,33.8v471h0.1
		c0.3,19.8,16.4,35.8,36.3,35.8c19.9,0,36-16,36.3-35.8h0.1v-471h-0.3C789.3,14.9,773.7,0,754.5,0c-19.2,0-34.8,14.9-36.1,33.8
		H718.1z"/>
	<path style="clip-path:url(#SVGID_00000038384320852131298660000000258524620607815809_);fill:#FFFFFF;" d="M854.8,391.1h0.4
		c-0.1,1.2-0.4,2.5-0.4,3.7c0,20.1,16.3,36.4,36.4,36.4c20.1,0,36.4-16.3,36.4-36.4c0-1.3-0.3-2.5-0.4-3.7h0.4V144.2h-0.2
		c-0.8-19.4-16.7-34.8-36.2-34.8c-19.6,0-35.4,15.5-36.2,34.8h-0.2V391.1z"/>
</g>
<g>
	<defs>
		<rect id="SVGID_00000173132737641232528140000003394943935252417672_" width="927.5" height="540.6"/>
	</defs>
	<clipPath id="SVGID_00000090260324699848549590000001385413089275950737_">
		<use xlink:href="#SVGID_00000173132737641232528140000003394943935252417672_"  style="overflow:visible;"/>
	</clipPath>
</g>
<path class="st1" d="M150.9,290.1L17.8,423.2l0,0C6.7,435.2,0,451.1,0,468.6c0,37,29.9,66.9,66.9,66.9c17.5,0,33.4-6.7,45.4-17.8
	l0,0l86-86l86,86l0,0c11.9,11,27.8,17.8,45.3,17.8c37,0,66.9-29.9,66.9-66.9c0-17.5-6.7-33.4-17.8-45.3l0,0l-1.9-1.9l0,0
	L245.5,290.2c-12.1-12.2-28.9-19.7-47.3-19.7C179.8,270.4,163.1,277.9,150.9,290.1"/>
<g>
	<path class="st1" d="M198.2,206.7c55.7,0,100.8-45.1,100.8-100.8C299,50.2,253.9,5.1,198.2,5.1S97.4,50.2,97.4,105.9
		C97.4,161.5,142.5,206.7,198.2,206.7"/>
</g>
</svg>
