<?xml version="1.0" encoding="utf-8"?>
<!-- Generator: Adobe Illustrator 26.0.3, SVG Export Plug-In . SVG Version: 6.00 Build 0)  -->
<svg version="1.1" id="Laag_1" xmlns="http://www.w3.org/2000/svg" xmlns:xlink="http://www.w3.org/1999/xlink" x="0px" y="0px"
	 viewBox="0 0 561.6 359.5" style="enable-background:new 0 0 561.6 359.5;" xml:space="preserve">
<style type="text/css">
	.st0{clip-path:url(#SVGID_00000135690997297268251340000009433878345647475855_);fill:#4CACC6;}
</style>
<g>
	<defs>
		<rect id="SVGID_1_" width="561.6" height="359.5"/>
	</defs>
	<clipPath id="SVGID_00000038387097508154343340000010232116519805446836_">
		<use xlink:href="#SVGID_1_"  style="overflow:visible;"/>
	</clipPath>
	<path style="clip-path:url(#SVGID_00000038387097508154343340000010232116519805446836_);fill:#4CACC6;" d="M181.3,359.3v0.2h202.5
		v-0.2c20-0.9,36-17.4,36-37.6c0-20.3-16-36.7-36-37.6v-0.2H181.3v0.2c-0.6,0-1.2-0.2-1.8-0.2c-20.9,0-37.8,16.9-37.8,37.8
		c0,20.9,16.9,37.8,37.8,37.8C180.2,359.5,180.7,359.4,181.3,359.3"/>
	<path style="clip-path:url(#SVGID_00000038387097508154343340000010232116519805446836_);fill:#4CACC6;" d="M35.1,217.6h489.3v-0.1
		c20.6-0.3,37.2-17.1,37.2-37.7c0-20.7-16.6-37.4-37.2-37.7V142H35.1v0.3C15.5,143.6,0,159.8,0,179.8c0,19.9,15.5,36.1,35.1,37.5
		V217.6z"/>
	<path style="clip-path:url(#SVGID_00000038387097508154343340000010232116519805446836_);fill:#4CACC6;" d="M406.3,75.6v-0.4
		c1.3,0.1,2.5,0.4,3.9,0.4c20.9,0,37.8-16.9,37.8-37.8C448,16.9,431,0,410.2,0c-1.3,0-2.6,0.3-3.9,0.4V0H149.8v0.2
		c-20.1,0.9-36.2,17.3-36.2,37.6c0,20.3,16.1,36.8,36.2,37.6v0.2H406.3z"/>
</g>
</svg>
